<svg width="713" height="222" viewBox="0 0 713 222" fill="none" xmlns="http://www.w3.org/2000/svg">
<path d="M0.753185 4.65947L0.253182 4.65948L0.253187 4.65928L0.753185 4.65947ZM0.753173 36.9185L0.25317 36.9186L0.753173 36.9185ZM70.7531 106.919L70.7531 106.419L70.7531 106.919ZM639.734 106.919L639.734 107.419L639.734 106.919ZM709.72 178.31L710.22 178.32L709.72 178.31ZM709.223 221.126C709.024 221.318 708.707 221.311 708.516 221.112L705.398 217.868C705.206 217.668 705.212 217.352 705.412 217.161C705.611 216.969 705.927 216.976 706.119 217.175L708.89 220.059L711.774 217.287C711.973 217.096 712.29 217.102 712.481 217.301C712.673 217.5 712.666 217.817 712.467 218.008L709.223 221.126ZM708.376 220.756L708.395 219.791L709.395 219.811L709.376 220.776L708.376 220.756ZM708.434 217.861L708.472 215.931L709.472 215.951L709.434 217.881L708.434 217.861ZM708.51 214.001L708.549 212.072L709.549 212.091L709.51 214.021L708.51 214.001ZM708.587 210.142L708.626 208.212L709.625 208.232L709.587 210.162L708.587 210.142ZM708.664 206.282L708.702 204.352L709.702 204.372L709.664 206.302L708.664 206.282ZM708.741 202.423L708.779 200.493L709.779 200.513L709.74 202.442L708.741 202.423ZM708.817 198.563L708.856 196.633L709.855 196.653L709.817 198.583L708.817 198.563ZM708.894 194.703L708.932 192.773L709.932 192.793L709.894 194.723L708.894 194.703ZM708.971 190.844L709.009 188.914L710.009 188.934L709.97 190.864L708.971 190.844ZM709.047 186.984L709.086 185.054L710.085 185.074L710.047 187.004L709.047 186.984ZM709.124 183.124L709.162 181.195L710.162 181.214L710.124 183.144L709.124 183.124ZM709.201 179.265L709.22 178.3L710.22 178.32L710.201 179.285L709.201 179.265ZM709.22 178.3C709.226 177.969 709.231 177.638 709.233 177.308L710.233 177.314C710.231 177.649 710.226 177.984 710.22 178.32L709.22 178.3ZM709.217 175.335C709.202 174.674 709.178 174.016 709.146 173.36L710.144 173.31C710.178 173.976 710.202 174.643 710.217 175.313L709.217 175.335ZM709.019 171.393C708.967 170.734 708.906 170.078 708.836 169.424L709.831 169.318C709.902 169.981 709.963 170.646 710.016 171.315L709.019 171.393ZM708.599 167.468C708.51 166.813 708.412 166.162 708.305 165.513L709.291 165.35C709.4 166.008 709.499 166.669 709.59 167.333L708.599 167.468ZM707.956 163.571C707.83 162.924 707.695 162.279 707.551 161.638L708.526 161.419C708.672 162.07 708.809 162.723 708.937 163.38L707.956 163.571ZM707.091 159.718C706.928 159.08 706.757 158.445 706.577 157.813L707.538 157.539C707.721 158.179 707.895 158.824 708.06 159.472L707.091 159.718ZM706.007 155.922C705.809 155.294 705.601 154.67 705.385 154.051L706.33 153.722C706.549 154.35 706.759 154.983 706.961 155.62L706.007 155.922ZM704.708 152.194C704.474 151.579 704.231 150.967 703.98 150.36L704.904 149.978C705.159 150.594 705.405 151.214 705.643 151.838L704.708 152.194ZM703.198 148.547C702.929 147.946 702.651 147.349 702.366 146.757L703.266 146.322C703.556 146.923 703.838 147.528 704.111 148.138L703.198 148.547ZM701.483 144.992C701.179 144.407 700.868 143.827 700.549 143.251L701.423 142.766C701.747 143.35 702.063 143.938 702.37 144.531L701.483 144.992ZM699.567 141.54C699.231 140.973 698.888 140.411 698.536 139.855L699.382 139.321C699.738 139.885 700.087 140.455 700.427 141.03L699.567 141.54ZM697.458 138.201C697.091 137.655 696.716 137.114 696.334 136.578L697.148 135.997C697.535 136.54 697.916 137.089 698.288 137.643L697.458 138.201ZM695.164 134.988C694.766 134.463 694.362 133.944 693.95 133.432L694.729 132.805C695.147 133.326 695.558 133.852 695.961 134.384L695.164 134.988ZM692.692 131.91C692.265 131.408 691.832 130.913 691.391 130.424L692.134 129.755C692.581 130.251 693.021 130.753 693.453 131.262L692.692 131.91ZM690.049 128.976C689.595 128.499 689.135 128.029 688.667 127.566L689.371 126.856C689.845 127.326 690.313 127.803 690.773 128.286L690.049 128.976ZM687.246 126.195C686.766 125.745 686.279 125.302 685.786 124.866L686.449 124.117C686.949 124.56 687.443 125.009 687.93 125.466L687.246 126.195ZM684.29 123.578C683.785 123.156 683.274 122.741 682.758 122.333L683.377 121.548C683.901 121.962 684.419 122.383 684.931 122.811L684.29 123.578ZM681.191 121.132C680.663 120.739 680.13 120.353 679.591 119.975L680.165 119.156C680.712 119.54 681.253 119.931 681.788 120.329L681.191 121.132ZM677.959 118.865C677.409 118.502 676.855 118.147 676.295 117.8L676.822 116.95C677.39 117.302 677.952 117.662 678.509 118.03L677.959 118.865ZM674.603 116.785C674.034 116.454 673.46 116.131 672.882 115.817L673.359 114.938C673.946 115.257 674.529 115.585 675.105 115.92L674.603 116.785ZM671.134 114.899C670.548 114.601 669.957 114.312 669.361 114.031L669.788 113.126C670.392 113.412 670.992 113.705 671.587 114.007L671.134 114.899ZM667.564 113.213C666.962 112.95 666.355 112.695 665.745 112.448L666.119 111.521C666.739 111.771 667.354 112.03 667.964 112.297L667.564 113.213ZM663.902 111.735C663.286 111.507 662.667 111.287 662.043 111.076L662.364 110.128C662.997 110.343 663.625 110.566 664.25 110.797L663.902 111.735ZM660.164 110.469C659.536 110.276 658.904 110.092 658.269 109.917L658.535 108.953C659.18 109.131 659.82 109.317 660.457 109.513L660.164 110.469ZM656.359 109.419C655.721 109.262 655.079 109.115 654.434 108.976L654.644 107.998C655.299 108.139 655.95 108.289 656.597 108.448L656.359 109.419ZM652.5 108.588C651.854 108.468 651.204 108.357 650.551 108.255L650.705 107.267C651.367 107.371 652.027 107.483 652.683 107.605L652.5 108.588ZM648.6 107.979C647.948 107.896 647.293 107.822 646.635 107.757L646.733 106.762C647.4 106.828 648.065 106.903 648.726 106.987L648.6 107.979ZM644.671 107.592C644.015 107.546 643.358 107.509 642.698 107.481L642.74 106.482C643.409 106.51 644.076 106.548 644.74 106.594L644.671 107.592ZM640.725 107.426C640.395 107.421 640.065 107.419 639.734 107.419L639.734 106.419C640.069 106.419 640.405 106.422 640.739 106.426L640.725 107.426ZM639.734 107.419L638.732 107.419L638.732 106.419L639.734 106.419L639.734 107.419ZM636.728 107.419L634.725 107.419L634.725 106.419L636.728 106.419L636.728 107.419ZM632.722 107.419L630.718 107.419L630.718 106.419L632.722 106.419L632.722 107.419ZM628.715 107.419L626.711 107.419L626.711 106.419L628.715 106.419L628.715 107.419ZM624.708 107.419L622.704 107.419L622.704 106.419L624.708 106.419L624.708 107.419ZM620.701 107.419L618.697 107.419L618.697 106.419L620.701 106.419L620.701 107.419ZM616.694 107.419L614.69 107.419L614.69 106.419L616.694 106.419L616.694 107.419ZM612.687 107.419L610.684 107.419L610.684 106.419L612.687 106.419L612.687 107.419ZM608.68 107.419L606.677 107.419L606.677 106.419L608.68 106.419L608.68 107.419ZM604.673 107.419L602.67 107.419L602.67 106.419L604.673 106.419L604.673 107.419ZM600.666 107.419L598.663 107.419L598.663 106.419L600.666 106.419L600.666 107.419ZM596.659 107.419L594.656 107.419L594.656 106.419L596.659 106.419L596.659 107.419ZM592.653 107.419L590.649 107.419L590.649 106.419L592.653 106.419L592.653 107.419ZM588.646 107.419L586.642 107.419L586.642 106.419L588.646 106.419L588.646 107.419ZM584.639 107.419L582.635 107.419L582.635 106.419L584.639 106.419L584.639 107.419ZM580.632 107.419L578.628 107.419L578.628 106.419L580.632 106.419L580.632 107.419ZM576.625 107.419L574.621 107.419L574.621 106.419L576.625 106.419L576.625 107.419ZM572.618 107.419L570.615 107.419L570.615 106.419L572.618 106.419L572.618 107.419ZM568.611 107.419L566.608 107.419L566.608 106.419L568.611 106.419L568.611 107.419ZM564.604 107.419L562.601 107.419L562.601 106.419L564.604 106.419L564.604 107.419ZM560.597 107.419L558.594 107.419L558.594 106.419L560.597 106.419L560.597 107.419ZM556.59 107.419L554.587 107.419L554.587 106.419L556.59 106.419L556.59 107.419ZM552.583 107.419L550.58 107.419L550.58 106.419L552.583 106.419L552.583 107.419ZM548.577 107.419L546.573 107.419L546.573 106.419L548.576 106.419L548.577 107.419ZM544.57 107.419L542.566 107.419L542.566 106.419L544.57 106.419L544.57 107.419ZM540.563 107.419L538.559 107.419L538.559 106.419L540.563 106.419L540.563 107.419ZM536.556 107.419L534.552 107.419L534.552 106.419L536.556 106.419L536.556 107.419ZM532.549 107.419L530.545 107.419L530.545 106.419L532.549 106.419L532.549 107.419ZM528.542 107.419L526.538 107.419L526.538 106.419L528.542 106.419L528.542 107.419ZM524.535 107.419L522.532 107.419L522.532 106.419L524.535 106.419L524.535 107.419ZM520.528 107.419L518.525 107.419L518.525 106.419L520.528 106.419L520.528 107.419ZM516.521 107.419L514.518 107.419L514.518 106.419L516.521 106.419L516.521 107.419ZM512.514 107.419L510.511 107.419L510.511 106.419L512.514 106.419L512.514 107.419ZM508.507 107.419L506.504 107.419L506.504 106.419L508.507 106.419L508.507 107.419ZM504.501 107.419L502.497 107.419L502.497 106.419L504.5 106.419L504.501 107.419ZM500.494 107.419L498.49 107.419L498.49 106.419L500.494 106.419L500.494 107.419ZM496.487 107.419L494.483 107.419L494.483 106.419L496.487 106.419L496.487 107.419ZM492.48 107.419L490.476 107.419L490.476 106.419L492.48 106.419L492.48 107.419ZM488.473 107.419L486.469 107.419L486.469 106.419L488.473 106.419L488.473 107.419ZM484.466 107.419L482.463 107.419L482.463 106.419L484.466 106.419L484.466 107.419ZM480.459 107.419L478.456 107.419L478.456 106.419L480.459 106.419L480.459 107.419ZM476.452 107.419L474.449 107.419L474.449 106.419L476.452 106.419L476.452 107.419ZM472.445 107.419L470.442 107.419L470.442 106.419L472.445 106.419L472.445 107.419ZM468.438 107.419L466.435 107.419L466.435 106.419L468.438 106.419L468.438 107.419ZM464.432 107.419L462.428 107.419L462.428 106.419L464.432 106.419L464.432 107.419ZM460.425 107.419L458.421 107.419L458.421 106.419L460.425 106.419L460.425 107.419ZM456.418 107.419L454.414 107.419L454.414 106.419L456.418 106.419L456.418 107.419ZM452.411 107.419L450.407 107.419L450.407 106.419L452.411 106.419L452.411 107.419ZM448.404 107.419L446.4 107.419L446.401 106.419L448.404 106.419L448.404 107.419ZM444.397 107.419L442.394 107.419L442.394 106.419L444.397 106.419L444.397 107.419ZM440.39 107.419L438.387 107.419L438.387 106.419L440.39 106.419L440.39 107.419ZM436.383 107.419L434.38 107.419L434.38 106.419L436.383 106.419L436.383 107.419ZM432.376 107.419L430.373 107.419L430.373 106.419L432.376 106.419L432.376 107.419ZM428.369 107.419L426.366 107.419L426.366 106.419L428.369 106.419L428.369 107.419ZM424.363 107.419L422.359 107.419L422.359 106.419L424.363 106.419L424.363 107.419ZM420.356 107.419L418.352 107.419L418.352 106.419L420.356 106.419L420.356 107.419ZM416.349 107.419L414.345 107.419L414.345 106.419L416.349 106.419L416.349 107.419ZM412.342 107.419L410.338 107.419L410.338 106.419L412.342 106.419L412.342 107.419ZM408.335 107.419L406.332 107.419L406.332 106.419L408.335 106.419L408.335 107.419ZM404.328 107.419L402.325 107.419L402.325 106.419L404.328 106.419L404.328 107.419ZM400.321 107.419L398.318 107.419L398.318 106.419L400.321 106.419L400.321 107.419ZM396.314 107.419L394.311 107.419L394.311 106.419L396.314 106.419L396.314 107.419ZM392.307 107.419L390.304 107.419L390.304 106.419L392.307 106.419L392.307 107.419ZM388.3 107.419L386.297 107.419L386.297 106.419L388.3 106.419L388.3 107.419ZM384.294 107.419L382.29 107.419L382.29 106.419L384.294 106.419L384.294 107.419ZM380.287 107.419L378.283 107.419L378.283 106.419L380.287 106.419L380.287 107.419ZM376.28 107.419L374.276 107.419L374.276 106.419L376.28 106.419L376.28 107.419ZM372.273 107.419L370.269 107.419L370.269 106.419L372.273 106.419L372.273 107.419ZM368.266 107.419L366.263 107.419L366.263 106.419L368.266 106.419L368.266 107.419ZM364.259 107.419L362.256 107.419L362.256 106.419L364.259 106.419L364.259 107.419ZM360.252 107.419L358.249 107.419L358.249 106.419L360.252 106.419L360.252 107.419ZM356.245 107.419L354.242 107.419L354.242 106.419L356.245 106.419L356.245 107.419ZM352.238 107.419L350.235 107.419L350.235 106.419L352.238 106.419L352.238 107.419ZM348.231 107.419L346.228 107.419L346.228 106.419L348.232 106.419L348.231 107.419ZM344.225 107.419L342.221 107.419L342.221 106.419L344.225 106.419L344.225 107.419ZM340.218 107.419L338.214 107.419L338.214 106.419L340.218 106.419L340.218 107.419ZM336.211 107.419L334.207 107.419L334.207 106.419L336.211 106.419L336.211 107.419ZM332.204 107.419L330.2 107.419L330.2 106.419L332.204 106.419L332.204 107.419ZM328.197 107.419L326.194 107.419L326.194 106.419L328.197 106.419L328.197 107.419ZM324.19 107.419L322.187 107.419L322.187 106.419L324.19 106.419L324.19 107.419ZM320.183 107.419L318.18 107.419L318.18 106.419L320.183 106.419L320.183 107.419ZM316.176 107.419L314.173 107.419L314.173 106.419L316.176 106.419L316.176 107.419ZM312.169 107.419L310.166 107.419L310.166 106.419L312.169 106.419L312.169 107.419ZM308.163 107.419L306.159 107.419L306.159 106.419L308.163 106.419L308.163 107.419ZM304.156 107.419L302.152 107.419L302.152 106.419L304.156 106.419L304.156 107.419ZM300.149 107.419L298.145 107.419L298.145 106.419L300.149 106.419L300.149 107.419ZM296.142 107.419L294.138 107.419L294.138 106.419L296.142 106.419L296.142 107.419ZM292.135 107.419L290.131 107.419L290.131 106.419L292.135 106.419L292.135 107.419ZM288.128 107.419L286.125 107.419L286.125 106.419L288.128 106.419L288.128 107.419ZM284.121 107.419L282.118 107.419L282.118 106.419L284.121 106.419L284.121 107.419ZM280.114 107.419L278.111 107.419L278.111 106.419L280.114 106.419L280.114 107.419ZM276.107 107.419L274.104 107.419L274.104 106.419L276.107 106.419L276.107 107.419ZM272.1 107.419L270.097 107.419L270.097 106.419L272.1 106.419L272.1 107.419ZM268.094 107.419L266.09 107.419L266.09 106.419L268.094 106.419L268.094 107.419ZM264.087 107.419L262.083 107.419L262.083 106.419L264.087 106.419L264.087 107.419ZM260.08 107.419L258.076 107.419L258.076 106.419L260.08 106.419L260.08 107.419ZM256.073 107.419L254.069 107.419L254.069 106.419L256.073 106.419L256.073 107.419ZM252.066 107.419L250.063 107.419L250.063 106.419L252.066 106.419L252.066 107.419ZM248.059 107.419L246.056 107.419L246.056 106.419L248.059 106.419L248.059 107.419ZM244.052 107.419L242.049 107.419L242.049 106.419L244.052 106.419L244.052 107.419ZM240.045 107.419L238.042 107.419L238.042 106.419L240.045 106.419L240.045 107.419ZM236.038 107.419L234.035 107.419L234.035 106.419L236.038 106.419L236.038 107.419ZM232.031 107.419L230.028 107.419L230.028 106.419L232.031 106.419L232.031 107.419ZM228.025 107.419L226.021 107.419L226.021 106.419L228.025 106.419L228.025 107.419ZM224.018 107.419L222.014 107.419L222.014 106.419L224.018 106.419L224.018 107.419ZM220.011 107.419L218.007 107.419L218.007 106.419L220.011 106.419L220.011 107.419ZM216.004 107.419L214 107.419L214 106.419L216.004 106.419L216.004 107.419ZM211.997 107.419L209.994 107.419L209.994 106.419L211.997 106.419L211.997 107.419ZM207.99 107.419L205.987 107.419L205.987 106.419L207.99 106.419L207.99 107.419ZM203.983 107.419L201.98 107.419L201.98 106.419L203.983 106.419L203.983 107.419ZM199.976 107.419L197.973 107.419L197.973 106.419L199.976 106.419L199.976 107.419ZM195.969 107.419L193.966 107.419L193.966 106.419L195.969 106.419L195.969 107.419ZM191.963 107.419L189.959 107.419L189.959 106.419L191.963 106.419L191.963 107.419ZM187.956 107.419L185.952 107.419L185.952 106.419L187.956 106.419L187.956 107.419ZM183.949 107.419L181.945 107.419L181.945 106.419L183.949 106.419L183.949 107.419ZM179.942 107.419L177.938 107.419L177.938 106.419L179.942 106.419L179.942 107.419ZM175.935 107.419L173.931 107.419L173.931 106.419L175.935 106.419L175.935 107.419ZM171.928 107.419L169.925 107.419L169.925 106.419L171.928 106.419L171.928 107.419ZM167.921 107.419L165.918 107.419L165.918 106.419L167.921 106.419L167.921 107.419ZM163.914 107.419L161.911 107.419L161.911 106.419L163.914 106.419L163.914 107.419ZM159.907 107.419L157.904 107.419L157.904 106.419L159.907 106.419L159.907 107.419ZM155.9 107.419L153.897 107.419L153.897 106.419L155.9 106.419L155.9 107.419ZM151.894 107.419L149.89 107.419L149.89 106.419L151.894 106.419L151.894 107.419ZM147.887 107.419L145.883 107.419L145.883 106.419L147.887 106.419L147.887 107.419ZM143.88 107.419L141.876 107.419L141.876 106.419L143.88 106.419L143.88 107.419ZM139.873 107.419L137.869 107.419L137.869 106.419L139.873 106.419L139.873 107.419ZM135.866 107.419L133.862 107.419L133.863 106.419L135.866 106.419L135.866 107.419ZM131.859 107.419L129.856 107.419L129.856 106.419L131.859 106.419L131.859 107.419ZM127.852 107.419L125.849 107.419L125.849 106.419L127.852 106.419L127.852 107.419ZM123.845 107.419L121.842 107.419L121.842 106.419L123.845 106.419L123.845 107.419ZM119.838 107.419L117.835 107.419L117.835 106.419L119.838 106.419L119.838 107.419ZM115.831 107.419L113.828 107.419L113.828 106.419L115.831 106.419L115.831 107.419ZM111.824 107.419L109.821 107.419L109.821 106.419L111.824 106.419L111.824 107.419ZM107.817 107.419L105.814 107.419L105.814 106.419L107.817 106.419L107.817 107.419ZM103.81 107.419L101.807 107.419L101.807 106.419L103.81 106.419L103.81 107.419ZM99.8035 107.419L97.8 107.419L97.8 106.419L99.8035 106.419L99.8035 107.419ZM95.7965 107.419L93.793 107.419L93.793 106.419L95.7965 106.419L95.7965 107.419ZM91.7895 107.419L89.786 107.419L89.786 106.419L91.7895 106.419L91.7895 107.419ZM87.7826 107.419L85.7791 107.419L85.7791 106.419L87.7826 106.419L87.7826 107.419ZM83.7756 107.419L81.7721 107.419L81.7721 106.419L83.7756 106.419L83.7756 107.419ZM79.7687 107.419L77.7652 107.419L77.7652 106.419L79.7687 106.419L79.7687 107.419ZM75.7617 107.419L73.7582 107.419L73.7582 106.419L75.7617 106.419L75.7617 107.419ZM71.7547 107.419L70.7531 107.419L70.7531 106.419L71.7547 106.419L71.7547 107.419ZM70.7531 107.419C70.4093 107.419 70.0662 107.416 69.7236 107.411L69.7379 106.411C70.0757 106.416 70.4141 106.419 70.7531 106.419L70.7531 107.419ZM67.6752 107.353C66.9896 107.323 66.3064 107.284 65.6259 107.235L65.6976 106.237C66.3685 106.286 67.0421 106.324 67.7182 106.353L67.6752 107.353ZM63.5868 107.059C62.9036 106.99 62.2232 106.911 61.5458 106.823L61.6751 105.831C62.3429 105.918 63.0137 105.996 63.6873 106.064L63.5868 107.059ZM59.5182 106.528C58.8412 106.42 58.1674 106.302 57.4969 106.174L57.6838 105.192C58.3448 105.317 59.009 105.434 59.6764 105.541L59.5182 106.528ZM55.488 105.761C54.8195 105.614 54.1545 105.457 53.4933 105.29L53.7373 104.321C54.3891 104.485 55.0446 104.639 55.7035 104.785L55.488 105.761ZM51.5103 104.76C50.8519 104.574 50.1975 104.378 49.5471 104.173L49.8475 103.219C50.4886 103.421 51.1337 103.614 51.7827 103.798L51.5103 104.76ZM47.5987 103.528C46.9521 103.303 46.3097 103.069 45.6718 102.826L46.0277 101.892C46.6565 102.131 47.2896 102.362 47.927 102.583L47.5987 103.528ZM43.7664 102.069C43.1339 101.806 42.506 101.535 41.8829 101.255L42.2928 100.343C42.907 100.619 43.526 100.886 44.1495 101.145L43.7664 102.069ZM40.0258 100.388C39.4098 100.089 38.7987 99.7814 38.1928 99.4654L38.6553 98.5787C39.2526 98.8903 39.8549 99.1934 40.4622 99.488L40.0258 100.388ZM36.3887 98.4905C35.7916 98.1566 35.1999 97.8142 34.6137 97.4636L35.1271 96.6054C35.705 96.951 36.2883 97.2886 36.8768 97.6178L36.3887 98.4905ZM32.8689 96.385C32.2924 96.0171 31.7217 95.6409 31.1569 95.2568L31.7193 94.4299C32.2761 94.8086 32.8387 95.1794 33.4069 95.5422L32.8689 96.385ZM29.4776 94.0788C28.9235 93.678 28.3754 93.2693 27.8336 92.853L28.4429 92.06C28.9771 92.4705 29.5174 92.8734 30.0637 93.2686L29.4776 94.0788ZM26.2258 91.58C25.6958 91.1478 25.1723 90.708 24.6553 90.2608L25.3095 89.5045C25.8192 89.9454 26.3354 90.3789 26.8578 90.805L26.2258 91.58ZM23.1239 88.897C22.62 88.435 22.1227 87.9657 21.6324 87.4894L22.3292 86.7721C22.8126 87.2417 23.3028 87.7044 23.7997 88.1599L23.1239 88.897ZM20.1823 86.0393C19.706 85.5489 19.2367 85.0517 18.7746 84.5477L19.5117 83.8719C19.9673 84.3688 20.4299 84.859 20.8996 85.3425L20.1823 86.0393ZM17.4108 83.0163C16.9637 82.4994 16.5239 81.9758 16.0917 81.4459L16.8666 80.8138C17.2928 81.3363 17.7263 81.8525 18.1672 82.3621L17.4108 83.0163ZM14.8187 79.8381C14.4024 79.2962 13.9937 78.7482 13.5929 78.1941L14.4031 77.608C14.7983 78.1543 15.2012 78.6946 15.6116 79.2288L14.8187 79.8381ZM12.4148 76.5147C12.0307 75.9499 11.6546 75.3792 11.2866 74.8028L12.1295 74.2647C12.4923 74.833 12.8631 75.3956 13.2417 75.9524L12.4148 76.5147ZM10.2081 73.0579C9.85746 72.4717 9.51507 71.88 9.18113 71.2829L10.0539 70.7948C10.3831 71.3834 10.7206 71.9667 11.0663 72.5446L10.2081 73.0579ZM8.20631 69.4788C7.89027 68.8729 7.58277 68.2619 7.28397 67.6458L8.18373 67.2094C8.47826 67.8167 8.78139 68.4191 9.09294 69.0163L8.20631 69.4788ZM6.41651 65.7887C6.13648 65.1656 5.86523 64.5377 5.60293 63.9052L6.52665 63.5221C6.78521 64.1457 7.05259 64.7646 7.32863 65.3788L6.41651 65.7887ZM4.84529 61.9998C4.6024 61.3619 4.3685 60.7195 4.14375 60.0729L5.08832 59.7446C5.30986 60.382 5.54041 61.0152 5.77983 61.6439L4.84529 61.9998ZM3.49842 58.1245C3.29355 57.4742 3.09785 56.8197 2.91147 56.1613L3.87366 55.8889C4.05737 56.5379 4.25027 57.183 4.45222 57.8241L3.49842 58.1245ZM2.3814 54.1783C2.21499 53.5171 2.05793 52.8521 1.91035 52.1836L2.88684 51.9681C3.03231 52.627 3.18714 53.2825 3.35116 53.9343L2.3814 54.1783ZM1.4976 50.1747C1.37003 49.5042 1.25197 48.8304 1.14354 48.1534L2.13096 47.9952C2.23784 48.6626 2.35423 49.3268 2.47997 49.9878L1.4976 50.1747ZM0.849025 46.1258C0.760666 45.4484 0.681925 44.768 0.61294 44.0847L1.60788 43.9843C1.67589 44.6579 1.75352 45.3287 1.84062 45.9965L0.849025 46.1258ZM0.436777 42.0456C0.387867 41.3652 0.348616 40.682 0.319157 39.9964L1.31824 39.9534C1.34728 40.6295 1.38598 41.3031 1.43421 41.9739L0.436777 42.0456ZM0.260535 37.948C0.255635 37.6054 0.253172 37.2623 0.25317 36.9186L1.25318 36.9185C1.25317 37.2575 1.2556 37.5959 1.26043 37.9337L0.260535 37.948ZM0.25317 36.9186L0.253173 35.9104L1.25317 35.9104L1.25318 36.9185L0.25317 36.9186ZM0.253175 33.8943L0.253176 31.8781L1.25318 31.8781L1.25317 33.8943L0.253175 33.8943ZM0.253177 29.8619L0.253177 27.8457L1.25318 27.8457L1.25318 29.8619L0.253177 29.8619ZM0.253179 25.8295L0.25318 23.8133L1.25318 23.8133L1.25318 25.8295L0.253179 25.8295ZM0.253181 21.7971L0.253177 19.7809L1.25318 19.7809L1.25318 21.7971L0.253181 21.7971ZM0.253177 17.7647L0.253179 15.7485L1.25318 15.7485L1.25318 17.7647L0.253177 17.7647ZM0.253181 13.7323L0.253181 11.7161L1.25318 11.7161L1.25318 13.7323L0.253181 13.7323ZM0.253183 9.69995L0.253185 7.68376L1.25318 7.68376L1.25318 9.69995L0.253183 9.69995ZM0.253186 5.66757L0.253182 4.65948L1.25319 4.65946L1.25319 5.66757L0.253186 5.66757ZM0.253187 4.65928L0.25358 3.59701L1.25358 3.59737L1.25318 4.65966L0.253187 4.65928ZM0.254368 1.47246L0.254767 0.410167L1.25476 0.410548L1.25437 1.47282L0.254368 1.47246ZM0.753185 4.65947L0.253182 4.65948L0.253187 4.65928L0.753185 4.65947ZM0.753173 36.9185L0.25317 36.9186L0.753173 36.9185ZM70.7531 106.919L70.7531 106.419L70.7531 106.919ZM639.734 106.919L639.734 107.419L639.734 106.919ZM709.72 178.31L710.22 178.32L709.72 178.31ZM709.223 221.126C709.024 221.318 708.707 221.311 708.516 221.112L705.398 217.868C705.206 217.668 705.212 217.352 705.412 217.161C705.611 216.969 705.927 216.976 706.119 217.175L708.89 220.059L711.774 217.287C711.973 217.096 712.29 217.102 712.481 217.301C712.673 217.5 712.666 217.817 712.467 218.008L709.223 221.126ZM708.376 220.756L708.395 219.791L709.395 219.811L709.376 220.776L708.376 220.756ZM708.434 217.861L708.472 215.931L709.472 215.951L709.434 217.881L708.434 217.861ZM708.51 214.001L708.549 212.072L709.549 212.091L709.51 214.021L708.51 214.001ZM708.587 210.142L708.626 208.212L709.625 208.232L709.587 210.162L708.587 210.142ZM708.664 206.282L708.702 204.352L709.702 204.372L709.664 206.302L708.664 206.282ZM708.741 202.423L708.779 200.493L709.779 200.513L709.74 202.442L708.741 202.423ZM708.817 198.563L708.856 196.633L709.855 196.653L709.817 198.583L708.817 198.563ZM708.894 194.703L708.932 192.773L709.932 192.793L709.894 194.723L708.894 194.703ZM708.971 190.844L709.009 188.914L710.009 188.934L709.97 190.864L708.971 190.844ZM709.047 186.984L709.086 185.054L710.085 185.074L710.047 187.004L709.047 186.984ZM709.124 183.124L709.162 181.195L710.162 181.214L710.124 183.144L709.124 183.124ZM709.201 179.265L709.22 178.3L710.22 178.32L710.201 179.285L709.201 179.265ZM709.22 178.3C709.226 177.969 709.231 177.638 709.233 177.308L710.233 177.314C710.231 177.649 710.226 177.984 710.22 178.32L709.22 178.3ZM709.217 175.335C709.202 174.674 709.178 174.016 709.146 173.36L710.144 173.31C710.178 173.976 710.202 174.643 710.217 175.313L709.217 175.335ZM709.019 171.393C708.967 170.734 708.906 170.078 708.836 169.424L709.831 169.318C709.902 169.981 709.963 170.646 710.016 171.315L709.019 171.393ZM708.599 167.468C708.51 166.813 708.412 166.162 708.305 165.513L709.291 165.35C709.4 166.008 709.499 166.669 709.59 167.333L708.599 167.468ZM707.956 163.571C707.83 162.924 707.695 162.279 707.551 161.638L708.526 161.419C708.672 162.07 708.809 162.723 708.937 163.38L707.956 163.571ZM707.091 159.718C706.928 159.08 706.757 158.445 706.577 157.813L707.538 157.539C707.721 158.179 707.895 158.824 708.06 159.472L707.091 159.718ZM706.007 155.922C705.809 155.294 705.601 154.67 705.385 154.051L706.33 153.722C706.549 154.35 706.759 154.983 706.961 155.62L706.007 155.922ZM704.708 152.194C704.474 151.579 704.231 150.967 703.98 150.36L704.904 149.978C705.159 150.594 705.405 151.214 705.643 151.838L704.708 152.194ZM703.198 148.547C702.929 147.946 702.651 147.349 702.366 146.757L703.266 146.322C703.556 146.923 703.838 147.528 704.111 148.138L703.198 148.547ZM701.483 144.992C701.179 144.407 700.868 143.827 700.549 143.251L701.423 142.766C701.747 143.35 702.063 143.938 702.37 144.531L701.483 144.992ZM699.567 141.54C699.231 140.973 698.888 140.411 698.536 139.855L699.382 139.321C699.738 139.885 700.087 140.455 700.427 141.03L699.567 141.54ZM697.458 138.201C697.091 137.655 696.716 137.114 696.334 136.578L697.148 135.997C697.535 136.54 697.916 137.089 698.288 137.643L697.458 138.201ZM695.164 134.988C694.766 134.463 694.362 133.944 693.95 133.432L694.729 132.805C695.147 133.326 695.558 133.852 695.961 134.384L695.164 134.988ZM692.692 131.91C692.265 131.408 691.832 130.913 691.391 130.424L692.134 129.755C692.581 130.251 693.021 130.753 693.453 131.262L692.692 131.91ZM690.049 128.976C689.595 128.499 689.135 128.029 688.667 127.566L689.371 126.856C689.845 127.326 690.313 127.803 690.773 128.286L690.049 128.976ZM687.246 126.195C686.766 125.745 686.279 125.302 685.786 124.866L686.449 124.117C686.949 124.56 687.443 125.009 687.93 125.466L687.246 126.195ZM684.29 123.578C683.785 123.156 683.274 122.741 682.758 122.333L683.377 121.548C683.901 121.962 684.419 122.383 684.931 122.811L684.29 123.578ZM681.191 121.132C680.663 120.739 680.13 120.353 679.591 119.975L680.165 119.156C680.712 119.54 681.253 119.931 681.788 120.329L681.191 121.132ZM677.959 118.865C677.409 118.502 676.855 118.147 676.295 117.8L676.822 116.95C677.39 117.302 677.952 117.662 678.509 118.03L677.959 118.865ZM674.603 116.785C674.034 116.454 673.46 116.131 672.882 115.817L673.359 114.938C673.946 115.257 674.529 115.585 675.105 115.92L674.603 116.785ZM671.134 114.899C670.548 114.601 669.957 114.312 669.361 114.031L669.788 113.126C670.392 113.412 670.992 113.705 671.587 114.007L671.134 114.899ZM667.564 113.213C666.962 112.95 666.355 112.695 665.745 112.448L666.119 111.521C666.739 111.771 667.354 112.03 667.964 112.297L667.564 113.213ZM663.902 111.735C663.286 111.507 662.667 111.287 662.043 111.076L662.364 110.128C662.997 110.343 663.625 110.566 664.25 110.797L663.902 111.735ZM660.164 110.469C659.536 110.276 658.904 110.092 658.269 109.917L658.535 108.953C659.18 109.131 659.82 109.317 660.457 109.513L660.164 110.469ZM656.359 109.419C655.721 109.262 655.079 109.115 654.434 108.976L654.644 107.998C655.299 108.139 655.95 108.289 656.597 108.448L656.359 109.419ZM652.5 108.588C651.854 108.468 651.204 108.357 650.551 108.255L650.705 107.267C651.367 107.371 652.027 107.483 652.683 107.605L652.5 108.588ZM648.6 107.979C647.948 107.896 647.293 107.822 646.635 107.757L646.733 106.762C647.4 106.828 648.065 106.903 648.726 106.987L648.6 107.979ZM644.671 107.592C644.015 107.546 643.358 107.509 642.698 107.481L642.74 106.482C643.409 106.51 644.076 106.548 644.74 106.594L644.671 107.592ZM640.725 107.426C640.395 107.421 640.065 107.419 639.734 107.419L639.734 106.419C640.069 106.419 640.405 106.422 640.739 106.426L640.725 107.426ZM639.734 107.419L638.732 107.419L638.732 106.419L639.734 106.419L639.734 107.419ZM636.728 107.419L634.725 107.419L634.725 106.419L636.728 106.419L636.728 107.419ZM632.722 107.419L630.718 107.419L630.718 106.419L632.722 106.419L632.722 107.419ZM628.715 107.419L626.711 107.419L626.711 106.419L628.715 106.419L628.715 107.419ZM624.708 107.419L622.704 107.419L622.704 106.419L624.708 106.419L624.708 107.419ZM620.701 107.419L618.697 107.419L618.697 106.419L620.701 106.419L620.701 107.419ZM616.694 107.419L614.69 107.419L614.69 106.419L616.694 106.419L616.694 107.419ZM612.687 107.419L610.684 107.419L610.684 106.419L612.687 106.419L612.687 107.419ZM608.68 107.419L606.677 107.419L606.677 106.419L608.68 106.419L608.68 107.419ZM604.673 107.419L602.67 107.419L602.67 106.419L604.673 106.419L604.673 107.419ZM600.666 107.419L598.663 107.419L598.663 106.419L600.666 106.419L600.666 107.419ZM596.659 107.419L594.656 107.419L594.656 106.419L596.659 106.419L596.659 107.419ZM592.653 107.419L590.649 107.419L590.649 106.419L592.653 106.419L592.653 107.419ZM588.646 107.419L586.642 107.419L586.642 106.419L588.646 106.419L588.646 107.419ZM584.639 107.419L582.635 107.419L582.635 106.419L584.639 106.419L584.639 107.419ZM580.632 107.419L578.628 107.419L578.628 106.419L580.632 106.419L580.632 107.419ZM576.625 107.419L574.621 107.419L574.621 106.419L576.625 106.419L576.625 107.419ZM572.618 107.419L570.615 107.419L570.615 106.419L572.618 106.419L572.618 107.419ZM568.611 107.419L566.608 107.419L566.608 106.419L568.611 106.419L568.611 107.419ZM564.604 107.419L562.601 107.419L562.601 106.419L564.604 106.419L564.604 107.419ZM560.597 107.419L558.594 107.419L558.594 106.419L560.597 106.419L560.597 107.419ZM556.59 107.419L554.587 107.419L554.587 106.419L556.59 106.419L556.59 107.419ZM552.583 107.419L550.58 107.419L550.58 106.419L552.583 106.419L552.583 107.419ZM548.577 107.419L546.573 107.419L546.573 106.419L548.576 106.419L548.577 107.419ZM544.57 107.419L542.566 107.419L542.566 106.419L544.57 106.419L544.57 107.419ZM540.563 107.419L538.559 107.419L538.559 106.419L540.563 106.419L540.563 107.419ZM536.556 107.419L534.552 107.419L534.552 106.419L536.556 106.419L536.556 107.419ZM532.549 107.419L530.545 107.419L530.545 106.419L532.549 106.419L532.549 107.419ZM528.542 107.419L526.538 107.419L526.538 106.419L528.542 106.419L528.542 107.419ZM524.535 107.419L522.532 107.419L522.532 106.419L524.535 106.419L524.535 107.419ZM520.528 107.419L518.525 107.419L518.525 106.419L520.528 106.419L520.528 107.419ZM516.521 107.419L514.518 107.419L514.518 106.419L516.521 106.419L516.521 107.419ZM512.514 107.419L510.511 107.419L510.511 106.419L512.514 106.419L512.514 107.419ZM508.507 107.419L506.504 107.419L506.504 106.419L508.507 106.419L508.507 107.419ZM504.501 107.419L502.497 107.419L502.497 106.419L504.5 106.419L504.501 107.419ZM500.494 107.419L498.49 107.419L498.49 106.419L500.494 106.419L500.494 107.419ZM496.487 107.419L494.483 107.419L494.483 106.419L496.487 106.419L496.487 107.419ZM492.48 107.419L490.476 107.419L490.476 106.419L492.48 106.419L492.48 107.419ZM488.473 107.419L486.469 107.419L486.469 106.419L488.473 106.419L488.473 107.419ZM484.466 107.419L482.463 107.419L482.463 106.419L484.466 106.419L484.466 107.419ZM480.459 107.419L478.456 107.419L478.456 106.419L480.459 106.419L480.459 107.419ZM476.452 107.419L474.449 107.419L474.449 106.419L476.452 106.419L476.452 107.419ZM472.445 107.419L470.442 107.419L470.442 106.419L472.445 106.419L472.445 107.419ZM468.438 107.419L466.435 107.419L466.435 106.419L468.438 106.419L468.438 107.419ZM464.432 107.419L462.428 107.419L462.428 106.419L464.432 106.419L464.432 107.419ZM460.425 107.419L458.421 107.419L458.421 106.419L460.425 106.419L460.425 107.419ZM456.418 107.419L454.414 107.419L454.414 106.419L456.418 106.419L456.418 107.419ZM452.411 107.419L450.407 107.419L450.407 106.419L452.411 106.419L452.411 107.419ZM448.404 107.419L446.4 107.419L446.401 106.419L448.404 106.419L448.404 107.419ZM444.397 107.419L442.394 107.419L442.394 106.419L444.397 106.419L444.397 107.419ZM440.39 107.419L438.387 107.419L438.387 106.419L440.39 106.419L440.39 107.419ZM436.383 107.419L434.38 107.419L434.38 106.419L436.383 106.419L436.383 107.419ZM432.376 107.419L430.373 107.419L430.373 106.419L432.376 106.419L432.376 107.419ZM428.369 107.419L426.366 107.419L426.366 106.419L428.369 106.419L428.369 107.419ZM424.363 107.419L422.359 107.419L422.359 106.419L424.363 106.419L424.363 107.419ZM420.356 107.419L418.352 107.419L418.352 106.419L420.356 106.419L420.356 107.419ZM416.349 107.419L414.345 107.419L414.345 106.419L416.349 106.419L416.349 107.419ZM412.342 107.419L410.338 107.419L410.338 106.419L412.342 106.419L412.342 107.419ZM408.335 107.419L406.332 107.419L406.332 106.419L408.335 106.419L408.335 107.419ZM404.328 107.419L402.325 107.419L402.325 106.419L404.328 106.419L404.328 107.419ZM400.321 107.419L398.318 107.419L398.318 106.419L400.321 106.419L400.321 107.419ZM396.314 107.419L394.311 107.419L394.311 106.419L396.314 106.419L396.314 107.419ZM392.307 107.419L390.304 107.419L390.304 106.419L392.307 106.419L392.307 107.419ZM388.3 107.419L386.297 107.419L386.297 106.419L388.3 106.419L388.3 107.419ZM384.294 107.419L382.29 107.419L382.29 106.419L384.294 106.419L384.294 107.419ZM380.287 107.419L378.283 107.419L378.283 106.419L380.287 106.419L380.287 107.419ZM376.28 107.419L374.276 107.419L374.276 106.419L376.28 106.419L376.28 107.419ZM372.273 107.419L370.269 107.419L370.269 106.419L372.273 106.419L372.273 107.419ZM368.266 107.419L366.263 107.419L366.263 106.419L368.266 106.419L368.266 107.419ZM364.259 107.419L362.256 107.419L362.256 106.419L364.259 106.419L364.259 107.419ZM360.252 107.419L358.249 107.419L358.249 106.419L360.252 106.419L360.252 107.419ZM356.245 107.419L354.242 107.419L354.242 106.419L356.245 106.419L356.245 107.419ZM352.238 107.419L350.235 107.419L350.235 106.419L352.238 106.419L352.238 107.419ZM348.231 107.419L346.228 107.419L346.228 106.419L348.232 106.419L348.231 107.419ZM344.225 107.419L342.221 107.419L342.221 106.419L344.225 106.419L344.225 107.419ZM340.218 107.419L338.214 107.419L338.214 106.419L340.218 106.419L340.218 107.419ZM336.211 107.419L334.207 107.419L334.207 106.419L336.211 106.419L336.211 107.419ZM332.204 107.419L330.2 107.419L330.2 106.419L332.204 106.419L332.204 107.419ZM328.197 107.419L326.194 107.419L326.194 106.419L328.197 106.419L328.197 107.419ZM324.19 107.419L322.187 107.419L322.187 106.419L324.19 106.419L324.19 107.419ZM320.183 107.419L318.18 107.419L318.18 106.419L320.183 106.419L320.183 107.419ZM316.176 107.419L314.173 107.419L314.173 106.419L316.176 106.419L316.176 107.419ZM312.169 107.419L310.166 107.419L310.166 106.419L312.169 106.419L312.169 107.419ZM308.163 107.419L306.159 107.419L306.159 106.419L308.163 106.419L308.163 107.419ZM304.156 107.419L302.152 107.419L302.152 106.419L304.156 106.419L304.156 107.419ZM300.149 107.419L298.145 107.419L298.145 106.419L300.149 106.419L300.149 107.419ZM296.142 107.419L294.138 107.419L294.138 106.419L296.142 106.419L296.142 107.419ZM292.135 107.419L290.131 107.419L290.131 106.419L292.135 106.419L292.135 107.419ZM288.128 107.419L286.125 107.419L286.125 106.419L288.128 106.419L288.128 107.419ZM284.121 107.419L282.118 107.419L282.118 106.419L284.121 106.419L284.121 107.419ZM280.114 107.419L278.111 107.419L278.111 106.419L280.114 106.419L280.114 107.419ZM276.107 107.419L274.104 107.419L274.104 106.419L276.107 106.419L276.107 107.419ZM272.1 107.419L270.097 107.419L270.097 106.419L272.1 106.419L272.1 107.419ZM268.094 107.419L266.09 107.419L266.09 106.419L268.094 106.419L268.094 107.419ZM264.087 107.419L262.083 107.419L262.083 106.419L264.087 106.419L264.087 107.419ZM260.08 107.419L258.076 107.419L258.076 106.419L260.08 106.419L260.08 107.419ZM256.073 107.419L254.069 107.419L254.069 106.419L256.073 106.419L256.073 107.419ZM252.066 107.419L250.063 107.419L250.063 106.419L252.066 106.419L252.066 107.419ZM248.059 107.419L246.056 107.419L246.056 106.419L248.059 106.419L248.059 107.419ZM244.052 107.419L242.049 107.419L242.049 106.419L244.052 106.419L244.052 107.419ZM240.045 107.419L238.042 107.419L238.042 106.419L240.045 106.419L240.045 107.419ZM236.038 107.419L234.035 107.419L234.035 106.419L236.038 106.419L236.038 107.419ZM232.031 107.419L230.028 107.419L230.028 106.419L232.031 106.419L232.031 107.419ZM228.025 107.419L226.021 107.419L226.021 106.419L228.025 106.419L228.025 107.419ZM224.018 107.419L222.014 107.419L222.014 106.419L224.018 106.419L224.018 107.419ZM220.011 107.419L218.007 107.419L218.007 106.419L220.011 106.419L220.011 107.419ZM216.004 107.419L214 107.419L214 106.419L216.004 106.419L216.004 107.419ZM211.997 107.419L209.994 107.419L209.994 106.419L211.997 106.419L211.997 107.419ZM207.99 107.419L205.987 107.419L205.987 106.419L207.99 106.419L207.99 107.419ZM203.983 107.419L201.98 107.419L201.98 106.419L203.983 106.419L203.983 107.419ZM199.976 107.419L197.973 107.419L197.973 106.419L199.976 106.419L199.976 107.419ZM195.969 107.419L193.966 107.419L193.966 106.419L195.969 106.419L195.969 107.419ZM191.963 107.419L189.959 107.419L189.959 106.419L191.963 106.419L191.963 107.419ZM187.956 107.419L185.952 107.419L185.952 106.419L187.956 106.419L187.956 107.419ZM183.949 107.419L181.945 107.419L181.945 106.419L183.949 106.419L183.949 107.419ZM179.942 107.419L177.938 107.419L177.938 106.419L179.942 106.419L179.942 107.419ZM175.935 107.419L173.931 107.419L173.931 106.419L175.935 106.419L175.935 107.419ZM171.928 107.419L169.925 107.419L169.925 106.419L171.928 106.419L171.928 107.419ZM167.921 107.419L165.918 107.419L165.918 106.419L167.921 106.419L167.921 107.419ZM163.914 107.419L161.911 107.419L161.911 106.419L163.914 106.419L163.914 107.419ZM159.907 107.419L157.904 107.419L157.904 106.419L159.907 106.419L159.907 107.419ZM155.9 107.419L153.897 107.419L153.897 106.419L155.9 106.419L155.9 107.419ZM151.894 107.419L149.89 107.419L149.89 106.419L151.894 106.419L151.894 107.419ZM147.887 107.419L145.883 107.419L145.883 106.419L147.887 106.419L147.887 107.419ZM143.88 107.419L141.876 107.419L141.876 106.419L143.88 106.419L143.88 107.419ZM139.873 107.419L137.869 107.419L137.869 106.419L139.873 106.419L139.873 107.419ZM135.866 107.419L133.862 107.419L133.863 106.419L135.866 106.419L135.866 107.419ZM131.859 107.419L129.856 107.419L129.856 106.419L131.859 106.419L131.859 107.419ZM127.852 107.419L125.849 107.419L125.849 106.419L127.852 106.419L127.852 107.419ZM123.845 107.419L121.842 107.419L121.842 106.419L123.845 106.419L123.845 107.419ZM119.838 107.419L117.835 107.419L117.835 106.419L119.838 106.419L119.838 107.419ZM115.831 107.419L113.828 107.419L113.828 106.419L115.831 106.419L115.831 107.419ZM111.824 107.419L109.821 107.419L109.821 106.419L111.824 106.419L111.824 107.419ZM107.817 107.419L105.814 107.419L105.814 106.419L107.817 106.419L107.817 107.419ZM103.81 107.419L101.807 107.419L101.807 106.419L103.81 106.419L103.81 107.419ZM99.8035 107.419L97.8 107.419L97.8 106.419L99.8035 106.419L99.8035 107.419ZM95.7965 107.419L93.793 107.419L93.793 106.419L95.7965 106.419L95.7965 107.419ZM91.7895 107.419L89.786 107.419L89.786 106.419L91.7895 106.419L91.7895 107.419ZM87.7826 107.419L85.7791 107.419L85.7791 106.419L87.7826 106.419L87.7826 107.419ZM83.7756 107.419L81.7721 107.419L81.7721 106.419L83.7756 106.419L83.7756 107.419ZM79.7687 107.419L77.7652 107.419L77.7652 106.419L79.7687 106.419L79.7687 107.419ZM75.7617 107.419L73.7582 107.419L73.7582 106.419L75.7617 106.419L75.7617 107.419ZM71.7547 107.419L70.7531 107.419L70.7531 106.419L71.7547 106.419L71.7547 107.419ZM70.7531 107.419C70.4093 107.419 70.0662 107.416 69.7236 107.411L69.7379 106.411C70.0757 106.416 70.4141 106.419 70.7531 106.419L70.7531 107.419ZM67.6752 107.353C66.9896 107.323 66.3064 107.284 65.6259 107.235L65.6976 106.237C66.3685 106.286 67.0421 106.324 67.7182 106.353L67.6752 107.353ZM63.5868 107.059C62.9036 106.99 62.2232 106.911 61.5458 106.823L61.6751 105.831C62.3429 105.918 63.0137 105.996 63.6873 106.064L63.5868 107.059ZM59.5182 106.528C58.8412 106.42 58.1674 106.302 57.4969 106.174L57.6838 105.192C58.3448 105.317 59.009 105.434 59.6764 105.541L59.5182 106.528ZM55.488 105.761C54.8195 105.614 54.1545 105.457 53.4933 105.29L53.7373 104.321C54.3891 104.485 55.0446 104.639 55.7035 104.785L55.488 105.761ZM51.5103 104.76C50.8519 104.574 50.1975 104.378 49.5471 104.173L49.8475 103.219C50.4886 103.421 51.1337 103.614 51.7827 103.798L51.5103 104.76ZM47.5987 103.528C46.9521 103.303 46.3097 103.069 45.6718 102.826L46.0277 101.892C46.6565 102.131 47.2896 102.362 47.927 102.583L47.5987 103.528ZM43.7664 102.069C43.1339 101.806 42.506 101.535 41.8829 101.255L42.2928 100.343C42.907 100.619 43.526 100.886 44.1495 101.145L43.7664 102.069ZM40.0258 100.388C39.4098 100.089 38.7987 99.7814 38.1928 99.4654L38.6553 98.5787C39.2526 98.8903 39.8549 99.1934 40.4622 99.488L40.0258 100.388ZM36.3887 98.4905C35.7916 98.1566 35.1999 97.8142 34.6137 97.4636L35.1271 96.6054C35.705 96.951 36.2883 97.2886 36.8768 97.6178L36.3887 98.4905ZM32.8689 96.385C32.2924 96.0171 31.7217 95.6409 31.1569 95.2568L31.7193 94.4299C32.2761 94.8086 32.8387 95.1794 33.4069 95.5422L32.8689 96.385ZM29.4776 94.0788C28.9235 93.678 28.3754 93.2693 27.8336 92.853L28.4429 92.06C28.9771 92.4705 29.5174 92.8734 30.0637 93.2686L29.4776 94.0788ZM26.2258 91.58C25.6958 91.1478 25.1723 90.708 24.6553 90.2608L25.3095 89.5045C25.8192 89.9454 26.3354 90.3789 26.8578 90.805L26.2258 91.58ZM23.1239 88.897C22.62 88.435 22.1227 87.9657 21.6324 87.4894L22.3292 86.7721C22.8126 87.2417 23.3028 87.7044 23.7997 88.1599L23.1239 88.897ZM20.1823 86.0393C19.706 85.5489 19.2367 85.0517 18.7746 84.5477L19.5117 83.8719C19.9673 84.3688 20.4299 84.859 20.8996 85.3425L20.1823 86.0393ZM17.4108 83.0163C16.9637 82.4994 16.5239 81.9758 16.0917 81.4459L16.8666 80.8138C17.2928 81.3363 17.7263 81.8525 18.1672 82.3621L17.4108 83.0163ZM14.8187 79.8381C14.4024 79.2962 13.9937 78.7482 13.5929 78.1941L14.4031 77.608C14.7983 78.1543 15.2012 78.6946 15.6116 79.2288L14.8187 79.8381ZM12.4148 76.5147C12.0307 75.9499 11.6546 75.3792 11.2866 74.8028L12.1295 74.2647C12.4923 74.833 12.8631 75.3956 13.2417 75.9524L12.4148 76.5147ZM10.2081 73.0579C9.85746 72.4717 9.51507 71.88 9.18113 71.2829L10.0539 70.7948C10.3831 71.3834 10.7206 71.9667 11.0663 72.5446L10.2081 73.0579ZM8.20631 69.4788C7.89027 68.8729 7.58277 68.2619 7.28397 67.6458L8.18373 67.2094C8.47826 67.8167 8.78139 68.4191 9.09294 69.0163L8.20631 69.4788ZM6.41651 65.7887C6.13648 65.1656 5.86523 64.5377 5.60293 63.9052L6.52665 63.5221C6.78521 64.1457 7.05259 64.7646 7.32863 65.3788L6.41651 65.7887ZM4.84529 61.9998C4.6024 61.3619 4.3685 60.7195 4.14375 60.0729L5.08832 59.7446C5.30986 60.382 5.54041 61.0152 5.77983 61.6439L4.84529 61.9998ZM3.49842 58.1245C3.29355 57.4742 3.09785 56.8197 2.91147 56.1613L3.87366 55.8889C4.05737 56.5379 4.25027 57.183 4.45222 57.8241L3.49842 58.1245ZM2.3814 54.1783C2.21499 53.5171 2.05793 52.8521 1.91035 52.1836L2.88684 51.9681C3.03231 52.627 3.18714 53.2825 3.35116 53.9343L2.3814 54.1783ZM1.4976 50.1747C1.37003 49.5042 1.25197 48.8304 1.14354 48.1534L2.13096 47.9952C2.23784 48.6626 2.35423 49.3268 2.47997 49.9878L1.4976 50.1747ZM0.849025 46.1258C0.760666 45.4484 0.681925 44.768 0.61294 44.0847L1.60788 43.9843C1.67589 44.6579 1.75352 45.3287 1.84062 45.9965L0.849025 46.1258ZM0.436777 42.0456C0.387867 41.3652 0.348616 40.682 0.319157 39.9964L1.31824 39.9534C1.34728 40.6295 1.38598 41.3031 1.43421 41.9739L0.436777 42.0456ZM0.260535 37.948C0.255635 37.6054 0.253172 37.2623 0.25317 36.9186L1.25318 36.9185C1.25317 37.2575 1.2556 37.5959 1.26043 37.9337L0.260535 37.948ZM0.25317 36.9186L0.253173 35.9104L1.25317 35.9104L1.25318 36.9185L0.25317 36.9186ZM0.253175 33.8943L0.253176 31.8781L1.25318 31.8781L1.25317 33.8943L0.253175 33.8943ZM0.253177 29.8619L0.253177 27.8457L1.25318 27.8457L1.25318 29.8619L0.253177 29.8619ZM0.253179 25.8295L0.25318 23.8133L1.25318 23.8133L1.25318 25.8295L0.253179 25.8295ZM0.253181 21.7971L0.253177 19.7809L1.25318 19.7809L1.25318 21.7971L0.253181 21.7971ZM0.253177 17.7647L0.253179 15.7485L1.25318 15.7485L1.25318 17.7647L0.253177 17.7647ZM0.253181 13.7323L0.253181 11.7161L1.25318 11.7161L1.25318 13.7323L0.253181 13.7323ZM0.253183 9.69995L0.253185 7.68376L1.25318 7.68376L1.25318 9.69995L0.253183 9.69995ZM0.253186 5.66757L0.253182 4.65948L1.25319 4.65946L1.25319 5.66757L0.253186 5.66757ZM0.253187 4.65928L0.25358 3.59701L1.25358 3.59737L1.25318 4.65966L0.253187 4.65928ZM0.254368 1.47246L0.254767 0.410167L1.25476 0.410548L1.25437 1.47282L0.254368 1.47246Z" fill="black"/>
</svg>
