<svg width="713" height="221" viewBox="0 0 713 221" fill="none" xmlns="http://www.w3.org/2000/svg">
<path d="M712.13 4.33623L712.63 4.33623L712.63 4.33604L712.13 4.33623ZM712.13 36.5953L712.63 36.5953L712.13 36.5953ZM642.13 106.595L642.13 106.095L642.13 106.595ZM73.1492 106.596L73.1492 107.096L73.1492 106.596ZM3.16304 177.987L2.66315 177.996L3.16304 177.987ZM3.66022 220.803C3.85928 220.994 4.17581 220.988 4.36713 220.789L7.4853 217.544C7.67666 217.345 7.67036 217.029 7.47125 216.837C7.27213 216.646 6.95565 216.652 6.76428 216.851L3.9926 219.736L1.10854 216.964C0.909422 216.772 0.592937 216.779 0.401568 216.978C0.210255 217.177 0.2165 217.494 0.415616 217.685L3.66022 220.803ZM4.50654 220.433L4.48739 219.468L3.48755 219.488L3.50675 220.452L4.50654 220.433ZM4.44903 217.538L4.41067 215.608L3.41088 215.628L3.44924 217.558L4.44903 217.538ZM4.37232 213.678L4.33401 211.748L3.33417 211.768L3.37253 213.698L4.37232 213.678ZM4.29565 209.819L4.2573 207.889L3.25751 207.909L3.29587 209.838L4.29565 209.819ZM4.21894 205.959L4.18064 204.029L3.18079 204.049L3.21915 205.979L4.21894 205.959ZM4.14228 202.099L4.10392 200.169L3.10413 200.189L3.14249 202.119L4.14228 202.099ZM4.06556 198.24L4.0272 196.31L3.02741 196.33L3.06577 198.26L4.06556 198.24ZM3.9889 194.38L3.95054 192.45L2.95075 192.47L2.98905 194.4L3.9889 194.38ZM3.91218 190.52L3.87382 188.591L2.87403 188.61L2.91239 190.54L3.91218 190.52ZM3.83552 186.661L3.79716 184.731L2.79737 184.751L2.83568 186.681L3.83552 186.661ZM3.7588 182.801L3.72045 180.871L2.72066 180.891L2.75901 182.821L3.7588 182.801ZM3.68209 178.942L3.66293 177.977L2.66315 177.996L2.6823 178.961L3.68209 178.942ZM3.66293 177.977C3.65636 177.646 3.65208 177.315 3.65015 176.985L2.65018 176.991C2.65214 177.326 2.6565 177.661 2.66315 177.996L3.66293 177.977ZM3.66607 175.012C3.6806 174.351 3.70441 173.693 3.73728 173.037L2.73855 172.987C2.70519 173.652 2.68104 174.32 2.6663 174.99L3.66607 175.012ZM3.8638 171.07C3.91552 170.411 3.9764 169.755 4.0464 169.101L3.05213 168.995C2.98113 169.658 2.91934 170.323 2.86689 170.991L3.8638 171.07ZM4.28404 167.145C4.37297 166.49 4.4711 165.838 4.57823 165.189L3.59155 165.027C3.48294 165.685 3.38336 166.346 3.29313 167.01L4.28404 167.145ZM4.92722 163.248C5.05322 162.6 5.18823 161.956 5.33212 161.315L4.35635 161.096C4.21042 161.746 4.07345 162.4 3.94564 163.057L4.92722 163.248ZM5.79183 159.395C5.9545 158.757 6.12599 158.122 6.30622 157.49L5.34461 157.216C5.16175 157.856 4.98778 158.501 4.82279 159.148L5.79183 159.395ZM6.87544 155.599C7.07421 154.971 7.28167 154.347 7.49763 153.727L6.55328 153.398C6.33422 154.027 6.12375 154.66 5.92213 155.297L6.87544 155.599ZM8.17451 151.871C8.40892 151.255 8.65184 150.644 8.90314 150.037L7.97919 149.655C7.72425 150.27 7.47783 150.89 7.24002 151.515L8.17451 151.871ZM9.68455 148.223C9.95382 147.622 10.2313 147.026 10.5171 146.434L9.61649 145.999C9.32663 146.6 9.04505 147.205 8.77189 147.815L9.68455 148.223ZM11.4002 144.668C11.7034 144.083 12.0146 143.503 12.3338 142.928L11.4594 142.443C11.1356 143.026 10.8199 143.615 10.5124 144.208L11.4002 144.668ZM13.3157 141.216C13.6516 140.65 13.9953 140.088 14.3467 139.532L13.5013 138.998C13.1448 139.562 12.7962 140.132 12.4554 140.707L13.3157 141.216ZM15.4245 137.878C15.7918 137.332 16.1667 136.791 16.549 136.255L15.7352 135.674C15.3474 136.217 14.9672 136.766 14.5946 137.32L15.4245 137.878ZM17.719 134.665C18.1164 134.14 18.5213 133.621 18.9332 133.108L18.1535 132.482C17.7357 133.002 17.3251 133.529 16.9219 134.061L17.719 134.665ZM20.1913 131.586C20.6178 131.085 21.0512 130.59 21.4916 130.101L20.7485 129.432C20.3019 129.928 19.8622 130.43 19.4296 130.938L20.1913 131.586ZM22.8334 128.652C23.2875 128.176 23.7483 127.706 24.2156 127.243L23.5114 126.533C23.0374 127.003 22.5701 127.479 22.1095 127.963L22.8334 128.652ZM25.637 125.872C26.1171 125.422 26.6036 124.979 27.0964 124.543L26.4335 123.794C25.9337 124.237 25.4402 124.686 24.9532 125.143L25.637 125.872ZM28.5931 123.255C29.0977 122.833 29.6084 122.417 30.1251 122.01L29.5054 121.225C28.9814 121.638 28.4634 122.059 27.9515 122.487L28.5931 123.255ZM31.692 120.808C32.2196 120.415 32.7531 120.03 33.2922 119.652L32.718 118.833C32.1711 119.217 31.63 119.608 31.0948 120.006L31.692 120.808ZM34.9242 118.541C35.4734 118.179 36.028 117.824 36.588 117.477L36.0611 116.627C35.4931 116.979 34.9305 117.339 34.3735 117.707L34.9242 118.541ZM38.2799 116.461C38.8485 116.131 39.4224 115.808 40.0012 115.493L39.5236 114.615C38.9364 114.934 38.3543 115.261 37.7773 115.597L38.2799 116.461ZM41.7485 114.575C42.3348 114.278 42.9258 113.989 43.5216 113.707L43.0947 112.803C42.4904 113.088 41.8908 113.382 41.296 113.684L41.7485 114.575ZM45.3193 112.89C45.9212 112.627 46.5275 112.372 47.1382 112.125L46.7637 111.198C46.1442 111.448 45.5291 111.707 44.9185 111.974L45.3193 112.89ZM48.9809 111.412C49.5963 111.183 50.2159 110.964 50.8395 110.752L50.5187 109.805C49.8861 110.019 49.2575 110.242 48.6331 110.474L48.9809 111.412ZM52.7192 110.146C53.3469 109.953 53.9785 109.769 54.6138 109.594L54.3478 108.63C53.7033 108.807 53.0626 108.994 52.4256 109.19L52.7192 110.146ZM56.5239 109.096C57.1621 108.939 57.8037 108.791 58.4487 108.653L58.2383 107.675C57.5839 107.816 56.933 107.966 56.2856 108.125L56.5239 109.096ZM60.3827 108.265C61.0293 108.145 61.6791 108.034 62.3319 107.932L62.1776 106.944C61.5153 107.047 60.8562 107.16 60.2003 107.282L60.3827 108.265ZM64.283 107.656C64.9351 107.573 65.59 107.499 66.2477 107.434L66.1496 106.439C65.4826 106.504 64.8183 106.579 64.1568 106.664L64.283 107.656ZM68.2123 107.268C68.8673 107.222 69.5249 107.186 70.1849 107.158L70.143 106.159C69.4737 106.187 68.8067 106.224 68.1423 106.271L68.2123 107.268ZM72.1577 107.103C72.4876 107.098 72.8181 107.096 73.1492 107.096L73.1491 106.096C72.8135 106.096 72.4783 106.098 72.1437 106.103L72.1577 107.103ZM73.1492 107.096L74.1509 107.096L74.1509 106.096L73.1491 106.096L73.1492 107.096ZM76.1544 107.096L78.1578 107.096L78.1578 106.096L76.1543 106.096L76.1544 107.096ZM80.1613 107.096L82.1647 107.096L82.1647 106.096L80.1612 106.096L80.1613 107.096ZM84.1682 107.096L86.1716 107.096L86.1716 106.096L84.1682 106.096L84.1682 107.096ZM88.1751 107.096L90.1785 107.096L90.1785 106.096L88.1751 106.096L88.1751 107.096ZM92.182 107.096L94.1854 107.096L94.1854 106.096L92.182 106.096L92.182 107.096ZM96.1889 107.096L98.1923 107.096L98.1923 106.096L96.1889 106.096L96.1889 107.096ZM100.196 107.096L102.199 107.096L102.199 106.096L100.196 106.096L100.196 107.096ZM104.203 107.096L106.206 107.096L106.206 106.096L104.203 106.096L104.203 107.096ZM108.21 107.096L110.213 107.096L110.213 106.096L108.21 106.096L108.21 107.096ZM112.216 107.096L114.22 107.096L114.22 106.096L112.217 106.096L112.216 107.096ZM116.223 107.096L118.227 107.096L118.227 106.096L116.223 106.096L116.223 107.096ZM120.23 107.096L122.234 107.096L122.234 106.096L120.23 106.096L120.23 107.096ZM124.237 107.096L126.241 107.096L126.241 106.096L124.237 106.096L124.237 107.096ZM128.244 107.096L130.248 107.096L130.248 106.096L128.244 106.096L128.244 107.096ZM132.251 107.096L134.254 107.096L134.254 106.096L132.251 106.096L132.251 107.096ZM136.258 107.096L138.261 107.096L138.261 106.096L136.258 106.096L136.258 107.096ZM140.265 107.096L142.268 107.096L142.268 106.096L140.265 106.096L140.265 107.096ZM144.272 107.096L146.275 107.096L146.275 106.096L144.272 106.096L144.272 107.096ZM148.279 107.096L150.282 107.096L150.282 106.096L148.279 106.096L148.279 107.096ZM152.286 107.096L154.289 107.096L154.289 106.096L152.286 106.096L152.286 107.096ZM156.292 107.096L158.296 107.096L158.296 106.096L156.292 106.096L156.292 107.096ZM160.299 107.096L162.303 107.096L162.303 106.096L160.299 106.096L160.299 107.096ZM164.306 107.096L166.31 107.096L166.31 106.096L164.306 106.096L164.306 107.096ZM168.313 107.096L170.317 107.096L170.317 106.096L168.313 106.096L168.313 107.096ZM172.32 107.096L174.324 107.096L174.324 106.096L172.32 106.096L172.32 107.096ZM176.327 107.096L178.33 107.096L178.33 106.096L176.327 106.096L176.327 107.096ZM180.334 107.096L182.337 107.096L182.337 106.096L180.334 106.096L180.334 107.096ZM184.341 107.096L186.344 107.096L186.344 106.096L184.341 106.096L184.341 107.096ZM188.348 107.096L190.351 107.096L190.351 106.096L188.348 106.096L188.348 107.096ZM192.355 107.096L194.358 107.096L194.358 106.096L192.355 106.096L192.355 107.096ZM196.362 107.096L198.365 107.096L198.365 106.096L196.362 106.096L196.362 107.096ZM200.368 107.096L202.372 107.096L202.372 106.096L200.369 106.096L200.368 107.096ZM204.375 107.096L206.379 107.096L206.379 106.096L204.375 106.096L204.375 107.096ZM208.382 107.096L210.386 107.096L210.386 106.096L208.382 106.096L208.382 107.096ZM212.389 107.096L214.393 107.096L214.393 106.096L212.389 106.096L212.389 107.096ZM216.396 107.096L218.4 107.096L218.4 106.096L216.396 106.096L216.396 107.096ZM220.403 107.096L222.406 107.096L222.406 106.096L220.403 106.096L220.403 107.096ZM224.41 107.096L226.413 107.096L226.413 106.096L224.41 106.096L224.41 107.096ZM228.417 107.096L230.42 107.096L230.42 106.096L228.417 106.096L228.417 107.096ZM232.424 107.096L234.427 107.096L234.427 106.096L232.424 106.096L232.424 107.096ZM236.431 107.096L238.434 107.096L238.434 106.096L236.431 106.096L236.431 107.096ZM240.437 107.096L242.441 107.096L242.441 106.096L240.437 106.096L240.437 107.096ZM244.444 107.096L246.448 107.096L246.448 106.096L244.444 106.096L244.444 107.096ZM248.451 107.096L250.455 107.096L250.455 106.096L248.451 106.096L248.451 107.096ZM252.458 107.096L254.462 107.096L254.462 106.096L252.458 106.096L252.458 107.096ZM256.465 107.096L258.469 107.096L258.469 106.096L256.465 106.096L256.465 107.096ZM260.472 107.096L262.475 107.096L262.475 106.096L260.472 106.096L260.472 107.096ZM264.479 107.096L266.482 107.096L266.482 106.096L264.479 106.096L264.479 107.096ZM268.486 107.096L270.489 107.096L270.489 106.096L268.486 106.096L268.486 107.096ZM272.493 107.096L274.496 107.096L274.496 106.096L272.493 106.096L272.493 107.096ZM276.5 107.096L278.503 107.096L278.503 106.096L276.5 106.096L276.5 107.096ZM280.506 107.096L282.51 107.096L282.51 106.096L280.506 106.096L280.506 107.096ZM284.513 107.096L286.517 107.096L286.517 106.096L284.513 106.096L284.513 107.096ZM288.52 107.096L290.524 107.096L290.524 106.096L288.52 106.096L288.52 107.096ZM292.527 107.096L294.531 107.096L294.531 106.096L292.527 106.096L292.527 107.096ZM296.534 107.096L298.538 107.096L298.537 106.096L296.534 106.096L296.534 107.096ZM300.541 107.096L302.544 107.096L302.544 106.096L300.541 106.096L300.541 107.096ZM304.548 107.096L306.551 107.096L306.551 106.096L304.548 106.096L304.548 107.096ZM308.555 107.096L310.558 107.096L310.558 106.096L308.555 106.096L308.555 107.096ZM312.562 107.096L314.565 107.096L314.565 106.096L312.562 106.096L312.562 107.096ZM316.569 107.096L318.572 107.096L318.572 106.096L316.569 106.096L316.569 107.096ZM320.575 107.096L322.579 107.096L322.579 106.096L320.575 106.096L320.575 107.096ZM324.582 107.096L326.586 107.096L326.586 106.096L324.582 106.096L324.582 107.096ZM328.589 107.096L330.593 107.096L330.593 106.096L328.589 106.096L328.589 107.096ZM332.596 107.096L334.6 107.096L334.6 106.096L332.596 106.096L332.596 107.096ZM336.603 107.096L338.606 107.096L338.606 106.096L336.603 106.096L336.603 107.096ZM340.61 107.096L342.613 107.096L342.613 106.096L340.61 106.096L340.61 107.096ZM344.617 107.096L346.62 107.096L346.62 106.096L344.617 106.096L344.617 107.096ZM348.624 107.096L350.627 107.096L350.627 106.096L348.624 106.096L348.624 107.096ZM352.631 107.096L354.634 107.096L354.634 106.096L352.631 106.096L352.631 107.096ZM356.638 107.096L358.641 107.096L358.641 106.096L356.638 106.096L356.638 107.096ZM360.644 107.096L362.648 107.096L362.648 106.096L360.644 106.096L360.644 107.096ZM364.651 107.096L366.655 107.096L366.655 106.096L364.651 106.096L364.651 107.096ZM368.658 107.096L370.662 107.096L370.662 106.096L368.658 106.096L368.658 107.096ZM372.665 107.096L374.669 107.096L374.669 106.096L372.665 106.096L372.665 107.096ZM376.672 107.096L378.675 107.096L378.675 106.096L376.672 106.096L376.672 107.096ZM380.679 107.096L382.682 107.096L382.682 106.096L380.679 106.096L380.679 107.096ZM384.686 107.096L386.689 107.096L386.689 106.096L384.686 106.096L384.686 107.096ZM388.693 107.096L390.696 107.096L390.696 106.096L388.693 106.096L388.693 107.096ZM392.7 107.096L394.703 107.096L394.703 106.096L392.7 106.096L392.7 107.096ZM396.707 107.096L398.71 107.096L398.71 106.096L396.707 106.096L396.707 107.096ZM400.713 107.096L402.717 107.096L402.717 106.096L400.713 106.096L400.713 107.096ZM404.72 107.096L406.724 107.096L406.724 106.096L404.72 106.096L404.72 107.096ZM408.727 107.096L410.731 107.096L410.731 106.096L408.727 106.096L408.727 107.096ZM412.734 107.096L414.738 107.096L414.738 106.096L412.734 106.096L412.734 107.096ZM416.741 107.096L418.744 107.096L418.744 106.096L416.741 106.096L416.741 107.096ZM420.748 107.096L422.751 107.096L422.751 106.096L420.748 106.096L420.748 107.096ZM424.755 107.096L426.758 107.096L426.758 106.096L424.755 106.096L424.755 107.096ZM428.762 107.096L430.765 107.096L430.765 106.096L428.762 106.096L428.762 107.096ZM432.769 107.096L434.772 107.096L434.772 106.096L432.769 106.096L432.769 107.096ZM436.775 107.096L438.779 107.096L438.779 106.096L436.775 106.096L436.775 107.096ZM440.782 107.096L442.786 107.096L442.786 106.096L440.782 106.096L440.782 107.096ZM444.789 107.096L446.793 107.096L446.793 106.096L444.789 106.096L444.789 107.096ZM448.796 107.096L450.8 107.096L450.8 106.096L448.796 106.096L448.796 107.096ZM452.803 107.096L454.806 107.095L454.806 106.096L452.803 106.096L452.803 107.096ZM456.81 107.096L458.813 107.095L458.813 106.095L456.81 106.095L456.81 107.096ZM460.817 107.096L462.82 107.095L462.82 106.095L460.817 106.095L460.817 107.096ZM464.824 107.095L466.827 107.095L466.827 106.095L464.824 106.095L464.824 107.095ZM468.831 107.095L470.834 107.095L470.834 106.095L468.831 106.095L468.831 107.095ZM472.838 107.095L474.841 107.095L474.841 106.095L472.838 106.095L472.838 107.095ZM476.844 107.095L478.848 107.095L478.848 106.095L476.844 106.095L476.844 107.095ZM480.851 107.095L482.855 107.095L482.855 106.095L480.851 106.095L480.851 107.095ZM484.858 107.095L486.862 107.095L486.862 106.095L484.858 106.095L484.858 107.095ZM488.865 107.095L490.869 107.095L490.869 106.095L488.865 106.095L488.865 107.095ZM492.872 107.095L494.875 107.095L494.875 106.095L492.872 106.095L492.872 107.095ZM496.879 107.095L498.882 107.095L498.882 106.095L496.879 106.095L496.879 107.095ZM500.886 107.095L502.889 107.095L502.889 106.095L500.886 106.095L500.886 107.095ZM504.893 107.095L506.896 107.095L506.896 106.095L504.893 106.095L504.893 107.095ZM508.9 107.095L510.903 107.095L510.903 106.095L508.9 106.095L508.9 107.095ZM512.906 107.095L514.91 107.095L514.91 106.095L512.906 106.095L512.906 107.095ZM516.913 107.095L518.917 107.095L518.917 106.095L516.913 106.095L516.913 107.095ZM520.92 107.095L522.924 107.095L522.924 106.095L520.92 106.095L520.92 107.095ZM524.927 107.095L526.931 107.095L526.931 106.095L524.927 106.095L524.927 107.095ZM528.934 107.095L530.938 107.095L530.938 106.095L528.934 106.095L528.934 107.095ZM532.941 107.095L534.944 107.095L534.944 106.095L532.941 106.095L532.941 107.095ZM536.948 107.095L538.951 107.095L538.951 106.095L536.948 106.095L536.948 107.095ZM540.955 107.095L542.958 107.095L542.958 106.095L540.955 106.095L540.955 107.095ZM544.962 107.095L546.965 107.095L546.965 106.095L544.962 106.095L544.962 107.095ZM548.969 107.095L550.972 107.095L550.972 106.095L548.969 106.095L548.969 107.095ZM552.975 107.095L554.979 107.095L554.979 106.095L552.975 106.095L552.975 107.095ZM556.982 107.095L558.986 107.095L558.986 106.095L556.982 106.095L556.982 107.095ZM560.989 107.095L562.993 107.095L562.993 106.095L560.989 106.095L560.989 107.095ZM564.996 107.095L567 107.095L567 106.095L564.996 106.095L564.996 107.095ZM569.003 107.095L571.006 107.095L571.006 106.095L569.003 106.095L569.003 107.095ZM573.01 107.095L575.013 107.095L575.013 106.095L573.01 106.095L573.01 107.095ZM577.017 107.095L579.02 107.095L579.02 106.095L577.017 106.095L577.017 107.095ZM581.024 107.095L583.027 107.095L583.027 106.095L581.024 106.095L581.024 107.095ZM585.031 107.095L587.034 107.095L587.034 106.095L585.031 106.095L585.031 107.095ZM589.038 107.095L591.041 107.095L591.041 106.095L589.038 106.095L589.038 107.095ZM593.045 107.095L595.048 107.095L595.048 106.095L593.045 106.095L593.045 107.095ZM597.052 107.095L599.055 107.095L599.055 106.095L597.052 106.095L597.052 107.095ZM601.058 107.095L603.062 107.095L603.062 106.095L601.058 106.095L601.058 107.095ZM605.065 107.095L607.069 107.095L607.069 106.095L605.065 106.095L605.065 107.095ZM609.072 107.095L611.076 107.095L611.076 106.095L609.072 106.095L609.072 107.095ZM613.079 107.095L615.083 107.095L615.083 106.095L613.079 106.095L613.079 107.095ZM617.086 107.095L619.09 107.095L619.09 106.095L617.086 106.095L617.086 107.095ZM621.093 107.095L623.097 107.095L623.097 106.095L621.093 106.095L621.093 107.095ZM625.1 107.095L627.104 107.095L627.104 106.095L625.1 106.095L625.1 107.095ZM629.107 107.095L631.111 107.095L631.111 106.095L629.107 106.095L629.107 107.095ZM633.114 107.095L635.118 107.095L635.118 106.095L633.114 106.095L633.114 107.095ZM637.121 107.095L639.125 107.095L639.125 106.095L637.121 106.095L637.121 107.095ZM641.128 107.095L642.13 107.095L642.13 106.095L641.128 106.095L641.128 107.095ZM642.13 107.095C642.473 107.095 642.817 107.093 643.159 107.088L643.145 106.088C642.807 106.093 642.469 106.095 642.13 106.095L642.13 107.095ZM645.208 107.029C645.893 107 646.576 106.961 647.257 106.912L647.185 105.914C646.514 105.962 645.841 106.001 645.165 106.03L645.208 107.029ZM649.296 106.736C649.979 106.667 650.66 106.588 651.337 106.499L651.208 105.508C650.54 105.595 649.869 105.673 649.196 105.741L649.296 106.736ZM653.365 106.205C654.042 106.096 654.715 105.978 655.386 105.851L655.199 104.868C654.538 104.994 653.874 105.111 653.206 105.217L653.365 106.205ZM657.395 105.438C658.063 105.291 658.728 105.133 659.39 104.967L659.146 103.997C658.494 104.161 657.838 104.316 657.179 104.462L657.395 105.438ZM661.373 104.437C662.031 104.251 662.685 104.055 663.336 103.85L663.035 102.896C662.394 103.098 661.749 103.291 661.1 103.475L661.373 104.437ZM665.284 103.205C665.931 102.98 666.573 102.746 667.211 102.503L666.855 101.569C666.226 101.808 665.593 102.039 664.956 102.26L665.284 103.205ZM669.116 101.746C669.749 101.483 670.377 101.212 671 100.932L670.59 100.02C669.976 100.296 669.357 100.563 668.733 100.822L669.116 101.746ZM672.857 100.064C673.473 99.7657 674.084 99.4581 674.69 99.1421L674.227 98.2555C673.63 98.567 673.028 98.8702 672.421 99.1647L672.857 100.064ZM676.494 98.1673C677.091 97.8333 677.683 97.491 678.269 97.1403L677.756 96.2821C677.178 96.6278 676.595 96.9653 676.006 97.2945L676.494 98.1673ZM680.014 96.0618C680.59 95.6938 681.161 95.3177 681.726 94.9336L681.164 94.1067C680.607 94.4854 680.044 94.8562 679.476 95.2189L680.014 96.0618ZM683.405 93.7556C683.959 93.3547 684.507 92.9461 685.049 92.5297L684.44 91.7368C683.906 92.1473 683.365 92.5502 682.819 92.9453L683.405 93.7556ZM686.657 91.2567C687.187 90.8245 687.711 90.3848 688.227 89.9376L687.573 89.1813C687.064 89.6221 686.547 90.0557 686.025 90.4818L686.657 91.2567ZM689.759 88.5738C690.263 88.1117 690.76 87.6425 691.25 87.1661L690.554 86.4489C690.07 86.9185 689.58 87.3812 689.083 87.8367L689.759 88.5738ZM692.701 85.716C693.177 85.2257 693.646 84.7285 694.108 84.2245L693.371 83.5487C692.916 84.0456 692.453 84.5358 691.983 85.0192L692.701 85.716ZM695.472 82.6931C695.919 82.1761 696.359 81.6526 696.791 81.1226L696.016 80.4906C695.59 81.0131 695.156 81.5292 694.716 82.0389L695.472 82.6931ZM698.064 79.5148C698.48 78.973 698.889 78.425 699.29 77.8708L698.48 77.2848C698.085 77.831 697.682 78.3713 697.271 78.9055L698.064 79.5148ZM700.468 76.1915C700.852 75.6267 701.228 75.056 701.596 74.4796L700.753 73.9415C700.391 74.5097 700.02 75.0723 699.641 75.6292L700.468 76.1915ZM702.675 72.7347C703.025 72.1485 703.368 71.5568 703.702 70.9597L702.829 70.4715C702.5 71.0601 702.162 71.6434 701.817 72.2213L702.675 72.7347ZM704.676 69.1556C704.993 68.5497 705.3 67.9386 705.599 67.3226L704.699 66.8862C704.405 67.4935 704.101 68.0958 703.79 68.6931L704.676 69.1556ZM706.466 65.4655C706.746 64.8424 707.018 64.2145 707.28 63.5819L706.356 63.1989C706.098 63.8224 705.83 64.4413 705.554 65.0556L706.466 65.4655ZM708.038 61.6765C708.28 61.0386 708.514 60.3963 708.739 59.7497L707.794 59.4214C707.573 60.0587 707.342 60.6919 707.103 61.3207L708.038 61.6765ZM709.384 57.8013C709.589 57.1509 709.785 56.4965 709.971 55.8381L709.009 55.5657C708.825 56.2147 708.633 56.8598 708.431 57.5008L709.384 57.8013ZM710.501 53.8551C710.668 53.1939 710.825 52.5289 710.972 51.8604L709.996 51.6448C709.851 52.3038 709.696 52.9593 709.532 53.6111L710.501 53.8551ZM711.385 49.8514C711.513 49.181 711.631 48.5071 711.739 47.8301L710.752 47.672C710.645 48.3394 710.529 49.0036 710.403 49.6645L711.385 49.8514ZM712.034 45.8026C712.122 45.1252 712.201 44.4448 712.27 43.7615L711.275 43.6611C711.207 44.3347 711.129 45.0054 711.042 45.6732L712.034 45.8026ZM712.446 41.7224C712.495 41.0419 712.534 40.3588 712.564 39.6731L711.565 39.6302C711.536 40.3063 711.497 40.9798 711.449 41.6507L712.446 41.7224ZM712.622 37.6248C712.627 37.2822 712.63 36.939 712.63 36.5953L711.63 36.5953C711.63 36.9343 711.627 37.2726 711.622 37.6104L712.622 37.6248ZM712.63 36.5953L712.63 35.5872L711.63 35.5872L711.63 36.5953L712.63 36.5953ZM712.63 33.571L712.63 31.5548L711.63 31.5548L711.63 33.571L712.63 33.571ZM712.63 29.5386L712.63 27.5224L711.63 27.5224L711.63 29.5386L712.63 29.5386ZM712.63 25.5062L712.63 23.49L711.63 23.49L711.63 25.5062L712.63 25.5062ZM712.63 21.4739L712.63 19.4577L711.63 19.4577L711.63 21.4739L712.63 21.4739ZM712.63 17.4415L712.63 15.4253L711.63 15.4253L711.63 17.4415L712.63 17.4415ZM712.63 13.4091L712.63 11.3929L711.63 11.3929L711.63 13.4091L712.63 13.4091ZM712.63 9.37671L712.63 7.36052L711.63 7.36052L711.63 9.37671L712.63 9.37671ZM712.63 5.34433L712.63 4.33623L711.63 4.33622L711.63 5.34433L712.63 5.34433ZM712.63 4.33604L712.629 3.27376L711.629 3.27413L711.63 4.33642L712.63 4.33604ZM712.628 1.14921L712.628 0.0869247L711.628 0.087306L711.628 1.14958L712.628 1.14921ZM712.13 4.33623L712.63 4.33623L712.63 4.33604L712.13 4.33623ZM712.13 36.5953L712.63 36.5953L712.13 36.5953ZM642.13 106.595L642.13 106.095L642.13 106.595ZM73.1492 106.596L73.1492 107.096L73.1492 106.596ZM3.16304 177.987L2.66315 177.996L3.16304 177.987ZM3.66022 220.803C3.85928 220.994 4.17581 220.988 4.36713 220.789L7.4853 217.544C7.67666 217.345 7.67036 217.029 7.47125 216.837C7.27213 216.646 6.95565 216.652 6.76428 216.851L3.9926 219.736L1.10854 216.964C0.909422 216.772 0.592937 216.779 0.401568 216.978C0.210255 217.177 0.2165 217.494 0.415616 217.685L3.66022 220.803ZM4.50654 220.433L4.48739 219.468L3.48755 219.488L3.50675 220.452L4.50654 220.433ZM4.44903 217.538L4.41067 215.608L3.41088 215.628L3.44924 217.558L4.44903 217.538ZM4.37232 213.678L4.33401 211.748L3.33417 211.768L3.37253 213.698L4.37232 213.678ZM4.29565 209.819L4.2573 207.889L3.25751 207.909L3.29587 209.838L4.29565 209.819ZM4.21894 205.959L4.18064 204.029L3.18079 204.049L3.21915 205.979L4.21894 205.959ZM4.14228 202.099L4.10392 200.169L3.10413 200.189L3.14249 202.119L4.14228 202.099ZM4.06556 198.24L4.0272 196.31L3.02741 196.33L3.06577 198.26L4.06556 198.24ZM3.9889 194.38L3.95054 192.45L2.95075 192.47L2.98905 194.4L3.9889 194.38ZM3.91218 190.52L3.87382 188.591L2.87403 188.61L2.91239 190.54L3.91218 190.52ZM3.83552 186.661L3.79716 184.731L2.79737 184.751L2.83568 186.681L3.83552 186.661ZM3.7588 182.801L3.72045 180.871L2.72066 180.891L2.75901 182.821L3.7588 182.801ZM3.68209 178.942L3.66293 177.977L2.66315 177.996L2.6823 178.961L3.68209 178.942ZM3.66293 177.977C3.65636 177.646 3.65208 177.315 3.65015 176.985L2.65018 176.991C2.65214 177.326 2.6565 177.661 2.66315 177.996L3.66293 177.977ZM3.66607 175.012C3.6806 174.351 3.70441 173.693 3.73728 173.037L2.73855 172.987C2.70519 173.652 2.68104 174.32 2.6663 174.99L3.66607 175.012ZM3.8638 171.07C3.91552 170.411 3.9764 169.755 4.0464 169.101L3.05213 168.995C2.98113 169.658 2.91934 170.323 2.86689 170.991L3.8638 171.07ZM4.28404 167.145C4.37297 166.49 4.4711 165.838 4.57823 165.189L3.59155 165.027C3.48294 165.685 3.38336 166.346 3.29313 167.01L4.28404 167.145ZM4.92722 163.248C5.05322 162.6 5.18823 161.956 5.33212 161.315L4.35635 161.096C4.21042 161.746 4.07345 162.4 3.94564 163.057L4.92722 163.248ZM5.79183 159.395C5.9545 158.757 6.12599 158.122 6.30622 157.49L5.34461 157.216C5.16175 157.856 4.98778 158.501 4.82279 159.148L5.79183 159.395ZM6.87544 155.599C7.07421 154.971 7.28167 154.347 7.49763 153.727L6.55328 153.398C6.33422 154.027 6.12375 154.66 5.92213 155.297L6.87544 155.599ZM8.17451 151.871C8.40892 151.255 8.65184 150.644 8.90314 150.037L7.97919 149.655C7.72425 150.27 7.47783 150.89 7.24002 151.515L8.17451 151.871ZM9.68455 148.223C9.95382 147.622 10.2313 147.026 10.5171 146.434L9.61649 145.999C9.32663 146.6 9.04505 147.205 8.77189 147.815L9.68455 148.223ZM11.4002 144.668C11.7034 144.083 12.0146 143.503 12.3338 142.928L11.4594 142.443C11.1356 143.026 10.8199 143.615 10.5124 144.208L11.4002 144.668ZM13.3157 141.216C13.6516 140.65 13.9953 140.088 14.3467 139.532L13.5013 138.998C13.1448 139.562 12.7962 140.132 12.4554 140.707L13.3157 141.216ZM15.4245 137.878C15.7918 137.332 16.1667 136.791 16.549 136.255L15.7352 135.674C15.3474 136.217 14.9672 136.766 14.5946 137.32L15.4245 137.878ZM17.719 134.665C18.1164 134.14 18.5213 133.621 18.9332 133.108L18.1535 132.482C17.7357 133.002 17.3251 133.529 16.9219 134.061L17.719 134.665ZM20.1913 131.586C20.6178 131.085 21.0512 130.59 21.4916 130.101L20.7485 129.432C20.3019 129.928 19.8622 130.43 19.4296 130.938L20.1913 131.586ZM22.8334 128.652C23.2875 128.176 23.7483 127.706 24.2156 127.243L23.5114 126.533C23.0374 127.003 22.5701 127.479 22.1095 127.963L22.8334 128.652ZM25.637 125.872C26.1171 125.422 26.6036 124.979 27.0964 124.543L26.4335 123.794C25.9337 124.237 25.4402 124.686 24.9532 125.143L25.637 125.872ZM28.5931 123.255C29.0977 122.833 29.6084 122.417 30.1251 122.01L29.5054 121.225C28.9814 121.638 28.4634 122.059 27.9515 122.487L28.5931 123.255ZM31.692 120.808C32.2196 120.415 32.7531 120.03 33.2922 119.652L32.718 118.833C32.1711 119.217 31.63 119.608 31.0948 120.006L31.692 120.808ZM34.9242 118.541C35.4734 118.179 36.028 117.824 36.588 117.477L36.0611 116.627C35.4931 116.979 34.9305 117.339 34.3735 117.707L34.9242 118.541ZM38.2799 116.461C38.8485 116.131 39.4224 115.808 40.0012 115.493L39.5236 114.615C38.9364 114.934 38.3543 115.261 37.7773 115.597L38.2799 116.461ZM41.7485 114.575C42.3348 114.278 42.9258 113.989 43.5216 113.707L43.0947 112.803C42.4904 113.088 41.8908 113.382 41.296 113.684L41.7485 114.575ZM45.3193 112.89C45.9212 112.627 46.5275 112.372 47.1382 112.125L46.7637 111.198C46.1442 111.448 45.5291 111.707 44.9185 111.974L45.3193 112.89ZM48.9809 111.412C49.5963 111.183 50.2159 110.964 50.8395 110.752L50.5187 109.805C49.8861 110.019 49.2575 110.242 48.6331 110.474L48.9809 111.412ZM52.7192 110.146C53.3469 109.953 53.9785 109.769 54.6138 109.594L54.3478 108.63C53.7033 108.807 53.0626 108.994 52.4256 109.19L52.7192 110.146ZM56.5239 109.096C57.1621 108.939 57.8037 108.791 58.4487 108.653L58.2383 107.675C57.5839 107.816 56.933 107.966 56.2856 108.125L56.5239 109.096ZM60.3827 108.265C61.0293 108.145 61.6791 108.034 62.3319 107.932L62.1776 106.944C61.5153 107.047 60.8562 107.16 60.2003 107.282L60.3827 108.265ZM64.283 107.656C64.9351 107.573 65.59 107.499 66.2477 107.434L66.1496 106.439C65.4826 106.504 64.8183 106.579 64.1568 106.664L64.283 107.656ZM68.2123 107.268C68.8673 107.222 69.5249 107.186 70.1849 107.158L70.143 106.159C69.4737 106.187 68.8067 106.224 68.1423 106.271L68.2123 107.268ZM72.1577 107.103C72.4876 107.098 72.8181 107.096 73.1492 107.096L73.1491 106.096C72.8135 106.096 72.4783 106.098 72.1437 106.103L72.1577 107.103ZM73.1492 107.096L74.1509 107.096L74.1509 106.096L73.1491 106.096L73.1492 107.096ZM76.1544 107.096L78.1578 107.096L78.1578 106.096L76.1543 106.096L76.1544 107.096ZM80.1613 107.096L82.1647 107.096L82.1647 106.096L80.1612 106.096L80.1613 107.096ZM84.1682 107.096L86.1716 107.096L86.1716 106.096L84.1682 106.096L84.1682 107.096ZM88.1751 107.096L90.1785 107.096L90.1785 106.096L88.1751 106.096L88.1751 107.096ZM92.182 107.096L94.1854 107.096L94.1854 106.096L92.182 106.096L92.182 107.096ZM96.1889 107.096L98.1923 107.096L98.1923 106.096L96.1889 106.096L96.1889 107.096ZM100.196 107.096L102.199 107.096L102.199 106.096L100.196 106.096L100.196 107.096ZM104.203 107.096L106.206 107.096L106.206 106.096L104.203 106.096L104.203 107.096ZM108.21 107.096L110.213 107.096L110.213 106.096L108.21 106.096L108.21 107.096ZM112.216 107.096L114.22 107.096L114.22 106.096L112.217 106.096L112.216 107.096ZM116.223 107.096L118.227 107.096L118.227 106.096L116.223 106.096L116.223 107.096ZM120.23 107.096L122.234 107.096L122.234 106.096L120.23 106.096L120.23 107.096ZM124.237 107.096L126.241 107.096L126.241 106.096L124.237 106.096L124.237 107.096ZM128.244 107.096L130.248 107.096L130.248 106.096L128.244 106.096L128.244 107.096ZM132.251 107.096L134.254 107.096L134.254 106.096L132.251 106.096L132.251 107.096ZM136.258 107.096L138.261 107.096L138.261 106.096L136.258 106.096L136.258 107.096ZM140.265 107.096L142.268 107.096L142.268 106.096L140.265 106.096L140.265 107.096ZM144.272 107.096L146.275 107.096L146.275 106.096L144.272 106.096L144.272 107.096ZM148.279 107.096L150.282 107.096L150.282 106.096L148.279 106.096L148.279 107.096ZM152.286 107.096L154.289 107.096L154.289 106.096L152.286 106.096L152.286 107.096ZM156.292 107.096L158.296 107.096L158.296 106.096L156.292 106.096L156.292 107.096ZM160.299 107.096L162.303 107.096L162.303 106.096L160.299 106.096L160.299 107.096ZM164.306 107.096L166.31 107.096L166.31 106.096L164.306 106.096L164.306 107.096ZM168.313 107.096L170.317 107.096L170.317 106.096L168.313 106.096L168.313 107.096ZM172.32 107.096L174.324 107.096L174.324 106.096L172.32 106.096L172.32 107.096ZM176.327 107.096L178.33 107.096L178.33 106.096L176.327 106.096L176.327 107.096ZM180.334 107.096L182.337 107.096L182.337 106.096L180.334 106.096L180.334 107.096ZM184.341 107.096L186.344 107.096L186.344 106.096L184.341 106.096L184.341 107.096ZM188.348 107.096L190.351 107.096L190.351 106.096L188.348 106.096L188.348 107.096ZM192.355 107.096L194.358 107.096L194.358 106.096L192.355 106.096L192.355 107.096ZM196.362 107.096L198.365 107.096L198.365 106.096L196.362 106.096L196.362 107.096ZM200.368 107.096L202.372 107.096L202.372 106.096L200.369 106.096L200.368 107.096ZM204.375 107.096L206.379 107.096L206.379 106.096L204.375 106.096L204.375 107.096ZM208.382 107.096L210.386 107.096L210.386 106.096L208.382 106.096L208.382 107.096ZM212.389 107.096L214.393 107.096L214.393 106.096L212.389 106.096L212.389 107.096ZM216.396 107.096L218.4 107.096L218.4 106.096L216.396 106.096L216.396 107.096ZM220.403 107.096L222.406 107.096L222.406 106.096L220.403 106.096L220.403 107.096ZM224.41 107.096L226.413 107.096L226.413 106.096L224.41 106.096L224.41 107.096ZM228.417 107.096L230.42 107.096L230.42 106.096L228.417 106.096L228.417 107.096ZM232.424 107.096L234.427 107.096L234.427 106.096L232.424 106.096L232.424 107.096ZM236.431 107.096L238.434 107.096L238.434 106.096L236.431 106.096L236.431 107.096ZM240.437 107.096L242.441 107.096L242.441 106.096L240.437 106.096L240.437 107.096ZM244.444 107.096L246.448 107.096L246.448 106.096L244.444 106.096L244.444 107.096ZM248.451 107.096L250.455 107.096L250.455 106.096L248.451 106.096L248.451 107.096ZM252.458 107.096L254.462 107.096L254.462 106.096L252.458 106.096L252.458 107.096ZM256.465 107.096L258.469 107.096L258.469 106.096L256.465 106.096L256.465 107.096ZM260.472 107.096L262.475 107.096L262.475 106.096L260.472 106.096L260.472 107.096ZM264.479 107.096L266.482 107.096L266.482 106.096L264.479 106.096L264.479 107.096ZM268.486 107.096L270.489 107.096L270.489 106.096L268.486 106.096L268.486 107.096ZM272.493 107.096L274.496 107.096L274.496 106.096L272.493 106.096L272.493 107.096ZM276.5 107.096L278.503 107.096L278.503 106.096L276.5 106.096L276.5 107.096ZM280.506 107.096L282.51 107.096L282.51 106.096L280.506 106.096L280.506 107.096ZM284.513 107.096L286.517 107.096L286.517 106.096L284.513 106.096L284.513 107.096ZM288.52 107.096L290.524 107.096L290.524 106.096L288.52 106.096L288.52 107.096ZM292.527 107.096L294.531 107.096L294.531 106.096L292.527 106.096L292.527 107.096ZM296.534 107.096L298.538 107.096L298.537 106.096L296.534 106.096L296.534 107.096ZM300.541 107.096L302.544 107.096L302.544 106.096L300.541 106.096L300.541 107.096ZM304.548 107.096L306.551 107.096L306.551 106.096L304.548 106.096L304.548 107.096ZM308.555 107.096L310.558 107.096L310.558 106.096L308.555 106.096L308.555 107.096ZM312.562 107.096L314.565 107.096L314.565 106.096L312.562 106.096L312.562 107.096ZM316.569 107.096L318.572 107.096L318.572 106.096L316.569 106.096L316.569 107.096ZM320.575 107.096L322.579 107.096L322.579 106.096L320.575 106.096L320.575 107.096ZM324.582 107.096L326.586 107.096L326.586 106.096L324.582 106.096L324.582 107.096ZM328.589 107.096L330.593 107.096L330.593 106.096L328.589 106.096L328.589 107.096ZM332.596 107.096L334.6 107.096L334.6 106.096L332.596 106.096L332.596 107.096ZM336.603 107.096L338.606 107.096L338.606 106.096L336.603 106.096L336.603 107.096ZM340.61 107.096L342.613 107.096L342.613 106.096L340.61 106.096L340.61 107.096ZM344.617 107.096L346.62 107.096L346.62 106.096L344.617 106.096L344.617 107.096ZM348.624 107.096L350.627 107.096L350.627 106.096L348.624 106.096L348.624 107.096ZM352.631 107.096L354.634 107.096L354.634 106.096L352.631 106.096L352.631 107.096ZM356.638 107.096L358.641 107.096L358.641 106.096L356.638 106.096L356.638 107.096ZM360.644 107.096L362.648 107.096L362.648 106.096L360.644 106.096L360.644 107.096ZM364.651 107.096L366.655 107.096L366.655 106.096L364.651 106.096L364.651 107.096ZM368.658 107.096L370.662 107.096L370.662 106.096L368.658 106.096L368.658 107.096ZM372.665 107.096L374.669 107.096L374.669 106.096L372.665 106.096L372.665 107.096ZM376.672 107.096L378.675 107.096L378.675 106.096L376.672 106.096L376.672 107.096ZM380.679 107.096L382.682 107.096L382.682 106.096L380.679 106.096L380.679 107.096ZM384.686 107.096L386.689 107.096L386.689 106.096L384.686 106.096L384.686 107.096ZM388.693 107.096L390.696 107.096L390.696 106.096L388.693 106.096L388.693 107.096ZM392.7 107.096L394.703 107.096L394.703 106.096L392.7 106.096L392.7 107.096ZM396.707 107.096L398.71 107.096L398.71 106.096L396.707 106.096L396.707 107.096ZM400.713 107.096L402.717 107.096L402.717 106.096L400.713 106.096L400.713 107.096ZM404.72 107.096L406.724 107.096L406.724 106.096L404.72 106.096L404.72 107.096ZM408.727 107.096L410.731 107.096L410.731 106.096L408.727 106.096L408.727 107.096ZM412.734 107.096L414.738 107.096L414.738 106.096L412.734 106.096L412.734 107.096ZM416.741 107.096L418.744 107.096L418.744 106.096L416.741 106.096L416.741 107.096ZM420.748 107.096L422.751 107.096L422.751 106.096L420.748 106.096L420.748 107.096ZM424.755 107.096L426.758 107.096L426.758 106.096L424.755 106.096L424.755 107.096ZM428.762 107.096L430.765 107.096L430.765 106.096L428.762 106.096L428.762 107.096ZM432.769 107.096L434.772 107.096L434.772 106.096L432.769 106.096L432.769 107.096ZM436.775 107.096L438.779 107.096L438.779 106.096L436.775 106.096L436.775 107.096ZM440.782 107.096L442.786 107.096L442.786 106.096L440.782 106.096L440.782 107.096ZM444.789 107.096L446.793 107.096L446.793 106.096L444.789 106.096L444.789 107.096ZM448.796 107.096L450.8 107.096L450.8 106.096L448.796 106.096L448.796 107.096ZM452.803 107.096L454.806 107.095L454.806 106.096L452.803 106.096L452.803 107.096ZM456.81 107.096L458.813 107.095L458.813 106.095L456.81 106.095L456.81 107.096ZM460.817 107.096L462.82 107.095L462.82 106.095L460.817 106.095L460.817 107.096ZM464.824 107.095L466.827 107.095L466.827 106.095L464.824 106.095L464.824 107.095ZM468.831 107.095L470.834 107.095L470.834 106.095L468.831 106.095L468.831 107.095ZM472.838 107.095L474.841 107.095L474.841 106.095L472.838 106.095L472.838 107.095ZM476.844 107.095L478.848 107.095L478.848 106.095L476.844 106.095L476.844 107.095ZM480.851 107.095L482.855 107.095L482.855 106.095L480.851 106.095L480.851 107.095ZM484.858 107.095L486.862 107.095L486.862 106.095L484.858 106.095L484.858 107.095ZM488.865 107.095L490.869 107.095L490.869 106.095L488.865 106.095L488.865 107.095ZM492.872 107.095L494.875 107.095L494.875 106.095L492.872 106.095L492.872 107.095ZM496.879 107.095L498.882 107.095L498.882 106.095L496.879 106.095L496.879 107.095ZM500.886 107.095L502.889 107.095L502.889 106.095L500.886 106.095L500.886 107.095ZM504.893 107.095L506.896 107.095L506.896 106.095L504.893 106.095L504.893 107.095ZM508.9 107.095L510.903 107.095L510.903 106.095L508.9 106.095L508.9 107.095ZM512.906 107.095L514.91 107.095L514.91 106.095L512.906 106.095L512.906 107.095ZM516.913 107.095L518.917 107.095L518.917 106.095L516.913 106.095L516.913 107.095ZM520.92 107.095L522.924 107.095L522.924 106.095L520.92 106.095L520.92 107.095ZM524.927 107.095L526.931 107.095L526.931 106.095L524.927 106.095L524.927 107.095ZM528.934 107.095L530.938 107.095L530.938 106.095L528.934 106.095L528.934 107.095ZM532.941 107.095L534.944 107.095L534.944 106.095L532.941 106.095L532.941 107.095ZM536.948 107.095L538.951 107.095L538.951 106.095L536.948 106.095L536.948 107.095ZM540.955 107.095L542.958 107.095L542.958 106.095L540.955 106.095L540.955 107.095ZM544.962 107.095L546.965 107.095L546.965 106.095L544.962 106.095L544.962 107.095ZM548.969 107.095L550.972 107.095L550.972 106.095L548.969 106.095L548.969 107.095ZM552.975 107.095L554.979 107.095L554.979 106.095L552.975 106.095L552.975 107.095ZM556.982 107.095L558.986 107.095L558.986 106.095L556.982 106.095L556.982 107.095ZM560.989 107.095L562.993 107.095L562.993 106.095L560.989 106.095L560.989 107.095ZM564.996 107.095L567 107.095L567 106.095L564.996 106.095L564.996 107.095ZM569.003 107.095L571.006 107.095L571.006 106.095L569.003 106.095L569.003 107.095ZM573.01 107.095L575.013 107.095L575.013 106.095L573.01 106.095L573.01 107.095ZM577.017 107.095L579.02 107.095L579.02 106.095L577.017 106.095L577.017 107.095ZM581.024 107.095L583.027 107.095L583.027 106.095L581.024 106.095L581.024 107.095ZM585.031 107.095L587.034 107.095L587.034 106.095L585.031 106.095L585.031 107.095ZM589.038 107.095L591.041 107.095L591.041 106.095L589.038 106.095L589.038 107.095ZM593.045 107.095L595.048 107.095L595.048 106.095L593.045 106.095L593.045 107.095ZM597.052 107.095L599.055 107.095L599.055 106.095L597.052 106.095L597.052 107.095ZM601.058 107.095L603.062 107.095L603.062 106.095L601.058 106.095L601.058 107.095ZM605.065 107.095L607.069 107.095L607.069 106.095L605.065 106.095L605.065 107.095ZM609.072 107.095L611.076 107.095L611.076 106.095L609.072 106.095L609.072 107.095ZM613.079 107.095L615.083 107.095L615.083 106.095L613.079 106.095L613.079 107.095ZM617.086 107.095L619.09 107.095L619.09 106.095L617.086 106.095L617.086 107.095ZM621.093 107.095L623.097 107.095L623.097 106.095L621.093 106.095L621.093 107.095ZM625.1 107.095L627.104 107.095L627.104 106.095L625.1 106.095L625.1 107.095ZM629.107 107.095L631.111 107.095L631.111 106.095L629.107 106.095L629.107 107.095ZM633.114 107.095L635.118 107.095L635.118 106.095L633.114 106.095L633.114 107.095ZM637.121 107.095L639.125 107.095L639.125 106.095L637.121 106.095L637.121 107.095ZM641.128 107.095L642.13 107.095L642.13 106.095L641.128 106.095L641.128 107.095ZM642.13 107.095C642.473 107.095 642.817 107.093 643.159 107.088L643.145 106.088C642.807 106.093 642.469 106.095 642.13 106.095L642.13 107.095ZM645.208 107.029C645.893 107 646.576 106.961 647.257 106.912L647.185 105.914C646.514 105.962 645.841 106.001 645.165 106.03L645.208 107.029ZM649.296 106.736C649.979 106.667 650.66 106.588 651.337 106.499L651.208 105.508C650.54 105.595 649.869 105.673 649.196 105.741L649.296 106.736ZM653.365 106.205C654.042 106.096 654.715 105.978 655.386 105.851L655.199 104.868C654.538 104.994 653.874 105.111 653.206 105.217L653.365 106.205ZM657.395 105.438C658.063 105.291 658.728 105.133 659.39 104.967L659.146 103.997C658.494 104.161 657.838 104.316 657.179 104.462L657.395 105.438ZM661.373 104.437C662.031 104.251 662.685 104.055 663.336 103.85L663.035 102.896C662.394 103.098 661.749 103.291 661.1 103.475L661.373 104.437ZM665.284 103.205C665.931 102.98 666.573 102.746 667.211 102.503L666.855 101.569C666.226 101.808 665.593 102.039 664.956 102.26L665.284 103.205ZM669.116 101.746C669.749 101.483 670.377 101.212 671 100.932L670.59 100.02C669.976 100.296 669.357 100.563 668.733 100.822L669.116 101.746ZM672.857 100.064C673.473 99.7657 674.084 99.4581 674.69 99.1421L674.227 98.2555C673.63 98.567 673.028 98.8702 672.421 99.1647L672.857 100.064ZM676.494 98.1673C677.091 97.8333 677.683 97.491 678.269 97.1403L677.756 96.2821C677.178 96.6278 676.595 96.9653 676.006 97.2945L676.494 98.1673ZM680.014 96.0618C680.59 95.6938 681.161 95.3177 681.726 94.9336L681.164 94.1067C680.607 94.4854 680.044 94.8562 679.476 95.2189L680.014 96.0618ZM683.405 93.7556C683.959 93.3547 684.507 92.9461 685.049 92.5297L684.44 91.7368C683.906 92.1473 683.365 92.5502 682.819 92.9453L683.405 93.7556ZM686.657 91.2567C687.187 90.8245 687.711 90.3848 688.227 89.9376L687.573 89.1813C687.064 89.6221 686.547 90.0557 686.025 90.4818L686.657 91.2567ZM689.759 88.5738C690.263 88.1117 690.76 87.6425 691.25 87.1661L690.554 86.4489C690.07 86.9185 689.58 87.3812 689.083 87.8367L689.759 88.5738ZM692.701 85.716C693.177 85.2257 693.646 84.7285 694.108 84.2245L693.371 83.5487C692.916 84.0456 692.453 84.5358 691.983 85.0192L692.701 85.716ZM695.472 82.6931C695.919 82.1761 696.359 81.6526 696.791 81.1226L696.016 80.4906C695.59 81.0131 695.156 81.5292 694.716 82.0389L695.472 82.6931ZM698.064 79.5148C698.48 78.973 698.889 78.425 699.29 77.8708L698.48 77.2848C698.085 77.831 697.682 78.3713 697.271 78.9055L698.064 79.5148ZM700.468 76.1915C700.852 75.6267 701.228 75.056 701.596 74.4796L700.753 73.9415C700.391 74.5097 700.02 75.0723 699.641 75.6292L700.468 76.1915ZM702.675 72.7347C703.025 72.1485 703.368 71.5568 703.702 70.9597L702.829 70.4715C702.5 71.0601 702.162 71.6434 701.817 72.2213L702.675 72.7347ZM704.676 69.1556C704.993 68.5497 705.3 67.9386 705.599 67.3226L704.699 66.8862C704.405 67.4935 704.101 68.0958 703.79 68.6931L704.676 69.1556ZM706.466 65.4655C706.746 64.8424 707.018 64.2145 707.28 63.5819L706.356 63.1989C706.098 63.8224 705.83 64.4413 705.554 65.0556L706.466 65.4655ZM708.038 61.6765C708.28 61.0386 708.514 60.3963 708.739 59.7497L707.794 59.4214C707.573 60.0587 707.342 60.6919 707.103 61.3207L708.038 61.6765ZM709.384 57.8013C709.589 57.1509 709.785 56.4965 709.971 55.8381L709.009 55.5657C708.825 56.2147 708.633 56.8598 708.431 57.5008L709.384 57.8013ZM710.501 53.8551C710.668 53.1939 710.825 52.5289 710.972 51.8604L709.996 51.6448C709.851 52.3038 709.696 52.9593 709.532 53.6111L710.501 53.8551ZM711.385 49.8514C711.513 49.181 711.631 48.5071 711.739 47.8301L710.752 47.672C710.645 48.3394 710.529 49.0036 710.403 49.6645L711.385 49.8514ZM712.034 45.8026C712.122 45.1252 712.201 44.4448 712.27 43.7615L711.275 43.6611C711.207 44.3347 711.129 45.0054 711.042 45.6732L712.034 45.8026ZM712.446 41.7224C712.495 41.0419 712.534 40.3588 712.564 39.6731L711.565 39.6302C711.536 40.3063 711.497 40.9798 711.449 41.6507L712.446 41.7224ZM712.622 37.6248C712.627 37.2822 712.63 36.939 712.63 36.5953L711.63 36.5953C711.63 36.9343 711.627 37.2726 711.622 37.6104L712.622 37.6248ZM712.63 36.5953L712.63 35.5872L711.63 35.5872L711.63 36.5953L712.63 36.5953ZM712.63 33.571L712.63 31.5548L711.63 31.5548L711.63 33.571L712.63 33.571ZM712.63 29.5386L712.63 27.5224L711.63 27.5224L711.63 29.5386L712.63 29.5386ZM712.63 25.5062L712.63 23.49L711.63 23.49L711.63 25.5062L712.63 25.5062ZM712.63 21.4739L712.63 19.4577L711.63 19.4577L711.63 21.4739L712.63 21.4739ZM712.63 17.4415L712.63 15.4253L711.63 15.4253L711.63 17.4415L712.63 17.4415ZM712.63 13.4091L712.63 11.3929L711.63 11.3929L711.63 13.4091L712.63 13.4091ZM712.63 9.37671L712.63 7.36052L711.63 7.36052L711.63 9.37671L712.63 9.37671ZM712.63 5.34433L712.63 4.33623L711.63 4.33622L711.63 5.34433L712.63 5.34433ZM712.63 4.33604L712.629 3.27376L711.629 3.27413L711.63 4.33642L712.63 4.33604ZM712.628 1.14921L712.628 0.0869247L711.628 0.087306L711.628 1.14958L712.628 1.14921Z" fill="black"/>
</svg>
