<svg width="98" height="71" viewBox="0 0 98 71" fill="none" xmlns="http://www.w3.org/2000/svg">
<path d="M84.4548 33.3592C81.171 34.9645 77.1486 35.6475 73.57 34.7072C73.4714 34.6776 73.3655 34.6843 73.2715 34.7259C73.1774 34.7675 73.1012 34.8414 73.0568 34.9342C73.0258 35.0158 73.025 35.1059 73.0547 35.188C73.0844 35.2701 73.1425 35.3389 73.2185 35.3819C75.9475 37.3154 79.2432 37.5094 81.5944 35.9463C60.7089 49.8413 60.8238 33.0298 52.6921 18.4578C51.3273 15.6847 47.6504 12.6674 44.7563 15.4329C38.2478 22.3064 62.9422 61.3403 56.4023 62.8575C53.0925 63.6246 44.45 42.5794 37.9889 30.0352C36.1642 26.4853 32.1835 26.6306 30.5794 29.7839C29.4398 32.3868 30.5524 35.1153 31.1486 37.6365C32.3326 43.8336 42.5778 66.392 43.8728 75.9423C44.3985 79.8309 41.7777 79.3565 40.7203 77.1881C35.1668 65.8255 27.2944 46.5129 22.1305 36.4411C20.6841 33.0651 18.2624 30.8905 16.5252 31.1579C8.80671 32.4159 27.2306 68.988 14.7359 63.1762C14.6577 63.1392 14.5681 63.1342 14.4862 63.1623C14.4044 63.1903 14.3367 63.2493 14.2977 63.3265C14.2304 63.4663 14.2203 63.6268 14.2698 63.7739C14.3193 63.9209 14.4242 64.0428 14.5624 64.1135C29.1923 71.526 12.738 33.9481 16.7142 33.4562C18.3696 33.2504 23.1077 43.4923 26.1214 50.5503C28.3653 55.8029 36.5671 75.7286 38.7506 79.0145C42.6718 84.923 47.0729 80.5903 46.7472 76.0214C45.9378 65.0326 34.1875 41.9528 33.8586 33.6671C33.7736 31.5624 34.8402 32.4304 35.2958 33.1402C39.4039 39.5615 47.3587 61.5718 52.5574 65.8294C54.1436 67.1247 56.3678 67.8763 58.3678 66.8898C64.7168 62.8318 58.4256 51.3199 56.7868 45.9085C56.0963 43.5271 47.9875 26.1999 47.1512 20.1648C46.9553 18.77 47.8851 17.0224 49.1895 19.2158C58.5811 34.9696 59.3739 53.5619 80.6431 37.678C79.1584 40.4118 78.4807 42.5816 79.0977 46.7421C79.1059 46.787 79.1233 46.8297 79.1488 46.8675C79.1742 46.9054 79.2072 46.9376 79.2457 46.9622C79.2841 46.9867 79.3272 47.0031 79.3723 47.0102C79.4174 47.0174 79.4634 47.0152 79.5076 47.0037C79.5683 46.9926 79.6248 46.9648 79.6706 46.9234C79.7164 46.8819 79.7498 46.8285 79.7669 46.7692C80.6821 41.1393 82.2311 38.2718 85.5733 35.2717C86.9497 34.0165 85.9834 32.6285 84.4548 33.3592Z" fill="#009EE0"/>
<path d="M28.054 64.2263C27.9733 64.6648 27.9897 65.1157 28.1022 65.5471C28.2146 65.9786 28.4204 66.3801 28.7049 66.7234C28.7358 66.7572 28.7754 66.7819 28.8194 66.7947C28.8634 66.8075 28.9101 66.8079 28.9544 66.7958C28.9986 66.7838 29.0386 66.7597 29.0701 66.7264C29.1015 66.693 29.1231 66.6516 29.1326 66.6068C29.2112 66.1688 29.1928 65.7189 29.0784 65.2889C28.9641 64.8589 28.7567 64.4592 28.4709 64.1182C28.4407 64.0861 28.4025 64.0628 28.3602 64.0507C28.3179 64.0385 28.2731 64.0379 28.2305 64.0489C28.1879 64.06 28.149 64.0823 28.118 64.1135C28.0869 64.1447 28.0648 64.1837 28.054 64.2263Z" fill="#009EE0"/>
<path d="M29.3163 68.1052C30.0808 74.4045 33.5585 84.5142 40.66 85.0542C40.6868 85.0577 40.7139 85.0512 40.7362 85.0359C40.7584 85.0207 40.7743 84.9978 40.7807 84.9715C40.7871 84.9453 40.7835 84.9177 40.7708 84.8939C40.7581 84.8701 40.737 84.8518 40.7116 84.8426C34.5432 82.234 32.361 73.7806 29.5245 68.0422C29.5136 68.0178 29.4942 67.9982 29.47 67.9871C29.4457 67.976 29.4182 67.9741 29.3926 67.9819C29.367 67.9896 29.3452 68.0064 29.3311 68.0291C29.3171 68.0519 29.3118 68.0789 29.3163 68.1052Z" fill="#009EE0"/>
<path d="M44.695 34.6718C40.9154 29.5757 36.4832 19.8447 41.2497 14.5734C41.2674 14.5542 41.2914 14.5419 41.3173 14.5388C41.3432 14.5357 41.3694 14.5419 41.3911 14.5564C41.4128 14.5708 41.4286 14.5926 41.4358 14.6177C41.4429 14.6428 41.4408 14.6696 41.4299 14.6934C38.7499 20.8317 42.9837 28.4646 44.8803 34.5898C44.8794 34.6109 44.8726 34.6313 44.8608 34.6487C44.8489 34.6661 44.8324 34.6799 44.8131 34.6884C44.7939 34.6969 44.7726 34.6999 44.7517 34.6969C44.7308 34.694 44.7112 34.6853 44.695 34.6718Z" fill="#009EE0"/>
<path d="M44.651 12.0844C44.2059 12.0758 43.7644 12.1647 43.3573 12.3448C42.9503 12.5249 42.5875 12.7918 42.2945 13.127C42.2652 13.1626 42.2464 13.2057 42.2402 13.2514C42.2339 13.2971 42.2405 13.3437 42.2592 13.3859C42.2778 13.4281 42.3079 13.4643 42.3459 13.4904C42.3839 13.5165 42.4285 13.5316 42.4746 13.5339C42.9197 13.5432 43.3615 13.4546 43.7686 13.2745C44.1758 13.0943 44.5385 12.827 44.831 12.4914C44.8616 12.4561 44.8816 12.4129 44.8886 12.3667C44.8955 12.3206 44.8892 12.2734 44.8703 12.2307C44.8514 12.188 44.8208 12.1516 44.7819 12.1257C44.7431 12.0998 44.6977 12.0855 44.651 12.0844Z" fill="#009EE0"/>
</svg>
