<svg width="32" height="33" viewBox="0 0 32 33" fill="none" xmlns="http://www.w3.org/2000/svg">
<g clip-path="url(#clip0_6002_5861)">
<g clip-path="url(#clip1_6002_5861)">
<g clip-path="url(#clip2_6002_5861)">
<path d="M18.4111 15.292C18.3285 15.2891 18.2461 15.3028 18.169 15.3324C18.0918 15.362 18.0214 15.4069 17.9619 15.4643C17.9025 15.5217 17.8552 15.5905 17.8229 15.6666C17.7907 15.7427 17.7741 15.8246 17.7741 15.9072C17.7742 15.9899 17.7909 16.0717 17.8233 16.1477C17.8556 16.2238 17.903 16.2925 17.9625 16.3499C18.022 16.4072 18.0925 16.452 18.1697 16.4815C18.2469 16.511 18.3293 16.5246 18.4119 16.5216C18.5711 16.5159 18.7219 16.4486 18.8325 16.3339C18.9431 16.2192 19.0049 16.0661 19.0049 15.9068C19.0049 15.7475 18.9431 15.5944 18.8325 15.4797C18.7219 15.365 18.5703 15.2977 18.4111 15.292ZM15.9535 11.604C15.7904 11.604 15.6341 11.6688 15.5188 11.7841C15.4035 11.8994 15.3387 12.0557 15.3387 12.2188C15.3387 12.3819 15.4035 12.5382 15.5188 12.6535C15.6341 12.7688 15.7904 12.8336 15.9535 12.8336C16.1166 12.8336 16.2729 12.7688 16.3882 12.6535C16.5035 12.5382 16.5683 12.3819 16.5683 12.2188C16.5683 12.0557 16.5035 11.8994 16.3882 11.7841C16.2729 11.6688 16.1166 11.604 15.9535 11.604ZM8.5783 27.5832C8.4957 27.5802 8.41334 27.5939 8.33615 27.6235C8.25896 27.653 8.18851 27.6978 8.12902 27.7552C8.06953 27.8126 8.02221 27.8814 7.98989 27.9575C7.95757 28.0335 7.94092 28.1153 7.94092 28.198C7.94092 28.2807 7.95757 28.3625 7.98989 28.4385C8.02221 28.5146 8.06953 28.5834 8.12902 28.6408C8.18851 28.6982 8.25896 28.743 8.33615 28.7725C8.41334 28.8021 8.4957 28.8158 8.5783 28.8128C8.73752 28.8071 8.8883 28.7398 8.9989 28.6251C9.10951 28.5104 9.17132 28.3573 9.17132 28.198C9.17132 28.0387 9.10951 27.8856 8.9989 27.7709C8.8883 27.6562 8.73752 27.5889 8.5783 27.5832Z" fill="#04080F"/>
<path d="M28.1482 26.0889L20.2562 12.0577V4.61529C20.6155 4.48783 20.9266 4.25233 21.1467 3.94109C21.3669 3.62985 21.4853 3.25812 21.4858 2.87689C21.4852 2.3881 21.2907 1.91952 20.945 1.57397C20.5993 1.22842 20.1306 1.03411 19.6418 1.03369H12.2666C11.7779 1.03411 11.3092 1.22842 10.9635 1.57397C10.6178 1.91952 10.4233 2.3881 10.4226 2.87689C10.4226 3.67849 10.937 4.36169 11.6522 4.61529V12.0577L3.76024 26.0889C3.38797 26.7421 3.19513 27.4822 3.20132 28.234C3.2075 28.9859 3.41248 29.7227 3.79544 30.3697C4.17147 31.0208 4.71308 31.5609 5.3653 31.9351C6.01752 32.3092 6.75713 32.5042 7.50904 32.5001H24.4002C25.1522 32.5042 25.8918 32.3092 26.544 31.9351C27.1962 31.5609 27.7378 31.0208 28.1138 30.3697C28.4968 29.7227 28.7018 28.9859 28.708 28.234C28.7142 27.4822 28.5205 26.7421 28.1482 26.0889ZM12.8026 12.5209C12.8542 12.4288 12.8812 12.3249 12.881 12.2193V4.72089H13.4954C13.6584 4.72089 13.8147 4.65616 13.9299 4.54094C14.0451 4.42572 14.1098 4.26944 14.1098 4.10649C14.1098 3.94354 14.0451 3.78727 13.9299 3.67204C13.8147 3.55682 13.6584 3.49209 13.4954 3.49209H12.2666C12.1102 3.48231 11.9634 3.41329 11.8561 3.29906C11.7488 3.18484 11.6891 3.03401 11.6891 2.87729C11.6891 2.72057 11.7488 2.56974 11.8561 2.45552C11.9634 2.3413 12.1102 2.27227 12.2666 2.26249H19.6418C19.7983 2.27227 19.9451 2.3413 20.0524 2.45552C20.1597 2.56974 20.2194 2.72057 20.2194 2.87729C20.2194 3.03401 20.1597 3.18484 20.0524 3.29906C19.9451 3.41329 19.7983 3.48231 19.6418 3.49209H18.4122C18.2493 3.49209 18.093 3.55682 17.9778 3.67204C17.8626 3.78727 17.7978 3.94354 17.7978 4.10649C17.7978 4.26944 17.8626 4.42572 17.9778 4.54094C18.093 4.65616 18.2493 4.72089 18.4122 4.72089H19.0274V12.2185C19.0274 12.3249 19.0546 12.4281 19.1058 12.5201L22.7282 18.9601C20.5162 18.7809 18.3122 19.2281 16.2866 20.2769C13.6826 21.6249 10.7842 21.8617 8.05064 20.9673L12.8026 12.5201V12.5209ZM27.0514 29.7497C26.783 30.2148 26.3962 30.6005 25.9304 30.8677C25.4646 31.135 24.9364 31.2742 24.3994 31.2713H7.50904C6.97207 31.2741 6.44391 31.1348 5.97814 30.8676C5.51238 30.6004 5.1256 30.2147 4.85704 29.7497C4.5833 29.2875 4.43673 28.7611 4.43224 28.2239C4.42774 27.6868 4.56547 27.158 4.83144 26.6913L7.43784 22.0577C8.87789 22.563 10.4024 22.7836 11.9266 22.7073C13.6456 22.6216 15.3256 22.165 16.8514 21.3689C18.9282 20.2937 21.2122 19.9225 23.4754 20.2889L27.077 26.6913C27.343 27.158 27.4807 27.6868 27.4762 28.2239C27.4718 28.7611 27.3252 29.2875 27.0514 29.7497Z" fill="#04080F"/>
<path d="M13.4959 15.292C13.0069 15.2922 12.5381 15.4864 12.1922 15.832C11.8463 16.1776 11.6517 16.6463 11.6511 17.1352C11.6513 17.6244 11.8457 18.0935 12.1916 18.4394C12.5376 18.7853 13.0067 18.9798 13.4959 18.98C13.9848 18.9796 14.4536 18.7852 14.7993 18.4394C15.145 18.0937 15.3395 17.6249 15.3399 17.136C15.3392 16.6472 15.1447 16.1786 14.799 15.8331C14.4533 15.4875 13.9847 15.2924 13.4959 15.292ZM13.4959 17.7504C13.3395 17.7406 13.1927 17.6716 13.0853 17.5574C12.978 17.4431 12.9183 17.2923 12.9183 17.1356C12.9183 16.9789 12.978 16.828 13.0853 16.7138C13.1927 16.5996 13.3395 16.5306 13.4959 16.5208C13.6523 16.5306 13.7991 16.5996 13.9064 16.7138C14.0137 16.828 14.0734 16.9789 14.0734 17.1356C14.0734 17.2923 14.0137 17.4431 13.9064 17.5574C13.7991 17.6716 13.6523 17.7406 13.4959 17.7504ZM23.3279 27.5832H11.0367C10.8736 27.5832 10.7172 27.648 10.6019 27.7633C10.4866 27.8786 10.4219 28.0349 10.4219 28.198C10.4219 28.361 10.4866 28.5174 10.6019 28.6327C10.7172 28.748 10.8736 28.8128 11.0367 28.8128H23.3279C23.4909 28.8128 23.6473 28.748 23.7626 28.6327C23.8779 28.5174 23.9427 28.361 23.9427 28.198C23.9427 28.0349 23.8779 27.8786 23.7626 27.7633C23.6473 27.648 23.4909 27.5832 23.3279 27.5832Z" fill="#04080F"/>
</g>
</g>
</g>
<defs>
<clipPath id="clip0_6002_5861">
<rect width="32" height="32" fill="white" transform="translate(0 0.5)"/>
</clipPath>
<clipPath id="clip1_6002_5861">
<rect width="32" height="32" fill="white" transform="translate(0 0.5)"/>
</clipPath>
<clipPath id="clip2_6002_5861">
<rect width="32" height="32" fill="white" transform="translate(0 0.5)"/>
</clipPath>
</defs>
</svg>
