<svg width="32" height="33" viewBox="0 0 32 33" fill="none" xmlns="http://www.w3.org/2000/svg">
<g clip-path="url(#clip0_6002_5839)">
<g clip-path="url(#clip1_6002_5839)">
<path d="M4.95342 11.1951C4.50436 11.1947 4.07382 11.0162 3.75628 10.6986C3.43875 10.3811 3.26018 9.95054 3.25977 9.50148C3.25977 8.56802 4.01996 7.80783 4.95342 7.80783C5.88689 7.80783 6.64708 8.56802 6.64708 9.50148C6.64708 10.4349 5.88689 11.1951 4.95342 11.1951ZM4.95342 8.72646C4.75389 8.73542 4.5655 8.82099 4.42747 8.96535C4.28944 9.10971 4.21241 9.30175 4.21241 9.50148C4.21241 9.70122 4.28944 9.89326 4.42747 10.0376C4.5655 10.182 4.75389 10.2676 4.95342 10.2765C5.15296 10.2676 5.34135 10.182 5.47938 10.0376C5.61741 9.89326 5.69444 9.70122 5.69444 9.50148C5.69444 9.30175 5.61741 9.10971 5.47938 8.96535C5.34135 8.82099 5.15296 8.73542 4.95342 8.72646ZM19.2863 13.7887C18.8375 13.7881 18.4073 13.6095 18.0899 13.2922C17.7726 12.9748 17.594 12.5446 17.5934 12.0958C17.5934 11.1624 18.3528 10.4022 19.2871 10.4022C20.2205 10.4022 20.98 11.1624 20.98 12.0958C20.98 13.0293 20.2205 13.7895 19.2863 13.7895V13.7887ZM19.2863 11.3208C19.0868 11.3298 18.8984 11.4153 18.7604 11.5597C18.6223 11.7041 18.5453 11.8961 18.5453 12.0958C18.5453 12.2956 18.6223 12.4876 18.7604 12.632C18.8984 12.7763 19.0868 12.8619 19.2863 12.8709C19.4858 12.8619 19.6742 12.7763 19.8123 12.632C19.9503 12.4876 20.0273 12.2956 20.0273 12.0958C20.0273 11.8961 19.9503 11.7041 19.8123 11.5597C19.6742 11.4153 19.4858 11.3298 19.2863 11.3208ZM12.1191 9.17524C11.3829 9.17441 10.6771 8.88155 10.1567 8.36092C9.63617 7.8403 9.34351 7.13444 9.34289 6.39827C9.34371 5.66223 9.63647 4.95657 10.1569 4.43611C10.6774 3.91565 11.383 3.6229 12.1191 3.62207C12.8551 3.6229 13.5608 3.91565 14.0812 4.43611C14.6017 4.95657 14.8945 5.66223 14.8953 6.39827C14.8947 7.13444 14.602 7.8403 14.0815 8.36092C13.561 8.88155 12.8553 9.17441 12.1191 9.17524ZM12.1191 4.5407C11.6265 4.54132 11.1543 4.7372 10.806 5.08541C10.4576 5.43361 10.2616 5.90573 10.2607 6.39827C10.2614 6.89094 10.4573 7.36325 10.8057 7.71163C11.1541 8.06 11.6264 8.25599 12.1191 8.25661C12.6115 8.25578 13.0835 8.05981 13.4317 7.71163C13.7798 7.36345 13.9758 6.89145 13.9766 6.39905C13.976 5.90651 13.7801 5.43431 13.4319 5.08596C13.0837 4.73761 12.6116 4.54153 12.1191 4.5407ZM26.4551 9.17524C25.7189 9.17441 25.0131 8.88155 24.4927 8.36092C23.9722 7.8403 23.6795 7.13444 23.6789 6.39827C23.6797 5.66223 23.9725 4.95657 24.4929 4.43611C25.0134 3.91565 25.719 3.6229 26.4551 3.62207C27.1911 3.6229 27.8968 3.91565 28.4172 4.43611C28.9377 4.95657 29.2305 5.66223 29.2313 6.39827C29.2307 7.13444 28.938 7.8403 28.4175 8.36092C27.897 8.88155 27.1913 9.17441 26.4551 9.17524ZM26.4551 4.5407C25.9627 4.54153 25.4907 4.7375 25.1425 5.08568C24.7943 5.43386 24.5983 5.90586 24.5975 6.39827C24.5981 6.8908 24.794 7.363 25.1422 7.71135C25.4904 8.0597 25.9625 8.25578 26.4551 8.25661C26.9476 8.25599 27.4198 8.06011 27.7682 7.7119C28.1165 7.3637 28.3126 6.89158 28.3134 6.39905C28.3128 5.90651 28.1169 5.43431 27.7687 5.08596C27.4205 4.73761 26.9476 4.54153 26.4551 4.5407Z" fill="#04080F"/>
<path d="M9.7262 6.77124L10.1523 7.58451L6.4021 9.54822L5.97595 8.73495L9.7262 6.77124ZM14.2936 7.59856L18.5957 11.1997L18.0064 11.9037L13.7043 8.30256L14.2936 7.59856ZM20.6452 12.0356L20.0677 11.3223L24.4376 7.78509L25.0152 8.49846L20.6452 12.0356ZM5.99469 29.7472H3.91078C3.59593 29.7448 3.29492 29.6175 3.07382 29.3933C2.85272 29.1691 2.7296 28.8664 2.73147 28.5515V14.6471C2.73147 13.9884 3.26064 13.4514 3.91078 13.4514H5.99469C6.64483 13.4514 7.174 13.9884 7.174 14.6471V28.5515C7.174 29.211 6.64405 29.7472 5.99469 29.7472ZM3.91078 14.3701C3.76639 14.3701 3.64932 14.4949 3.64932 14.6471V28.5515C3.64932 28.7045 3.76639 28.8294 3.91078 28.8294H5.99469C6.13908 28.8294 6.25615 28.7045 6.25615 28.5515V14.6471C6.25615 14.4942 6.13908 14.3701 5.99469 14.3701H3.91078ZM13.1619 29.7472H11.078C10.4271 29.7472 9.89869 29.1736 9.89869 28.4696V13.0175C9.89869 12.3127 10.4279 11.7398 11.0772 11.7398H13.1611C13.8121 11.7398 14.3412 12.3127 14.3412 13.0175V28.4696C14.3412 29.1736 13.8121 29.7472 13.1619 29.7472ZM11.078 12.6577C10.936 12.6577 10.8165 12.8216 10.8165 13.0167V28.4696C10.8165 28.6647 10.936 28.8286 11.078 28.8286H13.1619C13.3032 28.8286 13.4234 28.6647 13.4234 28.4696V13.0175C13.4234 12.8224 13.3032 12.6577 13.1619 12.6577H11.078ZM20.3283 29.748H18.2444C17.5935 29.748 17.0643 29.2813 17.0643 28.7084V17.748C17.0643 17.1744 17.5935 16.7084 18.2437 16.7084H20.3276C20.9785 16.7084 21.5077 17.1744 21.5077 17.748V28.7084C21.5077 29.2813 20.9785 29.748 20.3283 29.748ZM18.2444 17.627C18.0751 17.627 17.983 17.7176 17.983 17.748V28.7084C17.983 28.7381 18.0751 28.8294 18.2437 28.8294H20.3276C20.4969 28.8294 20.589 28.7381 20.589 28.7084V17.748C20.589 17.7176 20.4969 17.6263 20.3283 17.6263L18.2444 17.627ZM27.4963 29.7472H25.4117C24.7615 29.7472 24.2323 29.1736 24.2323 28.4696V13.0175C24.2323 12.3127 24.7615 11.7398 25.4109 11.7398H27.4956C28.1457 11.7398 28.6749 12.3127 28.6749 13.0175V28.4696C28.6749 29.1736 28.1457 29.7472 27.4963 29.7472ZM25.4117 12.6577C25.2696 12.6577 25.1502 12.8216 25.1502 13.0167V28.4696C25.1502 28.6647 25.2696 28.8286 25.4117 28.8286H27.4956C27.6376 28.8286 27.757 28.6647 27.757 28.4696V13.0175C27.757 12.8224 27.6376 12.6577 27.4956 12.6577H25.4117Z" fill="#04080F"/>
</g>
</g>
<defs>
<clipPath id="clip0_6002_5839">
<rect width="32" height="32" fill="white" transform="translate(0 0.5)"/>
</clipPath>
<clipPath id="clip1_6002_5839">
<rect width="32" height="32" fill="white" transform="translate(0 0.5)"/>
</clipPath>
</defs>
</svg>
