<svg width="32" height="33" viewBox="0 0 32 33" fill="none" xmlns="http://www.w3.org/2000/svg">
<g clip-path="url(#clip0_6002_5848)">
<g clip-path="url(#clip1_6002_5848)">
<g clip-path="url(#clip2_6002_5848)">
<mask id="mask0_6002_5848" style="mask-type:luminance" maskUnits="userSpaceOnUse" x="0" y="0" width="32" height="33">
<path d="M0 0.5H32V32.5H0V0.5Z" fill="white"/>
</mask>
<g mask="url(#mask0_6002_5848)">
<path d="M31.5328 27.6479C31.5032 27.6479 28.5368 27.6199 25.2064 26.2079C20.972 24.4119 18.0944 21.3039 16.6424 16.9679H31.5312C31.5949 16.9716 31.6588 16.9623 31.7188 16.9405C31.7788 16.9186 31.8338 16.8848 31.8802 16.8409C31.9267 16.7971 31.9637 16.7442 31.989 16.6856C32.0143 16.627 32.0274 16.5638 32.0274 16.4999C32.0274 16.436 32.0143 16.3728 31.989 16.3142C31.9637 16.2555 31.9267 16.2027 31.8802 16.1589C31.8338 16.115 31.7788 16.0812 31.7188 16.0593C31.6588 16.0375 31.5949 16.0282 31.5312 16.0319H16.4688V0.967091C16.4688 0.842757 16.4194 0.723516 16.3315 0.635599C16.2435 0.547682 16.1243 0.498291 16 0.498291C15.8756 0.498291 15.7564 0.547682 15.6685 0.635599C15.5806 0.723516 15.5312 0.842757 15.5312 0.967091V13.9319C14.8937 12.5405 14.0566 11.2496 13.0464 10.0999C11.7704 8.65669 10.2144 7.45189 8.42158 6.52229C8.36684 6.4927 8.30676 6.4743 8.24484 6.46816C8.18292 6.46203 8.1204 6.46828 8.06092 6.48656C8.00144 6.50484 7.9462 6.53477 7.89841 6.57462C7.85062 6.61446 7.81123 6.66343 7.78256 6.71865C7.75389 6.77387 7.73649 6.83425 7.7314 6.89626C7.7263 6.95828 7.73359 7.02069 7.75286 7.07985C7.77213 7.13902 7.80299 7.19375 7.84363 7.24087C7.88427 7.28799 7.93388 7.32654 7.98958 7.35429C11.5752 9.21509 14.0512 12.1327 15.3576 16.0303H0.468777C0.407213 16.0303 0.346252 16.0424 0.289375 16.066C0.232497 16.0895 0.180817 16.1241 0.137285 16.1676C0.0937529 16.2111 0.0592213 16.2628 0.0356619 16.3197C0.0121025 16.3766 -2.33487e-05 16.4375 -2.33487e-05 16.4991C-2.33487e-05 16.5607 0.0121025 16.6216 0.0356619 16.6785C0.0592213 16.7354 0.0937529 16.7871 0.137285 16.8306C0.180817 16.8741 0.232497 16.9086 0.289375 16.9322C0.346252 16.9558 0.407213 16.9679 0.468777 16.9679H15.5312V32.0303C15.5312 32.1546 15.5806 32.2739 15.6685 32.3618C15.7564 32.4497 15.8756 32.4991 16 32.4991C16.1243 32.4991 16.2435 32.4497 16.3315 32.3618C16.4194 32.2739 16.4688 32.1546 16.4688 32.0303V19.0703C17.2265 20.7252 18.2678 22.2349 19.5456 23.5311C21.02 25.0191 22.8128 26.2143 24.8736 27.0831C28.3608 28.5551 31.3816 28.5839 31.5288 28.5847H31.5312C31.6555 28.5849 31.7748 28.5357 31.8629 28.4479C31.951 28.3602 32.0006 28.241 32.0008 28.1167C32.001 27.9924 31.9518 27.873 31.864 27.785C31.7763 27.6969 31.6571 27.6473 31.5328 27.6471V27.6479ZM0.467177 5.35189C0.491177 5.35189 2.99518 5.37509 5.97758 6.47029C6.03561 6.49269 6.09753 6.50332 6.15971 6.50155C6.2219 6.49978 6.28311 6.48565 6.33978 6.45999C6.39644 6.43432 6.44744 6.39764 6.48979 6.35207C6.53214 6.3065 6.56499 6.25295 6.58644 6.19456C6.60788 6.13616 6.6175 6.07408 6.61471 6.01194C6.61192 5.94979 6.59679 5.88882 6.57021 5.83258C6.54362 5.77633 6.5061 5.72595 6.45985 5.68435C6.41359 5.64275 6.35952 5.61078 6.30078 5.59029C3.16638 4.43829 0.596777 4.41429 0.471177 4.41429H0.468777L0.420777 4.41669L0.399977 4.41989L0.373577 4.42389H0.371977C0.258164 4.44728 0.157094 4.51211 0.0883663 4.60579C0.0196382 4.69948 -0.0118502 4.81535 7.17468e-06 4.93093C0.0118646 5.04652 0.0662229 5.15358 0.152541 5.23136C0.238859 5.30914 0.350985 5.35209 0.467177 5.35189Z" fill="#04080F"/>
<path d="M18.9542 15.0744H20.9966C21.903 15.0717 22.781 14.7574 23.4831 14.184C24.1852 13.6107 24.6688 12.8132 24.8526 11.9256L25.531 8.6024H27.911C28.0351 8.6024 28.1543 8.55312 28.2422 8.46537C28.3301 8.37763 28.3795 8.25859 28.3797 8.1344V5.8224C28.3797 5.76084 28.3676 5.69988 28.3441 5.643C28.3205 5.58612 28.286 5.53444 28.2424 5.49091C28.1989 5.44738 28.1472 5.41284 28.0904 5.38929C28.0335 5.36573 27.9725 5.3536 27.911 5.3536H26.1942L26.2206 5.2232C26.3065 4.80751 26.5329 4.43406 26.8617 4.16557C27.1905 3.89709 27.6017 3.74992 28.0262 3.7488H29.1245C29.2489 3.7488 29.3681 3.69941 29.456 3.61149C29.544 3.52357 29.5934 3.40433 29.5934 3.28V0.968C29.5931 0.843805 29.5437 0.724769 29.4558 0.637025C29.3679 0.549281 29.2487 0.5 29.1245 0.5H28.0262C26.6702 0.5 25.3438 1.06 24.3878 2.036C24.3038 2.12538 24.2582 2.24409 24.2608 2.36668C24.2634 2.48927 24.3138 2.60598 24.4014 2.69179C24.489 2.7776 24.6067 2.82567 24.7293 2.82571C24.852 2.82575 24.9697 2.77775 25.0574 2.692C25.4447 2.29703 25.9065 1.98279 26.4161 1.76747C26.9257 1.55216 27.4729 1.44004 28.0262 1.4376H28.6558V2.8112H28.0262C27.3858 2.81296 26.7656 3.03496 26.2696 3.43992C25.7736 3.84489 25.432 4.40817 25.3022 5.0352L25.1606 5.7288C25.1467 5.79689 25.1481 5.86721 25.1648 5.93468C25.1814 6.00215 25.2128 6.06507 25.2568 6.1189C25.3007 6.17272 25.3561 6.2161 25.4189 6.2459C25.4816 6.2757 25.5503 6.29118 25.6198 6.2912H27.4422V7.6656H25.1486C25.0405 7.66541 24.9356 7.70258 24.8518 7.77081C24.768 7.83904 24.7103 7.93413 24.6886 8.04L23.9342 11.7384C23.7944 12.4148 23.4261 13.0224 22.8911 13.4593C22.3562 13.8962 21.6872 14.1357 20.9966 14.1376H19.423V12.7632H20.9966C21.3706 12.7619 21.7329 12.6321 22.0227 12.3956C22.3125 12.1591 22.5123 11.8302 22.5886 11.464L23.2486 8.228C23.2624 8.15991 23.261 8.08959 23.2443 8.02212C23.2277 7.95465 23.1963 7.89173 23.1523 7.8379C23.1084 7.78408 23.053 7.74069 22.9902 7.7109C22.9275 7.6811 22.8588 7.66562 22.7894 7.6656H21.4454V6.2912H23.2614C23.3692 6.29102 23.4736 6.25368 23.5571 6.18549C23.6406 6.11729 23.698 6.0224 23.7198 5.9168L23.9558 4.7608C23.9798 4.644 24.0094 4.5272 24.0422 4.4144C24.0621 4.35474 24.0698 4.29168 24.0648 4.22898C24.0598 4.16628 24.0423 4.10522 24.0132 4.04944C23.9842 3.99366 23.9442 3.94429 23.8956 3.90429C23.8471 3.86428 23.791 3.83445 23.7307 3.81657C23.6704 3.79869 23.6071 3.79312 23.5446 3.80021C23.4822 3.80729 23.4217 3.82688 23.367 3.8578C23.3122 3.88873 23.2642 3.93036 23.2259 3.98021C23.1875 4.03007 23.1596 4.08713 23.1438 4.148C23.1022 4.28828 23.0667 4.43028 23.0374 4.5736L22.8782 5.3544H20.9766C20.8525 5.35461 20.7336 5.40399 20.6459 5.49171C20.5581 5.57943 20.5088 5.69834 20.5086 5.8224V8.1344C20.5086 8.3928 20.7182 8.6032 20.9766 8.6032H22.215L21.6694 11.276C21.6372 11.4309 21.5529 11.57 21.4304 11.6701C21.3079 11.7701 21.1547 11.825 20.9966 11.8256H18.9542C18.8298 11.8256 18.7106 11.875 18.6227 11.9629C18.5347 12.0508 18.4854 12.1701 18.4854 12.2944V14.6064C18.4854 14.8648 18.6958 15.0744 18.9542 15.0744Z" fill="#04080F"/>
</g>
</g>
</g>
</g>
<defs>
<clipPath id="clip0_6002_5848">
<rect width="32" height="32" fill="white" transform="translate(0 0.5)"/>
</clipPath>
<clipPath id="clip1_6002_5848">
<rect width="32" height="32" fill="white" transform="translate(0 0.5)"/>
</clipPath>
<clipPath id="clip2_6002_5848">
<rect width="32" height="32" fill="white" transform="translate(0 0.5)"/>
</clipPath>
</defs>
</svg>
