<svg width="32" height="33" viewBox="0 0 32 33" fill="none" xmlns="http://www.w3.org/2000/svg">
<g clip-path="url(#clip0_6002_5871)">
<g clip-path="url(#clip1_6002_5871)">
<g clip-path="url(#clip2_6002_5871)">
<mask id="mask0_6002_5871" style="mask-type:luminance" maskUnits="userSpaceOnUse" x="0" y="0" width="32" height="33">
<path d="M0.390137 0.890137H31.6096V32.1096H0.390137V0.890137Z" fill="white"/>
</mask>
<g mask="url(#mask0_6002_5871)">
<path d="M2.47316 32.1096H24.3268C24.8788 32.1094 25.408 31.89 25.7982 31.4997C26.1884 31.1094 26.4076 30.58 26.4076 30.0281V10.8531L31.1428 6.11394C31.2904 5.9681 31.4076 5.79443 31.4875 5.60298C31.5675 5.41153 31.6087 5.20611 31.6087 4.99862C31.6087 4.79114 31.5675 4.58572 31.4875 4.39427C31.4076 4.20282 31.2904 4.02914 31.1428 3.88331L29.6583 2.39648C29.5123 2.24884 29.3383 2.13169 29.1466 2.05183C28.9548 1.97198 28.7492 1.93101 28.5415 1.93131H28.536C28.3298 1.93143 28.1256 1.97262 27.9354 2.05249C27.7453 2.13236 27.573 2.24929 27.4285 2.39648L25.9978 3.82633C25.8052 3.56367 25.5539 3.34962 25.2639 3.20124C24.9739 3.05287 24.6533 2.97426 24.3276 2.9717H22.7666V2.45111C22.7666 2.03712 22.6022 1.64008 22.3094 1.34734C22.0167 1.0546 21.6196 0.890137 21.2057 0.890137C20.7917 0.890137 20.3946 1.0546 20.1019 1.34734C19.8091 1.64008 19.6447 2.03712 19.6447 2.45111V2.9717H17.5631V2.45111C17.5631 2.03712 17.3987 1.64008 17.1059 1.34734C16.8132 1.0546 16.4161 0.890137 16.0021 0.890137C15.5881 0.890137 15.1911 1.0546 14.8984 1.34734C14.6056 1.64008 14.4412 2.03712 14.4412 2.45111V2.9717H12.3596V2.45111C12.3596 2.03712 12.1951 1.64008 11.9024 1.34734C11.6097 1.0546 11.2126 0.890137 10.7986 0.890137C10.3846 0.890137 9.98759 1.0546 9.69485 1.34734C9.40211 1.64008 9.23765 2.03712 9.23765 2.45111V2.9717H7.15687V2.45111C7.15687 2.03712 6.99241 1.64008 6.69967 1.34734C6.40693 1.0546 6.00989 0.890137 5.59589 0.890137C5.1819 0.890137 4.78486 1.0546 4.49212 1.34734C4.19938 1.64008 4.03492 2.03712 4.03492 2.45111V2.9717H2.47394C2.20059 2.9716 1.92989 3.02533 1.6773 3.12985C1.42472 3.23436 1.19519 3.3876 1.00183 3.58082C0.808465 3.77404 0.655053 4.00345 0.55035 4.25596C0.445647 4.50847 0.391704 4.77912 0.391602 5.05248V30.0281C0.391602 30.5802 0.610908 31.1096 1.00128 31.5C1.39165 31.8903 1.9211 32.1096 2.47316 32.1096ZM25.3672 30.0281C25.3672 30.6033 24.9013 31.0693 24.3268 31.0693H2.47316C2.33641 31.0694 2.20097 31.0425 2.0746 30.9902C1.94824 30.9379 1.83342 30.8612 1.73671 30.7645C1.64001 30.6678 1.56332 30.553 1.51104 30.4266C1.45875 30.3003 1.43189 30.1648 1.43199 30.0281V8.17443H21.6466L18.1984 11.6218C18.141 11.679 18.0977 11.7487 18.072 11.8256L17.112 14.7071C17.0322 14.9472 17.0208 15.2047 17.0791 15.4508C17.1374 15.697 17.2631 15.9221 17.442 16.1009C17.621 16.2797 17.8462 16.4051 18.0924 16.4632C18.3386 16.5212 18.5961 16.5096 18.8361 16.4296L21.7161 15.4696C21.7926 15.4442 21.8621 15.4012 21.919 15.344L25.3672 11.8942V30.0281ZM26.3038 4.99082L28.5516 7.23862L27.7953 7.99492L25.5491 5.74633L26.3038 4.99082ZM24.8115 6.48155L25.5686 7.23862L21.1846 11.6226C21.1321 11.6699 21.0898 11.7274 21.0602 11.7915C21.0306 11.8557 21.0144 11.9252 21.0126 11.9958C21.0108 12.0665 21.0233 12.1367 21.0495 12.2023C21.0757 12.268 21.1149 12.3276 21.1649 12.3775C21.2149 12.4275 21.2745 12.4667 21.3401 12.4929C21.4057 12.5191 21.476 12.5317 21.5466 12.5298C21.6172 12.528 21.6867 12.5118 21.7509 12.4822C21.815 12.4527 21.8725 12.4103 21.9198 12.3578L26.3038 7.97306L27.0593 8.72858L21.553 14.2388L19.3028 11.9895L24.8115 6.48155ZM18.7939 12.9518L20.5906 14.7477L18.5091 15.4423C18.4523 15.4603 18.3917 15.4624 18.3339 15.4484C18.2761 15.4343 18.2232 15.4047 18.181 15.3627C18.1388 15.3207 18.109 15.2679 18.0947 15.2101C18.0805 15.1523 18.0823 15.0917 18.1001 15.0349L18.7939 12.951V12.9518ZM28.1676 3.12701C28.2163 3.07733 28.2745 3.03792 28.3387 3.01111C28.4029 2.9843 28.4719 2.97063 28.5415 2.97092C28.6843 2.97092 28.8217 3.02867 28.9216 3.13092L30.4092 4.61853C30.4602 4.66816 30.5007 4.7275 30.5285 4.79304C30.5562 4.85858 30.5706 4.92901 30.5707 5.00019C30.5708 5.06962 30.557 5.13837 30.5302 5.20242C30.5034 5.26648 30.4641 5.32455 30.4146 5.37326L29.2907 6.49716L27.0414 4.25404L28.1676 3.12701ZM20.6851 2.45111C20.6824 2.3811 20.6938 2.31127 20.7187 2.24579C20.7436 2.18031 20.7815 2.12054 20.8301 2.07005C20.8787 2.01955 20.9369 1.97939 21.0014 1.95195C21.0659 1.92452 21.1352 1.91037 21.2053 1.91037C21.2753 1.91037 21.3447 1.92452 21.4091 1.95195C21.4736 1.97939 21.5319 2.01955 21.5804 2.07005C21.629 2.12054 21.6669 2.18031 21.6918 2.24579C21.7167 2.31127 21.7282 2.3811 21.7255 2.45111V4.53267C21.7282 4.60268 21.7167 4.67252 21.6918 4.738C21.6669 4.80348 21.629 4.86325 21.5804 4.91374C21.5319 4.96423 21.4736 5.0044 21.4091 5.03183C21.3447 5.05927 21.2753 5.07341 21.2053 5.07341C21.1352 5.07341 21.0659 5.05927 21.0014 5.03183C20.9369 5.0044 20.8787 4.96423 20.8301 4.91374C20.7815 4.86325 20.7436 4.80348 20.7187 4.738C20.6938 4.67252 20.6824 4.60268 20.6851 4.53267V2.45111ZM15.4816 2.45111C15.4816 2.31304 15.5364 2.18063 15.634 2.083C15.7317 1.98537 15.8641 1.93053 16.0021 1.93053C16.1402 1.93053 16.2726 1.98537 16.3702 2.083C16.4679 2.18063 16.5227 2.31304 16.5227 2.45111V4.53267C16.5227 4.60104 16.5093 4.66873 16.4831 4.73189C16.4569 4.79505 16.4186 4.85244 16.3702 4.90078C16.3219 4.94912 16.2645 4.98747 16.2014 5.01363C16.1382 5.03979 16.0705 5.05326 16.0021 5.05326C15.9338 5.05326 15.8661 5.03979 15.8029 5.01363C15.7398 4.98747 15.6824 4.94912 15.634 4.90078C15.5857 4.85244 15.5473 4.79505 15.5212 4.73189C15.495 4.66873 15.4816 4.60104 15.4816 4.53267V2.45111ZM10.2788 2.45111C10.2761 2.3811 10.2876 2.31127 10.3125 2.24579C10.3374 2.18031 10.3753 2.12054 10.4238 2.07005C10.4724 2.01955 10.5307 1.97939 10.5952 1.95195C10.6596 1.92452 10.729 1.91037 10.799 1.91037C10.8691 1.91037 10.9384 1.92452 11.0029 1.95195C11.0673 1.97939 11.1256 2.01955 11.1742 2.07005C11.2228 2.12054 11.2606 2.18031 11.2856 2.24579C11.3105 2.31127 11.3219 2.3811 11.3192 2.45111V4.53267C11.314 4.66715 11.2569 4.79439 11.1599 4.88769C11.0629 4.98099 10.9336 5.03311 10.799 5.03311C10.6644 5.03311 10.5351 4.98099 10.4381 4.88769C10.3411 4.79439 10.284 4.66715 10.2788 4.53267V2.45111ZM5.07453 2.45111C5.07974 2.31663 5.13682 2.1894 5.23381 2.0961C5.3308 2.0028 5.46015 1.95068 5.59472 1.95068C5.7293 1.95068 5.85865 2.0028 5.95564 2.0961C6.05262 2.1894 6.10971 2.31663 6.11492 2.45111V4.53267C6.10971 4.66715 6.05262 4.79439 5.95564 4.88769C5.85865 4.98099 5.7293 5.03311 5.59472 5.03311C5.46015 5.03311 5.3308 4.98099 5.23381 4.88769C5.13682 4.79439 5.07974 4.66715 5.07453 4.53267V2.45111ZM2.47316 4.01209H4.03414V4.53267C4.03414 4.94667 4.1986 5.34371 4.49134 5.63645C4.78408 5.92919 5.18112 6.09365 5.59511 6.09365C6.00911 6.09365 6.40615 5.92919 6.69889 5.63645C6.99163 5.34371 7.15609 4.94667 7.15609 4.53267V4.01209H9.23687V4.53267C9.23687 4.94667 9.40133 5.34371 9.69407 5.63645C9.98681 5.92919 10.3838 6.09365 10.7978 6.09365C11.2118 6.09365 11.6089 5.92919 11.9016 5.63645C12.1944 5.34371 12.3588 4.94667 12.3588 4.53267V4.01209H14.4404V4.53267C14.4404 4.94667 14.6048 5.34371 14.8976 5.63645C15.1903 5.92919 15.5874 6.09365 16.0014 6.09365C16.4154 6.09365 16.8124 5.92919 17.1051 5.63645C17.3979 5.34371 17.5623 4.94667 17.5623 4.53267V4.01209H19.6439V4.53267C19.6439 4.94667 19.8084 5.34371 20.1011 5.63645C20.3938 5.92919 20.7909 6.09365 21.2049 6.09365C21.6189 6.09365 22.0159 5.92919 22.3086 5.63645C22.6014 5.34371 22.7658 4.94667 22.7658 4.53267V4.01209H24.3268C24.7147 4.01443 25.0691 4.23141 25.2478 4.5756L22.6886 7.13404H1.43199V5.05248C1.43199 4.47804 1.89794 4.01209 2.47394 4.01209H2.47316Z" fill="#04080F"/>
<path fill-rule="evenodd" clip-rule="evenodd" d="M9.57115 18.7018C9.51859 18.6579 9.4579 18.6249 9.39257 18.6046C9.32724 18.5842 9.25854 18.577 9.1904 18.5832C9.12226 18.5895 9.05602 18.6091 8.99546 18.6409C8.93491 18.6728 8.88123 18.7163 8.83749 18.7689L6.63651 21.4108L4.43476 18.7689C4.34647 18.6627 4.21962 18.5959 4.0821 18.5833C3.94459 18.5706 3.80768 18.6131 3.70149 18.7014C3.5953 18.7896 3.52853 18.9165 3.51587 19.054C3.50321 19.1915 3.54569 19.3284 3.63398 19.4346L5.95983 22.2233L3.63398 25.0128C3.54569 25.119 3.50321 25.2559 3.51587 25.3934C3.52853 25.5309 3.5953 25.6578 3.70149 25.746C3.80768 25.8343 3.94459 25.8768 4.0821 25.8642C4.21962 25.8515 4.34647 25.7847 4.43476 25.6785L6.63573 23.0366L8.83749 25.6785C8.88051 25.7332 8.93405 25.7787 8.99494 25.8123C9.05583 25.8459 9.12285 25.867 9.19202 25.8743C9.2612 25.8816 9.33113 25.8749 9.3977 25.8547C9.46426 25.8345 9.5261 25.8012 9.57957 25.7567C9.63303 25.7122 9.67704 25.6575 9.70899 25.5957C9.74094 25.5339 9.76018 25.4663 9.76558 25.397C9.77098 25.3276 9.76242 25.2579 9.74042 25.1919C9.71842 25.1259 9.68342 25.065 9.63749 25.0128L7.31319 22.2233L9.63749 19.4346C9.7259 19.3287 9.76866 19.192 9.75637 19.0546C9.74408 18.9172 9.67774 18.7903 9.57193 18.7018H9.57115ZM15.4818 22.7439H11.3194C11.2494 22.7412 11.1796 22.7526 11.1141 22.7776C11.0486 22.8025 10.9889 22.8404 10.9384 22.8889C10.8879 22.9375 10.8477 22.9958 10.8203 23.0602C10.7928 23.1247 10.7787 23.194 10.7787 23.2641C10.7787 23.3342 10.7928 23.4035 10.8203 23.468C10.8477 23.5324 10.8879 23.5907 10.9384 23.6393C10.9889 23.6878 11.0486 23.7257 11.1141 23.7506C11.1796 23.7756 11.2494 23.787 11.3194 23.7843H15.4818C15.6163 23.7791 15.7435 23.722 15.8368 23.625C15.9301 23.528 15.9822 23.3987 15.9822 23.2641C15.9822 23.1295 15.9301 23.0002 15.8368 22.9032C15.7435 22.8062 15.6163 22.7491 15.4818 22.7439ZM15.4818 20.6623H11.3194C11.1814 20.6623 11.049 20.7172 10.9513 20.8148C10.8537 20.9124 10.7989 21.0449 10.7989 21.1829C10.7989 21.321 10.8537 21.4534 10.9513 21.551C11.049 21.6487 11.1814 21.7035 11.3194 21.7035H15.4818C15.6198 21.7035 15.7523 21.6487 15.8499 21.551C15.9475 21.4534 16.0024 21.321 16.0024 21.1829C16.0024 21.0449 15.9475 20.9124 15.8499 20.8148C15.7523 20.7172 15.6198 20.6623 15.4818 20.6623ZM17.963 18.7689C17.8747 18.6627 17.7478 18.5959 17.6103 18.5833C17.4728 18.5706 17.3359 18.6131 17.2297 18.7014C17.1235 18.7896 17.0567 18.9165 17.0441 19.054C17.0314 19.1915 17.0739 19.3284 17.1622 19.4346L19.6441 22.4122V25.3453C19.6493 25.4797 19.7064 25.607 19.8034 25.7003C19.9004 25.7936 20.0297 25.8457 20.1643 25.8457C20.2989 25.8457 20.4282 25.7936 20.5252 25.7003C20.6222 25.607 20.6793 25.4797 20.6845 25.3453V22.4122L23.1665 19.4346C23.2102 19.3821 23.2431 19.3214 23.2634 19.2561C23.2836 19.1908 23.2908 19.1221 23.2846 19.054C23.2783 18.9859 23.2587 18.9197 23.2268 18.8592C23.195 18.7987 23.1515 18.7451 23.099 18.7014C23.0464 18.6576 22.9857 18.6247 22.9204 18.6045C22.8551 18.5842 22.7864 18.577 22.7183 18.5833C22.6502 18.5895 22.5841 18.6091 22.5235 18.641C22.463 18.6728 22.4094 18.7163 22.3657 18.7689L20.1647 21.4108L17.963 18.7689Z" fill="#04080F"/>
</g>
</g>
</g>
</g>
<defs>
<clipPath id="clip0_6002_5871">
<rect width="32" height="32" fill="white" transform="translate(0 0.5)"/>
</clipPath>
<clipPath id="clip1_6002_5871">
<rect width="32" height="32" fill="white" transform="translate(0 0.5)"/>
</clipPath>
<clipPath id="clip2_6002_5871">
<rect width="32" height="31.2195" fill="white" transform="translate(0 0.890137)"/>
</clipPath>
</defs>
</svg>
