<svg width="48" height="39" viewBox="0 0 48 39" fill="none" xmlns="http://www.w3.org/2000/svg">
<path d="M25.8326 4.73823C23.034 4.41221 5.88994 1.20277 3.78563 4.42022C2.30677 6.68136 3.36965 12.2563 3.36965 14.8086C3.36965 19.1483 3.44347 23.4441 4.09762 27.7411C4.54826 30.7014 4.99852 33.3594 8.25742 33.3594C15.1408 33.3594 21.9764 33.0338 28.7444 34.5254C35.9341 36.11 38 38.1528 38 30.2852C38 23.548 37.1631 17.5367 36.3361 10.8865C36.0349 8.46488 37.3269 4.73823 34.2562 4.73823C30.5124 4.73823 26.7685 4.73823 23.0247 4.73823" stroke="#0072FA" stroke-opacity="0.2" stroke-width="5" stroke-linecap="round"/>
<path d="M8 21.4061C12.0951 25.5723 17.1091 33.8504 22.268 27.9435C29.4194 19.755 37.4863 12.8122 45 5" stroke="#1D0A42" stroke-width="6" stroke-linecap="round"/>
</svg>
