<svg width="148" height="148" viewBox="0 0 148 148" fill="none" xmlns="http://www.w3.org/2000/svg">
<path d="M115.625 18.5H13.875C10.1951 18.5 6.66596 19.9618 4.06389 22.5639C1.46183 25.166 0 28.6951 0 32.375L0 97.125C0 100.805 1.46183 104.334 4.06389 106.936C6.66596 109.538 10.1951 111 13.875 111H115.625C119.305 111 122.834 109.538 125.436 106.936C128.038 104.334 129.5 100.805 129.5 97.125V32.375C129.5 28.6951 128.038 25.166 125.436 22.5639C122.834 19.9618 119.305 18.5 115.625 18.5ZM120.25 97.125C120.25 98.3516 119.763 99.528 118.895 100.395C118.028 101.263 116.852 101.75 115.625 101.75H13.875C12.6484 101.75 11.472 101.263 10.6046 100.395C9.73728 99.528 9.25 98.3516 9.25 97.125V32.375C9.25 31.1484 9.73728 29.972 10.6046 29.1046C11.472 28.2373 12.6484 27.75 13.875 27.75H115.625C116.852 27.75 118.028 28.2373 118.895 29.1046C119.763 29.972 120.25 31.1484 120.25 32.375V97.125Z" fill="#FF0049" fill-opacity="0.15"/>
<path d="M55.9163 60.8186C57.8974 58.8947 59.2593 56.4234 59.8278 53.7211C60.3963 51.0187 60.1455 48.2081 59.1074 45.6491C58.0693 43.0901 56.2913 40.8991 54.0008 39.3564C51.7103 37.8138 49.0115 36.9897 46.25 36.9897C43.4885 36.9897 40.7897 37.8138 38.4992 39.3564C36.2087 40.8991 34.4307 43.0901 33.3926 45.6491C32.3545 48.2081 32.1037 51.0187 32.6722 53.7211C33.2407 56.4234 34.6026 58.8947 36.5837 60.8186C26.27 63.5936 18.5 74.6473 18.5 87.8748C18.5 89.1015 18.9873 90.2779 19.8546 91.1452C20.722 92.0126 21.8984 92.4998 23.125 92.4998C24.3516 92.4998 25.528 92.0126 26.3954 91.1452C27.2627 90.2779 27.75 89.1015 27.75 87.8748C27.75 77.6536 33.9938 69.3748 41.625 69.3748H50.875C58.5062 69.3748 64.75 77.6536 64.75 87.8748C64.75 89.1015 65.2373 90.2779 66.1046 91.1452C66.972 92.0126 68.1484 92.4998 69.375 92.4998C70.6016 92.4998 71.778 92.0126 72.6454 91.1452C73.5127 90.2779 74 89.1015 74 87.8748C74 74.6473 66.23 63.5936 55.9163 60.8186ZM46.25 46.2499C47.1647 46.2499 48.0589 46.5211 48.8195 47.0293C49.5801 47.5375 50.1729 48.2598 50.5229 49.1049C50.873 49.95 50.9646 50.88 50.7861 51.7771C50.6077 52.6743 50.1672 53.4984 49.5204 54.1452C48.8736 54.792 48.0495 55.2325 47.1523 55.411C46.2551 55.5894 45.3252 55.4978 44.4801 55.1478C43.635 54.7977 42.9127 54.2049 42.4045 53.4444C41.8963 52.6838 41.625 51.7896 41.625 50.8748C41.625 49.6482 42.1123 48.4718 42.9796 47.6045C43.847 46.7371 45.0234 46.2499 46.25 46.2499Z" fill="#FF0049" fill-opacity="0.15"/>
<path d="M106.375 37H92.5C91.2734 37 90.097 37.4873 89.2296 38.3546C88.3623 39.222 87.875 40.3984 87.875 41.625C87.875 42.8516 88.3623 44.028 89.2296 44.8954C90.097 45.7627 91.2734 46.25 92.5 46.25H106.375C107.602 46.25 108.778 45.7627 109.645 44.8954C110.513 44.028 111 42.8516 111 41.625C111 40.3984 110.513 39.222 109.645 38.3546C108.778 37.4873 107.602 37 106.375 37Z" fill="#FF0049" fill-opacity="0.15"/>
<path d="M106.375 55.5H78.625C77.3984 55.5 76.222 55.9873 75.3546 56.8546C74.4873 57.722 74 58.8984 74 60.125C74 61.3516 74.4873 62.528 75.3546 63.3954C76.222 64.2627 77.3984 64.75 78.625 64.75H106.375C107.602 64.75 108.778 64.2627 109.645 63.3954C110.513 62.528 111 61.3516 111 60.125C111 58.8984 110.513 57.722 109.645 56.8546C108.778 55.9873 107.602 55.5 106.375 55.5Z" fill="#FF0049" fill-opacity="0.15"/>
<path d="M106.375 74H92.5C91.2734 74 90.097 74.4873 89.2296 75.3546C88.3623 76.222 87.875 77.3984 87.875 78.625C87.875 79.8516 88.3623 81.028 89.2296 81.8954C90.097 82.7627 91.2734 83.25 92.5 83.25H106.375C107.602 83.25 108.778 82.7627 109.645 81.8954C110.513 81.028 111 79.8516 111 78.625C111 77.3984 110.513 76.222 109.645 75.3546C108.778 74.4873 107.602 74 106.375 74Z" fill="#FF0049" fill-opacity="0.15"/>
<path d="M115.625 120.25H13.875C10.1951 120.25 6.66596 121.712 4.06389 124.314C1.46183 126.916 0 130.445 0 134.125C0 137.805 1.46183 141.334 4.06389 143.936C6.66596 146.538 10.1951 148 13.875 148H115.625C119.305 148 122.834 146.538 125.436 143.936C128.038 141.334 129.5 137.805 129.5 134.125C129.5 130.445 128.038 126.916 125.436 124.314C122.834 121.712 119.305 120.25 115.625 120.25ZM115.625 138.75H13.875C12.6484 138.75 11.472 138.263 10.6046 137.395C9.73728 136.528 9.25 135.352 9.25 134.125C9.25 132.898 9.73728 131.722 10.6046 130.855C11.472 129.987 12.6484 129.5 13.875 129.5H115.625C116.852 129.5 118.028 129.987 118.895 130.855C119.763 131.722 120.25 132.898 120.25 134.125C120.25 135.352 119.763 136.528 118.895 137.395C118.028 138.263 116.852 138.75 115.625 138.75Z" fill="#FF0049" fill-opacity="0.15"/>
</svg>
