<svg width="536" height="420" viewBox="0 0 536 420" fill="none" xmlns="http://www.w3.org/2000/svg">
<g filter="url(#filter0_dd_2010_22)">
<path d="M141.819 33.9878C142.204 22.9489 151.465 14.3125 162.504 14.698L280.963 18.8347C289.593 19.136 297.054 24.9414 299.468 33.2318L303.887 48.4102C306.301 56.7006 313.762 62.5059 322.392 62.8073L500.814 69.0379C511.853 69.4234 520.489 78.6848 520.104 89.7237L511.466 337.073C511.081 348.112 501.819 356.748 490.78 356.363L150.988 344.497C139.949 344.111 131.312 334.85 131.698 323.811L141.819 33.9878Z" fill="#8F6DD2"/>
</g>
<path d="M174.485 43.0353L175.033 28.3971L184.314 28.7446L184.229 31.0086L177.525 30.7576L177.38 34.6123L183.694 34.8488L183.61 37.103L177.296 36.8666L177.146 40.8677L183.948 41.1224L183.863 43.3864L174.485 43.0353ZM188.772 43.5702L186.371 43.4803L186.919 28.8422L189.32 28.9321L188.967 38.3688L189.895 37.3188L193.314 33.9678L196.329 34.0808L192.089 38.2414L196.481 43.8589L193.388 43.7431L190.372 39.7309L188.864 41.111L188.772 43.5702ZM202.407 44.2762C201.418 44.2392 200.539 43.9848 199.768 43.5129C199.004 43.0413 198.408 42.4163 197.981 41.6381C197.561 40.8536 197.369 39.9767 197.406 39.0073C197.442 38.0379 197.699 37.181 198.176 36.4367C198.66 35.686 199.301 35.1041 200.098 34.6909C200.902 34.278 201.798 34.0901 202.787 34.1271C203.783 34.1644 204.662 34.4188 205.427 34.8905C206.191 35.3621 206.78 35.99 207.193 36.7743C207.614 37.5523 207.806 38.426 207.769 39.3953C207.733 40.3647 207.476 41.2248 206.999 41.9757C206.528 42.7203 205.894 43.2992 205.096 43.7124C204.299 44.1256 203.403 44.3135 202.407 44.2762ZM202.478 42.1192C202.999 42.1387 203.469 42.0292 203.888 41.7908C204.307 41.5525 204.642 41.2165 204.893 40.7828C205.151 40.3494 205.29 39.853 205.311 39.2935C205.331 38.7405 205.229 38.2415 205.005 37.7966C204.787 37.3455 204.478 36.9854 204.078 36.7163C203.678 36.4472 203.217 36.3029 202.697 36.2834C202.183 36.2642 201.713 36.3736 201.287 36.6118C200.868 36.8502 200.529 37.186 200.272 37.6194C200.022 38.0465 199.886 38.5366 199.865 39.0896C199.844 39.6491 199.943 40.1544 200.16 40.6056C200.384 41.057 200.697 41.4173 201.097 41.6863C201.504 41.9557 201.964 42.0999 202.478 42.1192ZM219.053 44.7041L216.653 44.6142L216.85 39.3542C216.879 38.567 216.704 37.9415 216.324 37.4777C215.95 37.0142 215.415 36.7694 214.719 36.7434C214.231 36.7251 213.794 36.8227 213.409 37.0363C213.023 37.2434 212.715 37.5511 212.485 37.9594C212.254 38.3678 212.129 38.8484 212.108 39.4014L211.92 44.437L209.519 44.3471L209.884 34.5883L211.865 34.6625L211.885 36.2366C212.257 35.6772 212.752 35.2592 213.368 34.9826C213.985 34.6995 214.68 34.5724 215.454 34.6014C216.684 34.6474 217.639 35.0578 218.32 35.8325C219.001 36.6073 219.318 37.6452 219.269 38.9464L219.053 44.7041ZM225.985 45.159C224.996 45.122 224.116 44.8676 223.345 44.3957C222.581 43.9241 221.986 43.2991 221.559 42.5209C221.138 41.7364 220.947 40.8595 220.983 39.8901C221.019 38.9207 221.276 38.0638 221.753 37.3195C222.238 36.5688 222.878 35.9869 223.676 35.5738C224.479 35.1608 225.376 34.9729 226.365 35.0099C227.36 35.0472 228.24 35.3016 229.004 35.7733C229.768 36.2449 230.357 36.8728 230.771 37.6571C231.191 38.4351 231.383 39.3088 231.347 40.2781C231.31 41.2475 231.053 42.1076 230.576 42.8585C230.105 43.6031 229.471 44.182 228.674 44.5952C227.876 45.0084 226.98 45.1963 225.985 45.159ZM226.056 43.002C226.576 43.0215 227.046 42.912 227.465 42.6736C227.885 42.4353 228.22 42.0993 228.47 41.6656C228.728 41.2322 228.867 40.7358 228.888 40.1763C228.909 39.6233 228.807 39.1244 228.582 38.6794C228.365 38.2283 228.056 37.8682 227.655 37.5991C227.255 37.33 226.794 37.1857 226.274 37.1662C225.76 37.147 225.29 37.2564 224.864 37.4946C224.445 37.733 224.107 38.0688 223.849 38.5022C223.599 38.9293 223.463 39.4194 223.442 39.9724C223.421 40.5319 223.52 41.0372 223.737 41.4884C223.962 41.9398 224.274 42.3001 224.674 42.5691C225.081 42.8385 225.542 42.9827 226.056 43.002ZM248.837 45.8193L246.436 45.7294L246.624 40.7231C246.657 39.8383 246.497 39.145 246.145 38.6432C245.799 38.1351 245.291 37.8685 244.621 37.8434C243.944 37.8181 243.405 38.0455 243.002 38.5255C242.607 39.0059 242.392 39.6852 242.359 40.5634L242.172 45.5697L239.771 45.4798L239.959 40.4736C239.992 39.5888 239.832 38.8955 239.48 38.3936C239.127 37.8853 238.619 37.6187 237.956 37.5939C237.273 37.5683 236.73 37.7955 236.327 38.2756C235.932 38.7559 235.717 39.4352 235.684 40.3135L235.497 45.3198L233.096 45.2299L233.462 35.4711L235.384 35.5431L235.41 37.2054C235.764 36.6127 236.221 36.1705 236.779 35.8787C237.344 35.5806 238 35.4456 238.748 35.4736C239.523 35.5026 240.183 35.6967 240.73 36.056C241.284 36.409 241.698 36.9033 241.974 37.5391C242.323 36.9137 242.787 36.449 243.365 36.1449C243.944 35.8343 244.617 35.6933 245.384 35.7221C246.588 35.7671 247.51 36.1861 248.152 36.9788C248.8 37.7654 249.099 38.8385 249.048 40.1982L248.837 45.8193ZM252.93 33.6103C252.591 33.5977 252.309 33.4698 252.084 33.2269C251.865 32.9776 251.762 32.6838 251.775 32.3455C251.787 32.0137 251.912 31.735 252.148 31.5093C252.392 31.2774 252.682 31.1677 253.021 31.1804C253.365 31.1933 253.65 31.3245 253.876 31.574C254.101 31.817 254.208 32.1044 254.195 32.4362C254.182 32.7745 254.055 33.0596 253.811 33.2915C253.568 33.517 253.274 33.6232 252.93 33.6103ZM253.668 46.0001L251.267 45.9103L251.632 36.1515L254.033 36.2414L253.668 46.0001ZM258.703 46.1887L256.303 46.0988L256.851 31.4606L259.251 31.5505L258.898 40.9873L259.827 39.9373L263.245 36.5863L266.261 36.6992L262.02 40.8599L266.413 46.4774L263.319 46.3615L260.303 42.3494L258.795 43.7295L258.703 46.1887ZM276.152 46.842L274.064 46.7638L273.972 45.5584C273.598 45.9874 273.139 46.3155 272.596 46.5428C272.054 46.7635 271.457 46.8617 270.807 46.8373C270.117 46.8115 269.507 46.6551 268.977 46.3682C268.447 46.0747 268.035 45.6879 267.74 45.2078C267.452 44.7279 267.319 44.1887 267.342 43.5902C267.365 42.9591 267.552 42.4123 267.902 41.9498C268.258 41.481 268.731 41.1209 269.32 40.8693C269.916 40.618 270.588 40.5063 271.336 40.5344C271.791 40.5514 272.245 40.6205 272.696 40.7417C273.154 40.863 273.575 41.0254 273.958 41.2287L273.97 40.9164C273.986 40.487 273.883 40.1118 273.66 39.7907C273.438 39.4697 273.131 39.2171 272.741 39.0331C272.35 38.8426 271.908 38.7381 271.414 38.7196C270.965 38.7028 270.513 38.764 270.058 38.9034C269.604 39.0362 269.175 39.2449 268.774 39.5296L268.161 37.6206C268.799 37.2991 269.446 37.0628 270.103 36.9115C270.767 36.7604 271.411 36.6966 272.036 36.72C272.953 36.7543 273.74 36.9662 274.396 37.3556C275.053 37.7385 275.551 38.2719 275.89 38.9556C276.236 39.6331 276.392 40.424 276.358 41.3283L276.152 46.842ZM271.377 44.9237C271.8 44.9396 272.193 44.8663 272.558 44.7041C272.928 44.5421 273.234 44.3092 273.473 44.0054C273.719 43.6954 273.856 43.3357 273.885 42.9263L273.889 42.819C273.591 42.5863 273.253 42.4043 272.873 42.2728C272.494 42.1348 272.109 42.0585 271.719 42.0439C271.12 42.0215 270.624 42.1397 270.23 42.3986C269.836 42.651 269.631 42.9951 269.615 43.431C269.605 43.6977 269.674 43.9446 269.822 44.1717C269.97 44.3922 270.178 44.5694 270.447 44.7032C270.722 44.8373 271.032 44.9108 271.377 44.9237Z" fill="#F4F0F1" fill-opacity="0.9"/>
<g filter="url(#filter1_dd_2010_22)">
<path d="M79.349 64.6288C79.1563 53.5848 87.9529 44.4756 98.997 44.2828L217.51 42.2141C226.143 42.0634 233.899 47.4703 236.743 55.623L241.95 70.5494C244.794 78.7021 252.55 84.109 261.183 83.9583L439.687 80.8425C450.731 80.6497 459.84 89.4464 460.033 100.49L464.352 347.953C464.545 358.997 455.748 368.106 444.704 368.299L104.756 374.233C93.7122 374.425 84.603 365.629 84.4102 354.585L79.349 64.6288Z" fill="#E65A82"/>
</g>
<path d="M123.016 72.8179L120.439 72.8666L120.231 61.8823L116.321 70.4831L114.241 70.5224L110.029 62.124L110.235 73.0595L107.658 73.1083L107.381 58.4625L110.662 58.4004L115.232 67.6809L119.439 58.2345L122.739 58.1721L123.016 72.8179ZM134.059 72.6091L131.97 72.6486L131.81 71.4502C131.461 71.8996 131.021 72.253 130.492 72.5105C129.963 72.7614 129.373 72.893 128.722 72.9053C128.032 72.9184 127.415 72.7966 126.869 72.5399C126.324 72.2767 125.89 71.9138 125.569 71.451C125.254 70.9881 125.091 70.4573 125.08 69.8584C125.068 69.227 125.224 68.6706 125.547 68.1891C125.876 67.7011 126.328 67.3148 126.902 67.0305C127.482 66.746 128.147 66.5967 128.896 66.5826C129.351 66.574 129.808 66.6174 130.266 66.7129C130.73 66.8084 131.159 66.9467 131.553 67.1281L131.547 66.8157C131.539 66.3861 131.415 66.0173 131.174 65.7093C130.934 65.4012 130.614 65.1664 130.214 65.0046C129.813 64.8364 129.366 64.7569 128.871 64.7663C128.422 64.7748 127.974 64.8614 127.528 65.0261C127.082 65.1843 126.666 65.4168 126.281 65.7236L125.562 63.8521C126.181 63.4953 126.814 63.2229 127.461 63.0348C128.115 62.8467 128.755 62.7467 129.38 62.7348C130.297 62.7175 131.095 62.8847 131.772 63.2366C132.45 63.5819 132.977 64.0863 133.354 64.7499C133.738 65.4068 133.938 66.1877 133.955 67.0925L134.059 72.6091ZM129.184 70.9627C129.607 70.9547 129.996 70.8594 130.35 70.6769C130.711 70.4943 131.003 70.2446 131.225 69.9278C131.453 69.6044 131.57 69.2376 131.575 68.8272L131.573 68.7198C131.263 68.5043 130.915 68.3416 130.529 68.2317C130.142 68.1153 129.754 68.0607 129.363 68.0681C128.764 68.0795 128.276 68.2254 127.897 68.5061C127.518 68.7802 127.332 69.1354 127.341 69.5715C127.346 69.8384 127.428 70.081 127.589 70.2993C127.749 70.5112 127.967 70.6764 128.243 70.7949C128.525 70.9133 128.839 70.9692 129.184 70.9627ZM142.598 72.1937C141.888 72.5066 141.197 72.6695 140.527 72.6821C139.843 72.6951 139.238 72.56 138.712 72.2769C138.192 71.9937 137.781 71.5945 137.478 71.0793C137.182 70.5575 137.027 69.9483 137.014 69.2518L136.932 64.9362L135.224 64.9685L135.183 62.8205L137.019 62.7857L136.973 60.3448L139.247 60.3018L139.294 62.7427L142.076 62.6901L142.117 64.8382L139.334 64.8908L139.408 68.767C139.418 69.3203 139.576 69.7536 139.881 70.0669C140.193 70.3801 140.577 70.5324 141.033 70.5237C141.436 70.5161 141.834 70.3849 142.227 70.13L142.598 72.1937ZM153.243 71.1133C152.043 72.0216 150.72 72.4894 149.275 72.5167C148.227 72.5365 147.282 72.3265 146.44 71.8866C145.599 71.4467 144.926 70.8376 144.423 70.0592C143.927 69.2807 143.669 68.3934 143.65 67.3975C143.632 66.4537 143.834 65.6066 144.256 64.8563C144.685 64.1059 145.276 63.5087 146.029 63.0647C146.789 62.6205 147.651 62.3894 148.614 62.3711C149.617 62.3522 150.5 62.5732 151.264 63.0341C152.035 63.4883 152.639 64.1313 153.078 64.963C153.517 65.7882 153.747 66.7541 153.768 67.8606L153.774 68.1731L146.256 68.3152C146.381 68.7556 146.594 69.1423 146.893 69.4753C147.199 69.8081 147.575 70.0647 148.021 70.2451C148.467 70.4255 148.967 70.5105 149.52 70.5C150.562 70.4803 151.519 70.1236 152.391 69.4299L153.243 71.1133ZM146.131 66.9111L151.521 66.8092C151.46 66.322 151.302 65.8984 151.048 65.5386C150.8 65.1786 150.479 64.9014 150.085 64.707C149.697 64.506 149.262 64.41 148.78 64.4192C148.292 64.4284 147.858 64.5408 147.478 64.7563C147.098 64.9719 146.791 65.2675 146.557 65.643C146.323 66.0121 146.181 66.4348 146.131 66.9111ZM171.543 71.9003L169.141 71.9457L169.046 66.9369C169.029 66.0516 168.831 65.3684 168.451 64.8872C168.077 64.3994 167.555 64.1618 166.884 64.1745C166.207 64.1873 165.681 64.4447 165.307 64.9467C164.939 65.4485 164.763 66.1388 164.779 67.0175L164.874 72.0264L162.472 72.0718L162.377 67.063C162.361 66.1777 162.162 65.4945 161.782 65.0133C161.402 64.5256 160.879 64.2881 160.216 64.3006C159.532 64.3135 159.003 64.571 158.628 65.0729C158.26 65.5748 158.084 66.2651 158.101 67.1438L158.196 72.1527L155.794 72.1981L155.609 62.4342L157.533 62.3979L157.652 64.0561C157.972 63.4444 158.403 62.9772 158.944 62.6544C159.491 62.325 160.139 62.1532 160.888 62.1391C161.662 62.1244 162.333 62.2811 162.899 62.609C163.471 62.9302 163.913 63.4005 164.225 64.0197C164.538 63.3756 164.975 62.8855 165.535 62.5493C166.095 62.2067 166.759 62.0281 167.527 62.0135C168.731 61.9908 169.676 62.3571 170.361 63.1125C171.052 63.8613 171.411 64.9159 171.437 66.2763L171.543 71.9003ZM182.391 71.6952L180.301 71.7347L180.142 70.5363C179.792 70.9857 179.353 71.3392 178.824 71.5966C178.294 71.8475 177.704 71.9792 177.053 71.9915C176.363 72.0045 175.746 71.8827 175.2 71.626C174.655 71.3629 174.222 70.9999 173.9 70.5372C173.586 70.0743 173.422 69.5434 173.411 68.9446C173.399 68.3132 173.555 67.7567 173.878 67.2753C174.207 66.7872 174.659 66.401 175.233 66.1166C175.814 65.8322 176.478 65.6829 177.227 65.6687C177.682 65.6601 178.139 65.7035 178.597 65.7991C179.061 65.8945 179.49 66.0329 179.884 66.2143L179.878 65.9018C179.87 65.4722 179.746 65.1034 179.506 64.7954C179.265 64.4874 178.945 64.2525 178.545 64.0908C178.145 63.9225 177.697 63.8431 177.202 63.8524C176.753 63.8609 176.305 63.9475 175.859 64.1123C175.413 64.2705 174.997 64.503 174.612 64.8098L173.893 62.9383C174.512 62.5815 175.145 62.309 175.792 62.121C176.446 61.9328 177.086 61.8328 177.711 61.821C178.629 61.8036 179.426 61.9709 180.104 62.3227C180.781 62.668 181.308 63.1725 181.685 63.836C182.069 64.493 182.269 65.2738 182.286 66.1786L182.391 71.6952ZM177.515 70.0488C177.938 70.0408 178.327 69.9456 178.681 69.763C179.043 69.5804 179.334 69.3307 179.556 69.0139C179.784 68.6906 179.901 68.3237 179.906 67.9134L179.904 67.806C179.594 67.5904 179.246 67.4277 178.86 67.3178C178.473 67.2014 178.085 67.1469 177.694 67.1543C177.096 67.1656 176.607 67.3116 176.228 67.5922C175.849 67.8664 175.663 68.2215 175.672 68.6576C175.677 68.9245 175.76 69.1671 175.92 69.3855C176.08 69.5973 176.298 69.7625 176.574 69.881C176.856 69.9994 177.17 70.0553 177.515 70.0488ZM190.929 71.2798C190.219 71.5928 189.528 71.7556 188.858 71.7683C188.174 71.7812 187.57 71.6461 187.043 71.3631C186.524 71.0799 186.112 70.6807 185.809 70.1655C185.513 69.6436 185.358 69.0345 185.345 68.338L185.264 64.0223L183.555 64.0546L183.514 61.9066L185.35 61.8719L185.304 59.4309L187.579 59.3879L187.625 61.8289L190.408 61.7763L190.448 63.9243L187.665 63.9769L187.739 67.8532C187.749 68.4065 187.907 68.8398 188.213 69.153C188.525 69.4662 188.908 69.6185 189.364 69.6099C189.768 69.6022 190.166 69.471 190.558 69.2161L190.929 71.2798ZM193.434 59.1307C193.096 59.1371 192.807 59.0253 192.568 58.7954C192.336 58.5589 192.217 58.2714 192.21 57.9329C192.204 57.6009 192.313 57.3156 192.536 57.077C192.766 56.8317 193.05 56.7059 193.388 56.6995C193.733 56.6929 194.025 56.8079 194.264 57.0443C194.503 57.2742 194.625 57.5551 194.632 57.8871C194.638 58.2256 194.526 58.5175 194.297 58.7627C194.067 59.0015 193.779 59.1241 193.434 59.1307ZM194.869 71.4593L192.467 71.5047L192.282 61.7408L194.684 61.6954L194.869 71.4593ZM199.907 71.364L197.505 71.4094L197.228 56.7636L199.63 56.7182L199.809 66.1599L200.677 65.0593L203.901 61.5211L206.918 61.4641L202.919 65.8569L207.62 71.2182L204.525 71.2767L201.288 67.4407L199.86 68.9035L199.907 71.364ZM217.365 71.0339L215.275 71.0734L215.116 69.875C214.766 70.3244 214.327 70.6779 213.798 70.9353C213.269 71.1862 212.679 71.3179 212.028 71.3302C211.338 71.3432 210.72 71.2214 210.175 70.9647C209.629 70.7016 209.196 70.3386 208.875 69.8758C208.56 69.413 208.397 68.8821 208.385 68.2832C208.373 67.6519 208.529 67.0954 208.852 66.614C209.181 66.1259 209.633 65.7397 210.207 65.4553C210.788 65.1709 211.452 65.0216 212.201 65.0074C212.657 64.9988 213.113 65.0422 213.571 65.1378C214.035 65.2332 214.464 65.3716 214.858 65.553L214.852 65.2405C214.844 64.8109 214.72 64.4421 214.48 64.1341C214.24 63.8261 213.919 63.5912 213.519 63.4295C213.119 63.2612 212.671 63.1818 212.176 63.1911C211.727 63.1996 211.28 63.2862 210.833 63.4509C210.387 63.6092 209.972 63.8417 209.587 64.1485L208.868 62.277C209.486 61.9202 210.119 61.6477 210.767 61.4597C211.421 61.2715 212.06 61.1715 212.685 61.1597C213.603 61.1423 214.4 61.3096 215.078 61.6614C215.755 62.0067 216.282 62.5112 216.659 63.1747C217.043 63.8317 217.243 64.6125 217.26 65.5173L217.365 71.0339ZM212.489 69.3875C212.912 69.3795 213.301 69.2842 213.656 69.1017C214.017 68.9191 214.308 68.6694 214.53 68.3526C214.759 68.0293 214.875 67.6624 214.881 67.2521L214.879 67.1447C214.569 66.9291 214.22 66.7664 213.834 66.6565C213.448 66.5401 213.059 66.4856 212.669 66.493C212.07 66.5043 211.581 66.6503 211.202 66.9309C210.823 67.2051 210.638 67.5602 210.646 67.9963C210.651 68.2632 210.734 68.5058 210.894 68.7242C211.054 68.936 211.272 69.1012 211.548 69.2197C211.83 69.3381 212.144 69.394 212.489 69.3875Z" fill="#F4F0F1" fill-opacity="0.9"/>
<g filter="url(#filter2_dd_2010_22)">
<path d="M10.698 95.2495C10.3125 84.2106 18.9489 74.9492 29.9878 74.5637L148.447 70.4271C157.076 70.1257 164.924 75.3964 167.911 83.4983L173.378 98.3314C176.364 106.433 184.212 111.704 192.842 111.403L371.264 105.172C382.303 104.787 391.564 113.423 391.95 124.462L400.587 371.811C400.973 382.85 392.336 392.111 381.298 392.497L41.5046 404.363C30.4657 404.748 21.2043 396.112 20.8188 385.073L10.698 95.2495Z" fill="#65ABFF"/>
</g>
<path d="M56.0069 103.252L55.4603 88.6135L64.497 88.2761L64.5815 90.5402L58.1212 90.7814L58.2651 94.6361L64.3351 94.4095L64.4193 96.6638L58.3493 96.8904L58.5832 103.156L56.0069 103.252ZM72.2423 107.532L69.6758 107.628L71.522 102.633L66.3186 93.0943L69.0218 92.9934L72.5613 99.8485L75.1894 92.7631L77.756 92.6672L72.2423 107.532ZM88.1427 102.052L78.823 102.4L78.7767 101.16L83.7992 94.6013L78.8124 94.7875L78.7319 92.6308L87.466 92.3047L87.505 93.3489L82.3435 100.109L88.0622 99.8951L88.1427 102.052ZM90.5508 89.5998C90.2125 89.6124 89.9219 89.506 89.6789 89.2805C89.4422 89.0483 89.3176 88.7631 89.3049 88.4248C89.2926 88.093 89.3958 87.8057 89.6148 87.563C89.84 87.3135 90.1218 87.1825 90.4601 87.1698C90.8049 87.157 91.0989 87.2665 91.3421 87.4985C91.5851 87.724 91.7127 88.0026 91.7251 88.3344C91.7378 88.6727 91.6315 88.9666 91.4062 89.216C91.1808 89.459 90.8956 89.5869 90.5508 89.5998ZM92.2121 101.9L89.8115 101.99L89.4471 92.2307L91.8477 92.1411L92.2121 101.9ZM97.2477 101.712L94.847 101.802L94.3004 87.1633L96.7011 87.0736L97.0535 96.5104L97.9011 95.394L101.06 91.7971L104.076 91.6845L100.157 96.1502L104.957 101.424L101.864 101.54L98.5563 97.7638L97.1558 99.2526L97.2477 101.712ZM114.696 101.06L112.608 101.138L112.427 99.9431C112.085 100.399 111.653 100.76 111.128 101.027C110.604 101.288 110.016 101.431 109.366 101.455C108.676 101.481 108.056 101.37 107.506 101.124C106.956 100.871 106.516 100.516 106.186 100.059C105.863 99.6018 105.69 99.074 105.668 98.4755C105.644 97.8444 105.79 97.2852 106.104 96.7979C106.424 96.3038 106.869 95.9094 107.437 95.6145C108.013 95.3194 108.674 95.1579 109.423 95.1299C109.878 95.1129 110.335 95.148 110.795 95.2351C111.261 95.3219 111.692 95.4524 112.09 95.6265L112.078 95.3142C112.062 94.8848 111.931 94.5183 111.685 94.2148C111.439 93.9113 111.115 93.6823 110.711 93.528C110.308 93.3672 109.859 93.296 109.365 93.3144C108.916 93.3312 108.47 93.426 108.027 93.5989C107.583 93.7653 107.172 94.0054 106.793 94.3193L106.039 92.4613C106.651 92.0932 107.279 91.8092 107.923 91.6092C108.574 91.409 109.211 91.2973 109.836 91.2739C110.753 91.2397 111.554 91.3922 112.237 91.7315C112.921 92.0643 113.457 92.559 113.846 93.2155C114.242 93.8652 114.457 94.6423 114.491 95.5466L114.696 101.06ZM109.791 99.504C110.214 99.4882 110.601 99.3858 110.952 99.1968C111.31 99.0075 111.597 98.7525 111.813 98.4317C112.035 98.1042 112.145 97.7352 112.143 97.3249L112.139 97.2175C111.825 97.0077 111.474 96.8515 111.086 96.7487C110.697 96.6394 110.308 96.5921 109.918 96.6066C109.319 96.629 108.833 96.784 108.459 97.0715C108.085 97.3526 107.907 97.7111 107.923 98.147C107.933 98.4137 108.02 98.6548 108.184 98.8702C108.349 99.079 108.57 99.2402 108.847 99.3536C109.132 99.4667 109.446 99.5169 109.791 99.504Z" fill="#F4F0F1" fill-opacity="0.9"/>
<defs>
<filter id="filter0_dd_2010_22" x="121.685" y="0.685547" width="413.431" height="370.69" filterUnits="userSpaceOnUse" color-interpolation-filters="sRGB">
<feFlood flood-opacity="0" result="BackgroundImageFix"/>
<feColorMatrix in="SourceAlpha" type="matrix" values="0 0 0 0 0 0 0 0 0 0 0 0 0 0 0 0 0 0 127 0" result="hardAlpha"/>
<feOffset dx="5" dy="5"/>
<feGaussianBlur stdDeviation="5"/>
<feComposite in2="hardAlpha" operator="out"/>
<feColorMatrix type="matrix" values="0 0 0 0 1 0 0 0 0 0 0 0 0 0 0.286275 0 0 0 0.1 0"/>
<feBlend mode="normal" in2="BackgroundImageFix" result="effect1_dropShadow_2010_22"/>
<feColorMatrix in="SourceAlpha" type="matrix" values="0 0 0 0 0 0 0 0 0 0 0 0 0 0 0 0 0 0 127 0" result="hardAlpha"/>
<feOffset dy="-4"/>
<feGaussianBlur stdDeviation="5"/>
<feComposite in2="hardAlpha" operator="out"/>
<feColorMatrix type="matrix" values="0 0 0 0 0 0 0 0 0 0.447059 0 0 0 0 0.980392 0 0 0 0.1 0"/>
<feBlend mode="normal" in2="effect1_dropShadow_2010_22" result="effect2_dropShadow_2010_22"/>
<feBlend mode="normal" in="SourceGraphic" in2="effect2_dropShadow_2010_22" result="shape"/>
</filter>
<filter id="filter1_dd_2010_22" x="69.3459" y="28.2112" width="410.01" height="361.024" filterUnits="userSpaceOnUse" color-interpolation-filters="sRGB">
<feFlood flood-opacity="0" result="BackgroundImageFix"/>
<feColorMatrix in="SourceAlpha" type="matrix" values="0 0 0 0 0 0 0 0 0 0 0 0 0 0 0 0 0 0 127 0" result="hardAlpha"/>
<feOffset dx="5" dy="5"/>
<feGaussianBlur stdDeviation="5"/>
<feComposite in2="hardAlpha" operator="out"/>
<feColorMatrix type="matrix" values="0 0 0 0 0 0 0 0 0 0.447059 0 0 0 0 0.980392 0 0 0 0.1 0"/>
<feBlend mode="normal" in2="BackgroundImageFix" result="effect1_dropShadow_2010_22"/>
<feColorMatrix in="SourceAlpha" type="matrix" values="0 0 0 0 0 0 0 0 0 0 0 0 0 0 0 0 0 0 127 0" result="hardAlpha"/>
<feOffset dy="-4"/>
<feGaussianBlur stdDeviation="5"/>
<feComposite in2="hardAlpha" operator="out"/>
<feColorMatrix type="matrix" values="0 0 0 0 0 0 0 0 0 0.447059 0 0 0 0 0.980392 0 0 0 0.1 0"/>
<feBlend mode="normal" in2="effect1_dropShadow_2010_22" result="effect2_dropShadow_2010_22"/>
<feBlend mode="normal" in="SourceGraphic" in2="effect2_dropShadow_2010_22" result="shape"/>
</filter>
<filter id="filter2_dd_2010_22" x="0.685547" y="56.4148" width="414.914" height="362.96" filterUnits="userSpaceOnUse" color-interpolation-filters="sRGB">
<feFlood flood-opacity="0" result="BackgroundImageFix"/>
<feColorMatrix in="SourceAlpha" type="matrix" values="0 0 0 0 0 0 0 0 0 0 0 0 0 0 0 0 0 0 127 0" result="hardAlpha"/>
<feOffset dx="5" dy="5"/>
<feGaussianBlur stdDeviation="5"/>
<feComposite in2="hardAlpha" operator="out"/>
<feColorMatrix type="matrix" values="0 0 0 0 1 0 0 0 0 0 0 0 0 0 0.286275 0 0 0 0.1 0"/>
<feBlend mode="normal" in2="BackgroundImageFix" result="effect1_dropShadow_2010_22"/>
<feColorMatrix in="SourceAlpha" type="matrix" values="0 0 0 0 0 0 0 0 0 0 0 0 0 0 0 0 0 0 127 0" result="hardAlpha"/>
<feOffset dy="-4"/>
<feGaussianBlur stdDeviation="5"/>
<feComposite in2="hardAlpha" operator="out"/>
<feColorMatrix type="matrix" values="0 0 0 0 0 0 0 0 0 0.447059 0 0 0 0 0.980392 0 0 0 0.1 0"/>
<feBlend mode="normal" in2="effect1_dropShadow_2010_22" result="effect2_dropShadow_2010_22"/>
<feBlend mode="normal" in="SourceGraphic" in2="effect2_dropShadow_2010_22" result="shape"/>
</filter>
</defs>
</svg>
