<svg width="272" height="124" viewBox="0 0 272 124" fill="none" xmlns="http://www.w3.org/2000/svg">
<path d="M236.265 78.3289L233.298 69.2659C247.436 64.8555 255.256 61.2369 259.058 59.0372C257.794 58.8173 256 58.6743 253.54 58.7183L253.349 49.2155C266.404 48.9625 270.195 53.3839 271.12 57.1345C271.887 60.2471 273.478 66.7253 236.265 78.3289Z" fill="#F4F0F1"/>
<path d="M9.74895 123.181L0 122.708C0.428774 114.349 1.25246 105.88 2.4598 97.5325C4.91961 80.4407 9.06064 63.6348 14.7475 47.5988C17.354 40.2517 20.7391 33.3006 23.3907 28.0542C27.103 20.7401 32.4514 11.5122 40.993 5.06704C44.8181 2.1744 48.4514 0.590606 52.1073 0.194655C59.0354 -0.531254 66.2569 3.21926 70.5333 9.79644C74.5954 16.0327 75.5093 23.3468 76.3105 29.792C76.807 33.7735 77.0213 37.755 77.2244 41.6045C77.3486 43.9472 77.4726 46.3009 77.6644 48.6436C78.2625 56.0897 78.9395 64.1297 83.0467 70.6409C84.2089 72.4886 85.7209 74.0615 87.1652 75.6893C89.0609 77.812 91.2498 79.9567 94.0594 80.8366L89.8394 88.6897C85.3937 87.3038 82.0989 84.1252 78.9395 80.9356C70.4317 72.3127 68.8746 61.0941 67.9268 49.3806C67.735 46.9499 67.5996 44.5192 67.4755 42.0885C67.2724 38.228 67.0805 34.5874 66.6179 30.9358C65.907 25.2166 65.1623 19.3103 62.285 14.8888C60.4007 11.9962 56.8464 9.25757 53.1567 9.65352C51.34 9.85149 49.309 10.8084 46.9507 12.5901C39.9888 17.8475 35.3738 25.8655 32.1242 32.2667C29.5967 37.2601 26.3809 43.8592 23.9549 50.7114C18.4598 66.1644 14.4767 82.3654 12.1072 98.8524C10.945 106.914 10.1439 115.097 9.73765 123.17L9.74895 123.181Z" fill="#F4F0F1"/>
<path d="M116.367 84.3563C115.363 82.2116 113.49 80.5947 110.759 79.5718L104.226 77.0752L97.7153 93.3642L104.35 95.8828C105.715 96.4108 107.036 96.6637 108.277 96.6967H108.401C109.619 96.6967 110.714 96.4878 111.718 96.0588C113.794 95.113 115.306 93.4412 116.254 91.0435C117.225 88.6128 117.281 86.38 116.378 84.3673L116.367 84.3563ZM112.734 89.7126C112.045 91.4504 111.052 92.5942 109.777 93.1112C108.536 93.5841 107.024 93.5181 105.287 92.8472L102.263 91.7034L106.415 81.3096L109.462 82.4755C111.143 83.1134 112.316 84.0483 112.903 85.2362C113.49 86.501 113.445 87.9968 112.734 89.7016V89.7126Z" fill="#F4F0F1"/>
<path d="M136.689 86.1388C135.854 84.786 134.714 83.6642 133.304 82.8613C131.859 82.0804 130.279 81.6514 128.598 81.6514H128.576C126.917 81.6514 125.326 82.0583 123.916 82.8392C122.471 83.6421 121.332 84.742 120.497 86.0949C119.639 87.4697 119.199 88.9985 119.199 90.6153C119.199 92.2321 119.617 93.7279 120.463 95.1137C121.298 96.4885 122.437 97.5884 123.848 98.3913C125.292 99.2052 126.849 99.6011 128.531 99.6011H128.553C130.234 99.6011 131.803 99.1942 133.236 98.4133C134.646 97.6324 135.82 96.5325 136.655 95.1577C137.512 93.7829 137.918 92.276 137.952 90.6592C137.952 89.0424 137.512 87.5247 136.689 86.1388ZM133.473 93.5409C132.965 94.4208 132.277 95.1137 131.419 95.6307C130.562 96.1256 129.591 96.3675 128.564 96.3675H128.542C127.492 96.3675 126.59 96.1256 125.71 95.6086C124.852 95.0807 124.153 94.3988 123.656 93.5189C123.16 92.639 122.9 91.6601 122.923 90.6372C122.923 89.5704 123.171 88.6135 123.679 87.7336C124.164 86.8538 124.875 86.1388 125.732 85.6439C126.59 85.1489 127.538 84.885 128.564 84.885C129.659 84.885 130.562 85.1489 131.442 85.6439C132.299 86.1718 132.976 86.8757 133.495 87.7556C133.98 88.6355 134.229 89.6144 134.229 90.6592C134.229 91.7041 133.98 92.661 133.473 93.5409Z" fill="#F4F0F1"/>
<path d="M155.352 94.7066C154.697 95.9935 153.761 97.0383 152.542 97.7972C151.346 98.5561 149.958 99.0071 148.446 99.0841C148.277 99.1061 148.085 99.1061 147.882 99.1061C146.618 99.1061 145.4 98.8421 144.249 98.3032C142.928 97.6873 141.857 96.7524 141.055 95.5425C140.22 94.3327 139.758 92.9249 139.668 91.3851L139.058 81.8273L142.669 81.6183L143.278 91.1761C143.38 92.6939 143.888 93.8817 144.869 94.7396C145.851 95.5975 146.945 95.9715 148.254 95.9055C149.552 95.8395 150.601 95.3116 151.448 94.3327C152.328 93.3538 152.689 92.144 152.598 90.6041L152.012 81.0684L155.577 80.8594L156.187 90.3952C156.288 91.968 156.017 93.4198 155.352 94.7176V94.7066Z" fill="#F4F0F1"/>
<path d="M176.249 87.8542L176.204 88.5692C176.08 90.7579 175.324 92.6606 173.913 94.2554C172.503 95.8502 170.641 96.8181 168.373 97.1041C167.933 97.17 167.493 97.2031 167.053 97.2031C165.857 97.2031 164.683 96.9941 163.566 96.5322C162.054 95.9382 160.757 94.9813 159.741 93.7495C158.714 92.4846 158.082 91.0658 157.868 89.449C157.654 87.8323 157.868 86.2814 158.5 84.8076C159.154 83.3558 160.136 82.124 161.456 81.1451C162.754 80.1662 164.266 79.5503 165.924 79.3413C168.192 79.0553 170.269 79.4842 172.051 80.6721C173.733 81.794 174.974 83.3118 175.685 85.2366L172.221 85.7645C171.758 84.7416 171.047 83.9387 170.054 83.3118C168.937 82.6189 167.741 82.3659 166.376 82.5529C165.349 82.6739 164.446 83.0478 163.668 83.6748C162.889 84.3017 162.302 85.0826 161.907 86.0065C161.546 86.9304 161.422 87.9312 161.569 88.9761C161.716 90.021 162.077 90.9228 162.72 91.7367C163.329 92.5506 164.108 93.1446 165.033 93.5405C165.958 93.9255 166.906 94.0355 167.955 93.9255C169.276 93.7385 170.415 93.1666 171.295 92.2097C172.198 91.2638 172.683 90.1199 172.807 88.7891L172.852 88.3162L176.271 87.8652L176.249 87.8542Z" fill="#F4F0F1"/>
<path d="M193.715 74.6777L189.552 93.3644L186.426 93.9913L175.063 78.4172L178.866 77.6583L186.934 88.7339L189.913 75.4366L193.715 74.6777Z" fill="#F4F0F1"/>
<path d="M211.227 86.259C210.686 87.2599 209.885 88.0627 208.813 88.6567C207.763 89.2066 206.669 89.6026 205.495 89.8225C204.784 89.9655 204.051 90.0645 203.329 90.0645C202.607 90.0645 201.817 89.9656 201.083 89.8006C199.673 89.4926 198.398 88.9867 197.326 88.3487L196.841 88.0628L198.33 85.3791L198.872 85.6431C199.628 86.028 200.26 86.314 200.824 86.501C201.332 86.666 201.975 86.787 202.652 86.853C203.34 86.8969 204.04 86.8529 204.751 86.6879C205.901 86.424 206.804 86.0171 207.38 85.4781C208.034 84.8842 207.989 84.4112 207.865 84.0482C207.696 83.4103 207.278 83.0474 206.624 82.8604C205.766 82.6185 204.525 82.4754 202.911 82.3874C201.523 82.3215 200.327 82.2005 199.402 82.0355C198.432 81.8706 197.552 81.5076 196.796 80.9466C195.995 80.3527 195.453 79.4508 195.205 78.285C194.957 76.8552 195.374 75.6013 196.446 74.5784C197.45 73.5996 199.007 72.8956 201.061 72.4887C202.302 72.2247 203.6 72.1808 204.886 72.3897C206.184 72.5987 207.38 73.1046 208.395 73.8855L208.835 74.1935L207.346 76.7122L206.804 76.4262C206.195 76.0742 205.687 75.8323 205.213 75.6673C204.773 75.5243 204.265 75.4033 203.656 75.3373C203.047 75.2934 202.437 75.3373 201.806 75.4583C200.655 75.7003 199.808 76.0083 199.267 76.4372C198.703 76.8662 198.703 77.2511 198.782 77.5261C198.883 78.076 199.199 78.384 199.786 78.5489C200.542 78.7579 201.738 78.9009 203.318 78.9779C204.705 79.0769 205.879 79.1649 206.782 79.3078C207.752 79.4728 208.655 79.8028 209.49 80.2867C210.347 80.8367 210.979 81.6175 211.34 82.6624C211.803 84.0152 211.758 85.2251 211.216 86.281L211.227 86.259Z" fill="#F4F0F1"/>
<path d="M228.063 83.0477L214.771 87.1612L209.354 70.4982L222.647 66.3848L223.651 69.4094L213.766 72.456L215.527 77.9004C215.594 77.7794 215.651 77.6584 215.696 77.5704C215.989 77.0205 216.429 76.4265 216.96 75.8106C217.524 75.1727 218.28 74.5458 219.16 73.9849C220.063 73.4129 221.112 72.94 222.331 72.555L222.895 72.39L223.944 75.4807L223.357 75.6457C222.139 76.0306 221.112 76.5475 220.311 77.1964C219.51 77.8454 218.923 78.5273 218.505 79.2642C218.11 80.0011 217.817 80.694 217.67 81.3319C217.569 81.8049 217.501 82.3548 217.456 83.0147L227.092 80.0231L228.063 83.0697V83.0477Z" fill="#F4F0F1"/>
<path d="M164.469 78.9555C164.006 78.9555 163.566 78.8786 163.137 78.7136C162.201 78.3506 161.411 77.5257 160.914 76.3819L163.16 75.458C163.498 76.2279 163.882 76.4479 164.04 76.5029C164.875 76.8218 166.759 76.0299 168 73.7422L170.156 74.8531C168.79 77.3937 166.522 78.9665 164.469 78.9665V78.9555Z" fill="#F4F0F1"/>
<path d="M198.804 72.3569C198.342 72.3569 197.902 72.2799 197.473 72.115C196.536 71.752 195.746 70.9161 195.25 69.7833L197.495 68.8593C197.823 69.6182 198.218 69.8492 198.376 69.9042C199.199 70.2342 201.095 69.4313 202.336 67.1436L204.491 68.2544C203.126 70.7951 200.858 72.3679 198.804 72.3679V72.3569Z" fill="#F4F0F1"/>
</svg>
