<svg width="120" height="120" viewBox="0 0 120 120" fill="none" xmlns="http://www.w3.org/2000/svg">
<path d="M0 60C0 93.1371 26.8629 120 60 120C93.1371 120 120 93.1371 120 60C120 26.8629 93.1371 0 60 0C26.8629 0 0 26.8629 0 60Z" fill="url(#paint0_linear_106_124)"/>
<path d="M84.4342 63.0536C78.9765 64.7879 73.9937 66.0681 69.5064 66.8733L84.4342 63.0536Z" fill="#F4F0F1"/>
<path d="M99.4654 60.6655C85.0331 66.4329 67.4282 71.8974 55.0125 70.5829C50.4564 70.108 46.6023 68.7178 43.8562 66.0956L43.7736 66.0062C41.0757 62.9229 40.9106 58.8141 40.766 54.8499C40.6766 52.7095 40.6009 50.6999 40.1466 48.8967C39.7337 47.4789 38.7702 44.9875 37.1253 44.8568C35.2189 44.7122 32.404 47.4101 30.7247 51.0027C26.8018 58.4769 24.5651 67.4721 23.8906 78.5457L22.4315 78.9174H22.4246L21 78.8348C21.6814 67.1417 24.0282 57.6166 28.1645 49.7363C29.9883 45.8478 33.6497 41.7253 37.3455 42.0144C39.1005 42.1451 41.4956 43.322 42.8996 48.1534C43.4433 50.2869 43.5327 52.5512 43.6084 54.7398C43.753 58.3461 43.8837 61.7529 45.8796 64.0722C50.0641 68.0158 58.1646 68.9311 69.5066 66.8733C73.9939 66.0681 78.9767 64.788 84.4344 63.0536L98.9355 59.3372L99.4654 60.6655Z" fill="#F4F0F1"/>
<path d="M22.4317 78.9174L23.8907 78.5458C23.8769 78.6972 23.8632 78.8486 23.8563 79L22.4317 78.9174Z" fill="#F4F0F1"/>
<path d="M98.9355 59.3371L84.4345 63.0536C88.7979 61.6702 93.471 59.991 98.4125 58.0157L98.9355 59.3371Z" fill="#F4F0F1"/>
<defs>
<linearGradient id="paint0_linear_106_124" x1="60" y1="0" x2="60" y2="120" gradientUnits="userSpaceOnUse">
<stop stop-color="#0072FA"/>
<stop offset="0.5" stop-color="#1D0A42"/>
<stop offset="1" stop-color="#FF0049"/>
</linearGradient>
</defs>
</svg>
