<svg width="153" height="153" viewBox="0 0 153 153" fill="none" xmlns="http://www.w3.org/2000/svg">
<path d="M12.9818 38.0422L40.4199 45.4604V77.4635C40.4324 85.7456 43.7281 93.6849 49.5844 99.5412C55.4407 105.398 63.38 108.693 71.6621 108.706H80.5069C88.789 108.693 96.7283 105.398 102.585 99.5412C108.441 93.6849 111.737 85.7456 111.749 77.4635V45.4604L139.187 38.0422C140.175 37.7541 141.043 37.1534 141.66 36.3303C142.277 35.5072 142.611 34.506 142.611 33.4771C142.611 32.4482 142.277 31.4471 141.66 30.6239C141.043 29.8008 140.175 29.2001 139.187 28.912L77.3685 9.89087C76.4693 9.61841 75.5096 9.61841 74.6104 9.89087L12.7916 28.912C11.8093 29.2201 10.9534 29.8386 10.3527 30.6747C9.75199 31.5108 9.43882 32.5192 9.46026 33.5485C9.4817 34.5778 9.83661 35.5723 10.4716 36.3826C11.1067 37.193 11.9875 37.7753 12.9818 38.0422ZM102.239 77.4635C102.226 83.2233 99.9324 88.7435 95.8597 92.8163C91.7869 96.889 86.2667 99.1826 80.5069 99.1952H71.6621C65.9024 99.1826 60.3821 96.889 56.3094 92.8163C52.2366 88.7435 49.943 83.2233 49.9304 77.4635V48.0758L74.8006 54.971C75.6377 55.225 76.5313 55.225 77.3685 54.971L102.239 48.0758V77.4635ZM76.0845 19.2588L120.974 33.2869L76.0845 45.4604L31.1946 33.2869L76.0845 19.2588Z" fill="#0072FA" fill-opacity="0.15"/>
<path d="M122.591 111.178C122.04 110.475 121.301 109.941 120.46 109.638C119.619 109.336 118.709 109.276 117.836 109.467L76.0845 118.882L34.3331 109.371C33.4597 109.181 32.5503 109.241 31.7092 109.543C30.8681 109.846 30.1294 110.38 29.5778 111.083L10.5567 134.86C10.0047 135.556 9.65871 136.392 9.55786 137.275C9.457 138.157 9.60532 139.05 9.98602 139.853C10.3577 140.68 10.958 141.383 11.7163 141.88C12.4746 142.377 13.3592 142.647 14.2658 142.658H137.903C138.8 142.656 139.677 142.4 140.434 141.921C141.191 141.441 141.798 140.757 142.183 139.948C142.564 139.145 142.712 138.252 142.611 137.37C142.51 136.487 142.164 135.651 141.612 134.955L122.591 111.178ZM24.1568 133.148L35.1415 119.405L75.0384 128.393C75.7286 128.535 76.4405 128.535 77.1307 128.393L117.028 119.5L128.012 133.148H24.1568Z" fill="#0072FA" fill-opacity="0.15"/>
</svg>
