<svg width="290" height="290" viewBox="0 0 290 290" fill="none" xmlns="http://www.w3.org/2000/svg">
<g clip-path="url(#clip0_28_157)">
<path d="M248.432 52.0167L79.1679 22.171C73.0463 21.0916 66.7466 22.4882 61.6548 26.0535C56.5629 29.6189 53.0959 35.0609 52.0165 41.1825L33.0238 148.896C31.9444 155.017 33.341 161.317 36.9063 166.409C40.4717 171.501 45.9138 174.968 52.0353 176.047L87.3499 182.274L104.447 206.787C105.04 207.627 105.793 208.342 106.663 208.89C107.533 209.438 108.502 209.809 109.516 209.982L124.904 212.695L124.388 215.619L78.7532 229.229C76.912 229.937 75.4069 231.315 74.5399 233.087C73.673 234.859 73.5085 236.894 74.0793 238.782C74.6502 240.67 75.9142 242.272 77.6177 243.267C79.3211 244.262 81.3378 244.576 83.2628 244.145L121.349 232.853L120.834 235.776C120.474 237.817 120.939 239.917 122.128 241.614C123.316 243.311 125.13 244.467 127.171 244.827C129.211 245.187 131.311 244.721 133.009 243.533C134.706 242.344 135.861 240.53 136.221 238.49L136.737 235.566L168.664 259.203C169.628 259.961 170.768 260.462 171.977 260.66C173.399 260.907 174.861 260.754 176.201 260.22C177.541 259.687 178.708 258.792 179.571 257.636C180.804 255.98 181.331 253.903 181.037 251.859C180.744 249.816 179.653 247.971 178.003 246.729L139.776 218.332L140.291 215.408L155.679 218.121C156.69 218.306 157.728 218.289 158.733 218.071C159.738 217.853 160.69 217.44 161.535 216.853L185.985 199.666L221.299 205.893C227.421 206.972 233.72 205.576 238.812 202.01C243.904 198.445 247.371 193.003 248.45 186.881L267.443 79.168C268.523 73.0465 267.126 66.7468 263.561 61.655C259.995 56.5631 254.553 53.0961 248.432 52.0167ZM155.238 202.178L115.384 195.15L109.046 186.1L164.288 195.84L155.238 202.178ZM233.063 184.168C232.703 186.209 231.547 188.023 229.85 189.211C228.153 190.4 226.053 190.865 224.012 190.505L54.7486 160.66C52.7081 160.3 50.894 159.144 49.7056 157.447C48.5171 155.75 48.0516 153.65 48.4114 151.609L67.4042 43.8958C67.764 41.8552 68.9196 40.0412 70.6169 38.8528C72.3142 37.6643 74.4141 37.1988 76.4546 37.5586L245.718 67.4044C247.759 67.7642 249.573 68.9198 250.761 70.6171C251.95 72.3144 252.415 74.4143 252.056 76.4548L233.063 184.168Z" fill="url(#paint0_linear_28_157)" fill-opacity="0.03"/>
<path d="M210.873 85.0594L103.16 66.0666C101.119 65.7068 99.0195 66.1723 97.3222 67.3608C95.6249 68.5492 94.4692 70.3632 94.1094 72.4038C93.7496 74.4443 94.2152 76.5442 95.4036 78.2415C96.5921 79.9387 98.4061 81.0944 100.447 81.4542L208.16 100.447C210.2 100.807 212.3 100.341 213.998 99.1528C215.695 97.9643 216.851 96.1503 217.21 94.1098C217.57 92.0693 217.105 89.9694 215.916 88.2721C214.728 86.5748 212.914 85.4192 210.873 85.0594Z" fill="url(#paint1_linear_28_157)" fill-opacity="0.03"/>
<path d="M95.0201 112.23L133.489 119.013C135.53 119.373 137.63 118.907 139.327 117.719C141.024 116.53 142.18 114.716 142.54 112.676C142.899 110.635 142.434 108.535 141.245 106.838C140.057 105.141 138.243 103.985 136.202 103.625L97.7334 96.842C95.6928 96.4822 93.593 96.9477 91.8957 98.1362C90.1984 99.3246 89.0427 101.139 88.6829 103.179C88.3231 105.22 88.7887 107.32 89.9771 109.017C91.1656 110.714 92.9796 111.87 95.0201 112.23Z" fill="url(#paint2_linear_28_157)" fill-opacity="0.03"/>
<path d="M169.245 141.183L92.3068 127.617C90.2663 127.257 88.1664 127.723 86.4692 128.911C84.7719 130.1 83.6162 131.914 83.2564 133.954C82.8966 135.995 83.3621 138.094 84.5506 139.792C85.739 141.489 87.5531 142.645 89.5936 143.005L166.532 156.571C168.572 156.931 170.672 156.465 172.369 155.277C174.067 154.088 175.222 152.274 175.582 150.234C175.942 148.193 175.476 146.093 174.288 144.396C173.1 142.699 171.285 141.543 169.245 141.183Z" fill="url(#paint3_linear_28_157)" fill-opacity="0.03"/>
</g>
<defs>
<linearGradient id="paint0_linear_28_157" x1="163.8" y1="37.0938" x2="125.814" y2="252.521" gradientUnits="userSpaceOnUse">
<stop stop-color="#0072FA"/>
<stop offset="0.5" stop-color="#1D0A42"/>
<stop offset="1" stop-color="#FF0049"/>
</linearGradient>
<linearGradient id="paint1_linear_28_157" x1="157.017" y1="75.563" x2="154.303" y2="90.9506" gradientUnits="userSpaceOnUse">
<stop stop-color="#0072FA"/>
<stop offset="0.5" stop-color="#1D0A42"/>
<stop offset="1" stop-color="#FF0049"/>
</linearGradient>
<linearGradient id="paint2_linear_28_157" x1="116.968" y1="100.234" x2="114.255" y2="115.621" gradientUnits="userSpaceOnUse">
<stop stop-color="#0072FA"/>
<stop offset="0.5" stop-color="#1D0A42"/>
<stop offset="1" stop-color="#FF0049"/>
</linearGradient>
<linearGradient id="paint3_linear_28_157" x1="130.776" y1="134.4" x2="128.063" y2="149.788" gradientUnits="userSpaceOnUse">
<stop stop-color="#0072FA"/>
<stop offset="0.5" stop-color="#1D0A42"/>
<stop offset="1" stop-color="#FF0049"/>
</linearGradient>
<clipPath id="clip0_28_157">
<rect width="250" height="250" fill="white" transform="translate(43.4121) rotate(10)"/>
</clipPath>
</defs>
</svg>
