<svg width="207" height="271" viewBox="0 0 207 271" fill="none" xmlns="http://www.w3.org/2000/svg">
<path d="M163.838 65.081L-7.38264 50.1011C-13.575 49.5593 -19.7289 51.4996 -24.4907 55.4952C-29.2524 59.4908 -32.2319 65.2143 -32.7737 71.4067L-42.3063 180.365C-42.8481 186.558 -40.9078 192.712 -36.9122 197.474C-32.9166 202.235 -27.1931 205.215 -21.0007 205.756L150.22 220.736C156.413 221.278 162.567 219.338 167.328 215.342C172.09 211.347 175.07 205.623 175.611 199.431L185.144 90.472C185.686 84.2796 183.745 78.1257 179.75 73.3639C175.754 68.6022 170.031 65.6227 163.838 65.081ZM-26.7408 181.727L-17.2081 72.7685C-17.0275 70.7044 -16.0344 68.7965 -14.4471 67.4647C-12.8599 66.1328 -10.8086 65.486 -8.74445 65.6666L30.1694 69.0711L21.9986 162.464C21.818 164.529 22.4647 166.58 23.7966 168.167C25.1285 169.754 27.0363 170.747 29.1004 170.928C31.1645 171.109 33.2159 170.462 34.8031 169.13C36.3903 167.798 37.3835 165.89 37.5641 163.826L45.7349 70.4329L69.0833 72.4756L58.1888 197L-19.6389 190.191C-21.703 190.01 -23.6109 189.017 -24.9427 187.43C-26.2746 185.843 -26.9214 183.791 -26.7408 181.727ZM160.046 198.069C159.865 200.133 158.872 202.041 157.285 203.373C155.697 204.705 153.646 205.351 151.582 205.171L73.7543 198.362L84.6488 73.8375L162.477 80.6465C164.541 80.8271 166.448 81.8202 167.78 83.4075C169.112 84.9947 169.759 87.0461 169.578 89.1102L160.046 198.069Z" fill="url(#paint0_linear_28_281)" fill-opacity="0.03"/>
<path d="M144.868 102.633L105.954 99.2285C103.89 99.0479 101.839 99.6947 100.252 101.027C98.6645 102.358 97.6713 104.266 97.4907 106.33C97.3101 108.394 97.9569 110.446 99.2888 112.033C100.621 113.62 102.528 114.613 104.593 114.794L143.506 118.199C145.571 118.379 147.622 117.732 149.209 116.401C150.796 115.069 151.79 113.161 151.97 111.097C152.151 109.033 151.504 106.981 150.172 105.394C148.84 103.807 146.932 102.814 144.868 102.633Z" fill="url(#paint1_linear_28_281)" fill-opacity="0.03"/>
<path d="M142.145 133.764L118.796 131.721C116.732 131.541 114.681 132.188 113.094 133.519C111.506 134.851 110.513 136.759 110.333 138.823C110.152 140.887 110.799 142.939 112.131 144.526C113.463 146.113 115.37 147.106 117.435 147.287L140.783 149.33C142.847 149.51 144.898 148.864 146.486 147.532C148.073 146.2 149.066 144.292 149.247 142.228C149.427 140.164 148.78 138.112 147.448 136.525C146.117 134.938 144.209 133.945 142.145 133.764Z" fill="url(#paint2_linear_28_281)" fill-opacity="0.03"/>
<path d="M139.421 164.895L100.507 161.491C98.443 161.31 96.3917 161.957 94.8044 163.289C93.2172 164.621 92.224 166.528 92.0435 168.593C91.8629 170.657 92.5096 172.708 93.8415 174.295C95.1734 175.883 97.0812 176.876 99.1453 177.056L138.059 180.461C140.123 180.641 142.175 179.995 143.762 178.663C145.349 177.331 146.342 175.423 146.523 173.359C146.703 171.295 146.057 169.243 144.725 167.656C143.393 166.069 141.485 165.076 139.421 164.895Z" fill="url(#paint3_linear_28_281)" fill-opacity="0.03"/>
<defs>
<linearGradient id="paint0_linear_28_281" x1="78.2278" y1="57.591" x2="64.6098" y2="213.246" gradientUnits="userSpaceOnUse">
<stop stop-color="#0072FA"/>
<stop offset="0.5" stop-color="#1D0A42"/>
<stop offset="1" stop-color="#FF0049"/>
</linearGradient>
<linearGradient id="paint1_linear_28_281" x1="125.411" y1="100.931" x2="124.05" y2="116.496" gradientUnits="userSpaceOnUse">
<stop stop-color="#0072FA"/>
<stop offset="0.5" stop-color="#1D0A42"/>
<stop offset="1" stop-color="#FF0049"/>
</linearGradient>
<linearGradient id="paint2_linear_28_281" x1="130.47" y1="132.743" x2="129.109" y2="148.308" gradientUnits="userSpaceOnUse">
<stop stop-color="#0072FA"/>
<stop offset="0.5" stop-color="#1D0A42"/>
<stop offset="1" stop-color="#FF0049"/>
</linearGradient>
<linearGradient id="paint3_linear_28_281" x1="119.964" y1="163.193" x2="118.602" y2="178.759" gradientUnits="userSpaceOnUse">
<stop stop-color="#0072FA"/>
<stop offset="0.5" stop-color="#1D0A42"/>
<stop offset="1" stop-color="#FF0049"/>
</linearGradient>
</defs>
</svg>
