<svg width="275" height="271" viewBox="0 0 275 271" fill="none" xmlns="http://www.w3.org/2000/svg">
<path d="M227.838 65.081L56.6175 50.1011C50.4251 49.5593 44.2712 51.4996 39.5094 55.4952C34.7477 59.4908 31.7682 65.2143 31.2265 71.4067L21.6938 180.365C21.152 186.558 23.0924 192.712 27.0879 197.474C31.0835 202.235 36.807 205.215 42.9994 205.756L214.22 220.736C220.413 221.278 226.567 219.338 231.328 215.342C236.09 211.347 239.07 205.623 239.611 199.431L249.144 90.472C249.686 84.2796 247.745 78.1257 243.75 73.3639C239.754 68.6022 234.031 65.6227 227.838 65.081ZM37.2593 181.727L46.792 72.7685C46.9726 70.7044 47.9657 68.7965 49.553 67.4647C51.1402 66.1328 53.1916 65.486 55.2557 65.6666L94.1695 69.0711L85.9987 162.464C85.8181 164.529 86.4649 166.58 87.7967 168.167C89.1286 169.754 91.0364 170.747 93.1005 170.928C95.1647 171.109 97.216 170.462 98.8032 169.13C100.39 167.798 101.384 165.89 101.564 163.826L109.735 70.4329L133.083 72.4756L122.189 197L44.3612 190.191C42.2971 190.01 40.3892 189.017 39.0574 187.43C37.7255 185.843 37.0787 183.791 37.2593 181.727ZM224.046 198.069C223.865 200.133 222.872 202.041 221.285 203.373C219.698 204.705 217.646 205.351 215.582 205.171L137.754 198.362L148.649 73.8375L226.477 80.6465C228.541 80.8271 230.449 81.8202 231.78 83.4075C233.112 84.9947 233.759 87.0461 233.579 89.1102L224.046 198.069Z" fill="url(#paint0_linear_263_5626)" fill-opacity="0.07"/>
<path d="M208.868 102.633L169.955 99.2285C167.89 99.0479 165.839 99.6947 164.252 101.027C162.665 102.358 161.671 104.266 161.491 106.33C161.31 108.394 161.957 110.446 163.289 112.033C164.621 113.62 166.529 114.613 168.593 114.794L207.507 118.199C209.571 118.379 211.622 117.732 213.209 116.401C214.797 115.069 215.79 113.161 215.97 111.097C216.151 109.033 215.504 106.981 214.172 105.394C212.84 103.807 210.932 102.814 208.868 102.633Z" fill="url(#paint1_linear_263_5626)" fill-opacity="0.07"/>
<path d="M206.145 133.764L182.796 131.721C180.732 131.541 178.681 132.188 177.094 133.519C175.507 134.851 174.513 136.759 174.333 138.823C174.152 140.887 174.799 142.939 176.131 144.526C177.463 146.113 179.371 147.106 181.435 147.287L204.783 149.33C206.847 149.51 208.898 148.864 210.486 147.532C212.073 146.2 213.066 144.292 213.247 142.228C213.427 140.164 212.78 138.112 211.449 136.525C210.117 134.938 208.209 133.945 206.145 133.764Z" fill="url(#paint2_linear_263_5626)" fill-opacity="0.07"/>
<path d="M203.421 164.895L164.507 161.491C162.443 161.31 160.392 161.957 158.805 163.289C157.217 164.621 156.224 166.528 156.044 168.593C155.863 170.657 156.51 172.708 157.842 174.295C159.173 175.883 161.081 176.876 163.145 177.056L202.059 180.461C204.123 180.641 206.175 179.995 207.762 178.663C209.349 177.331 210.342 175.423 210.523 173.359C210.704 171.295 210.057 169.243 208.725 167.656C207.393 166.069 205.485 165.076 203.421 164.895Z" fill="url(#paint3_linear_263_5626)" fill-opacity="0.07"/>
<path d="M262.679 190.26C260.823 222.916 248.274 245.388 211 241.91" stroke="#F3E7F3" stroke-width="10" stroke-linecap="round"/>
<defs>
<linearGradient id="paint0_linear_263_5626" x1="142.228" y1="57.591" x2="128.61" y2="213.246" gradientUnits="userSpaceOnUse">
<stop stop-color="#0072FA"/>
<stop offset="0.5" stop-color="#1D0A42"/>
<stop offset="1" stop-color="#FF0049"/>
</linearGradient>
<linearGradient id="paint1_linear_263_5626" x1="189.411" y1="100.931" x2="188.05" y2="116.496" gradientUnits="userSpaceOnUse">
<stop stop-color="#0072FA"/>
<stop offset="0.5" stop-color="#1D0A42"/>
<stop offset="1" stop-color="#FF0049"/>
</linearGradient>
<linearGradient id="paint2_linear_263_5626" x1="194.471" y1="132.743" x2="193.109" y2="148.308" gradientUnits="userSpaceOnUse">
<stop stop-color="#0072FA"/>
<stop offset="0.5" stop-color="#1D0A42"/>
<stop offset="1" stop-color="#FF0049"/>
</linearGradient>
<linearGradient id="paint3_linear_263_5626" x1="183.964" y1="163.193" x2="182.602" y2="178.759" gradientUnits="userSpaceOnUse">
<stop stop-color="#0072FA"/>
<stop offset="0.5" stop-color="#1D0A42"/>
<stop offset="1" stop-color="#FF0049"/>
</linearGradient>
</defs>
</svg>
