<svg width="190" height="321" viewBox="0 0 190 321" fill="none" xmlns="http://www.w3.org/2000/svg">
<g clip-path="url(#clip0_106_66)">
<path d="M122.806 57.4352C102.478 64.8338 84.8006 78.0943 72.0092 95.5395C59.2178 112.985 51.8868 133.831 50.9432 155.443C49.9996 177.055 55.4859 198.461 66.7081 216.955C77.9304 235.449 94.3847 250.199 113.99 259.341C133.596 268.484 155.472 271.607 176.853 268.316C198.233 265.025 218.158 255.468 234.107 240.854C250.056 226.239 261.313 207.223 266.455 186.211C271.596 165.199 270.392 143.133 262.993 122.806C253.072 95.5469 232.728 73.346 206.438 61.0866C180.148 48.8273 150.064 47.5138 122.806 57.4352ZM199.62 245.638L196.948 238.297C196.239 236.35 194.786 234.764 192.908 233.888C191.03 233.013 188.881 232.919 186.934 233.628C184.987 234.336 183.402 235.789 182.526 237.667C181.65 239.545 181.556 241.694 182.265 243.641L184.937 250.982C163.504 256.791 140.705 254.803 120.601 245.372C100.496 235.942 84.3924 219.681 75.157 199.486L82.1313 196.948C84.0784 196.239 85.6641 194.786 86.5398 192.908C87.4155 191.03 87.5093 188.881 86.8006 186.934C86.092 184.987 84.6389 183.402 82.761 182.526C80.8831 181.65 78.7343 181.556 76.7872 182.265L69.4459 184.937C63.6373 163.504 65.6254 140.705 75.056 120.601C84.4865 100.496 100.747 84.3924 120.942 75.157L123.48 82.1312C124.189 84.0783 125.642 85.6641 127.52 86.5397C129.398 87.4154 131.547 87.5092 133.494 86.8005C135.441 86.0919 137.027 84.6388 137.902 82.7609C138.778 80.883 138.872 78.7342 138.163 76.7872L135.491 69.4458C156.96 63.5306 179.833 65.4503 200.015 74.8614C220.197 84.2725 236.37 100.56 245.638 120.808L238.297 123.48C236.35 124.189 234.764 125.642 233.888 127.52C233.013 129.398 232.919 131.547 233.628 133.494C234.336 135.441 235.789 137.027 237.667 137.902C239.545 138.778 241.694 138.872 243.641 138.163L250.982 135.491C256.898 156.959 254.978 179.833 245.567 200.015C236.156 220.197 219.868 236.37 199.62 245.638Z" fill="url(#paint0_linear_106_66)" fill-opacity="0.07"/>
<path d="M178.242 90.0512L154.165 154.102L120.835 166.233C118.888 166.941 117.302 168.395 116.427 170.272C115.551 172.15 115.457 174.299 116.166 176.246C116.875 178.193 118.328 179.779 120.206 180.655C122.083 181.53 124.232 181.624 126.179 180.916L162.886 167.555C163.906 167.194 164.828 166.602 165.582 165.826L166.036 165.245C166.593 164.639 167.042 163.941 167.364 163.182L192.707 95.7605C193.067 94.7997 193.235 93.7774 193.199 92.752C193.164 91.7266 192.928 90.7182 192.503 89.7843C192.078 88.8503 191.473 88.0093 190.723 87.309C189.974 86.6088 189.093 86.0631 188.132 85.7031C187.171 85.3431 186.149 85.1759 185.124 85.211C184.098 85.2461 183.09 85.4829 182.156 85.9077C181.222 86.3326 180.381 86.9372 179.681 87.6871C178.981 88.437 178.435 89.3174 178.075 90.2782L178.242 90.0512Z" fill="url(#paint1_linear_106_66)" fill-opacity="0.07"/>
</g>
<defs>
<linearGradient id="paint0_linear_106_66" x1="122.806" y1="57.4352" x2="197.623" y2="262.993" gradientUnits="userSpaceOnUse">
<stop stop-color="#0072FA"/>
<stop offset="0.5" stop-color="#1D0A42"/>
<stop offset="1" stop-color="#FF0049"/>
</linearGradient>
<linearGradient id="paint1_linear_106_66" x1="142.452" y1="100.334" x2="166.447" y2="166.26" gradientUnits="userSpaceOnUse">
<stop stop-color="#0072FA"/>
<stop offset="0.5" stop-color="#1D0A42"/>
<stop offset="1" stop-color="#FF0049"/>
</linearGradient>
<clipPath id="clip0_106_66">
<rect width="250" height="250" fill="white" transform="translate(0 85.505) rotate(-20)"/>
</clipPath>
</defs>
</svg>
