<svg width="220" height="213" viewBox="0 0 220 213" fill="none" xmlns="http://www.w3.org/2000/svg">
<path d="M154.647 7.73624C146.108 2.58952 136.247 -0.0919879 126.209 0.00240907C116.171 0.0968061 106.365 2.96324 97.9287 8.26961C81.5224 18.8607 77.6162 39.3572 74.4912 57.4916C72.3037 68.997 70.1162 80.8834 64.9599 85.8361C62.3037 88.3505 56.6006 87.5886 48.0849 85.8361C38.1631 84.0836 25.8193 81.874 15.6631 89.1125C7.85056 94.6747 3.08493 104.809 1.05368 119.59C-0.80104 130.375 -0.20185 141.426 2.80882 151.959C5.81948 162.493 11.168 172.253 18.4756 180.546C36.2099 201.195 66.8349 213.006 102.226 213.006C175.585 213.006 219.413 162.641 219.413 113.952C219.413 74.5592 189.726 26.0992 154.647 7.73624ZM102.226 197.767C70.9756 197.767 44.9599 188.166 29.8818 171.479C23.9507 164.802 19.6184 156.92 17.1996 148.406C14.7807 139.892 14.3359 130.96 15.8974 122.257C15.9427 114.62 18.926 107.279 24.2568 101.685C26.5904 100.25 29.3125 99.5333 32.0693 99.6274C36.1929 99.7649 40.2967 100.249 44.3349 101.075C54.7256 102.904 66.5224 105.037 75.1162 96.5796C83.7099 88.1219 86.2099 74.6354 88.9443 60.2346C91.9131 44.386 95.0381 28.0041 105.897 20.918C111.965 17.1053 119.031 15.0778 126.249 15.0778C133.467 15.0778 140.533 17.1053 146.601 20.918C176.757 36.6903 203.163 79.8929 203.163 113.419C203.788 154.869 165.819 197.767 102.226 197.767Z" fill="url(#paint0_linear_28_8)" fill-opacity="0.03"/>
<path d="M58.0849 128.429C56.6609 127.078 54.9199 126.088 53.0137 125.543C51.1074 124.999 49.0935 124.917 47.1474 125.305C44.5232 125.611 42.0214 126.56 39.8759 128.065C37.7305 129.571 36.0115 131.582 34.8798 133.911C33.7481 136.24 33.2407 138.811 33.405 141.384C33.5693 143.957 34.4 146.446 35.8193 148.621C36.727 150.369 38.0663 151.869 39.7165 152.986C41.3667 154.103 43.276 154.803 45.2724 155.021H45.9756C48.8399 154.639 51.5394 153.49 53.7739 151.701C56.0083 149.912 57.69 147.553 58.6318 144.887C60.2766 142.418 61.106 139.517 61.0082 136.574C60.9105 133.632 59.8902 130.789 58.0849 128.429Z" fill="url(#paint1_linear_28_8)" fill-opacity="0.03"/>
<path d="M93.3193 155.707C90.3091 155.488 87.3025 156.174 84.7043 157.672C82.1062 159.171 80.0414 161.41 78.788 164.088C78.2922 165.966 78.2751 167.934 78.7381 169.82C79.2011 171.706 80.1302 173.453 81.4443 174.908C82.9321 176.785 84.837 178.309 87.0156 179.365C89.1941 180.42 91.5898 180.981 94.0224 181.004H95.1162C97.6986 180.82 100.198 180.032 102.401 178.705C104.604 177.379 106.447 175.553 107.772 173.384C108.895 171.754 109.589 169.88 109.794 167.927C109.998 165.973 109.706 164.001 108.944 162.183C107.323 159.683 104.96 157.724 102.168 156.567C99.3767 155.41 96.29 155.11 93.3193 155.707Z" fill="url(#paint2_linear_28_8)" fill-opacity="0.03"/>
<path d="M143.866 141.23C137.147 144.963 133.788 149.992 134.647 155.021C135.039 156.938 135.906 158.731 137.172 160.246C138.439 161.76 140.067 162.948 141.913 163.707C144.156 164.758 146.612 165.305 149.1 165.307C151.845 165.303 154.539 164.593 156.913 163.25C159.154 161.938 161.035 160.116 162.395 157.939C163.756 155.763 164.555 153.298 164.725 150.754C164.97 148.823 164.727 146.863 164.02 145.044C163.312 143.225 162.159 141.602 160.663 140.315C158.104 138.772 155.121 138.031 152.117 138.195C149.113 138.358 146.233 139.418 143.866 141.23Z" fill="url(#paint3_linear_28_8)" fill-opacity="0.03"/>
<path d="M134.491 67.1682H136.288C139.295 67.4271 142.311 66.776 144.925 65.3035C147.539 63.8311 149.625 61.6088 150.897 58.9392C151.49 57.0639 151.6 55.0752 151.219 53.1485C150.837 51.2218 149.976 49.4162 148.71 47.8909C147.101 45.8919 145.032 44.2911 142.67 43.2187C140.308 42.1463 137.72 41.6325 135.116 41.7191C132.51 41.8912 129.984 42.6736 127.754 44C125.524 45.3264 123.654 47.1577 122.304 49.3386C121.091 50.9378 120.311 52.81 120.038 54.7814C119.765 56.7528 120.007 58.7595 120.741 60.6154C122.132 62.8927 124.174 64.7253 126.616 65.889C129.058 67.0528 131.794 67.4973 134.491 67.1682Z" fill="url(#paint4_linear_28_8)" fill-opacity="0.03"/>
<path d="M173.71 86.1408C172.022 85.1078 170.101 84.4916 168.113 84.3456C166.126 84.1995 164.132 84.528 162.304 85.3027C159.797 86.9246 157.851 89.2477 156.722 91.9671C155.593 94.6866 155.332 97.6755 155.976 100.542C156.679 108.161 159.96 113.19 164.96 114.562C165.866 114.855 166.819 114.984 167.773 114.943C170.817 114.852 173.739 113.75 176.054 111.819C178.17 110.261 179.846 108.203 180.922 105.839C181.998 103.476 182.439 100.884 182.205 98.3077C181.971 95.7316 181.068 93.2561 179.582 91.1142C178.095 88.9724 176.075 87.2346 173.71 86.0646V86.1408Z" fill="url(#paint5_linear_28_8)" fill-opacity="0.03"/>
<path d="M137.616 106.79C138.476 104.275 140.585 97.3414 121.366 84.9216C119.653 83.8115 117.561 83.4049 115.542 83.79C113.524 84.1751 111.743 85.321 110.585 86.9789C110.009 87.809 109.607 88.7417 109.401 89.7236C109.196 90.7056 109.191 91.7174 109.387 92.7013C109.583 93.6851 109.976 94.6215 110.543 95.457C111.111 96.2924 111.842 97.0105 112.694 97.57L114.804 99.0177C103.007 99.5511 93.6318 102.065 93.6318 114.257V129.496C93.6318 131.517 94.4549 133.455 95.9201 134.883C97.3852 136.312 99.3723 137.115 101.444 137.115C103.516 137.115 105.503 136.312 106.969 134.883C108.434 133.455 109.257 131.517 109.257 129.496V114.79C114.561 114.068 119.919 113.787 125.272 113.952C134.022 113.952 136.835 109.533 137.616 106.79Z" fill="url(#paint6_linear_28_8)" fill-opacity="0.03"/>
<defs>
<linearGradient id="paint0_linear_28_8" x1="109.707" y1="0" x2="109.707" y2="213.006" gradientUnits="userSpaceOnUse">
<stop stop-color="#0072FA"/>
<stop offset="0.5" stop-color="#1D0A42"/>
<stop offset="1" stop-color="#FF0049"/>
</linearGradient>
<linearGradient id="paint1_linear_28_8" x1="47.1954" y1="125.064" x2="47.1954" y2="155.021" gradientUnits="userSpaceOnUse">
<stop stop-color="#0072FA"/>
<stop offset="0.5" stop-color="#1D0A42"/>
<stop offset="1" stop-color="#FF0049"/>
</linearGradient>
<linearGradient id="paint2_linear_28_8" x1="94.1302" y1="155.407" x2="94.1302" y2="181.004" gradientUnits="userSpaceOnUse">
<stop stop-color="#0072FA"/>
<stop offset="0.5" stop-color="#1D0A42"/>
<stop offset="1" stop-color="#FF0049"/>
</linearGradient>
<linearGradient id="paint3_linear_28_8" x1="149.666" y1="138.173" x2="149.666" y2="165.307" gradientUnits="userSpaceOnUse">
<stop stop-color="#0072FA"/>
<stop offset="0.5" stop-color="#1D0A42"/>
<stop offset="1" stop-color="#FF0049"/>
</linearGradient>
<linearGradient id="paint4_linear_28_8" x1="135.685" y1="41.7097" x2="135.685" y2="67.2737" gradientUnits="userSpaceOnUse">
<stop stop-color="#0072FA"/>
<stop offset="0.5" stop-color="#1D0A42"/>
<stop offset="1" stop-color="#FF0049"/>
</linearGradient>
<linearGradient id="paint5_linear_28_8" x1="168.948" y1="84.3118" x2="168.948" y2="114.95" gradientUnits="userSpaceOnUse">
<stop stop-color="#0072FA"/>
<stop offset="0.5" stop-color="#1D0A42"/>
<stop offset="1" stop-color="#FF0049"/>
</linearGradient>
<linearGradient id="paint6_linear_28_8" x1="115.888" y1="83.6482" x2="115.888" y2="137.115" gradientUnits="userSpaceOnUse">
<stop stop-color="#0072FA"/>
<stop offset="0.5" stop-color="#1D0A42"/>
<stop offset="1" stop-color="#FF0049"/>
</linearGradient>
</defs>
</svg>
