<svg width="250" height="250" viewBox="0 0 250 250" fill="none" xmlns="http://www.w3.org/2000/svg">
<path d="M170 23.9063C161.46 18.6292 151.6 15.8798 141.562 15.9766C131.523 16.0734 121.718 19.0124 113.281 24.4532C96.875 35.3126 92.9687 56.3282 89.8437 74.9219C87.6562 86.7188 85.4687 98.9063 80.3125 103.984C77.6562 106.563 71.9531 105.781 63.4375 103.984C53.5156 102.188 41.1718 99.922 31.0156 107.344C23.2031 113.047 18.4375 123.438 16.4062 138.594C14.5515 149.652 15.1507 160.982 18.1614 171.783C21.172 182.583 26.5205 192.59 33.8281 201.094C51.5625 222.266 82.1875 234.375 117.578 234.375C190.937 234.375 234.766 182.734 234.766 132.813C234.766 92.422 205.078 42.7344 170 23.9063ZM117.578 218.75C86.3281 218.75 60.3125 208.906 45.2343 191.797C39.3032 184.95 34.971 176.869 32.5521 168.139C30.1332 159.41 29.6884 150.251 31.25 141.328C31.2953 133.498 34.2785 125.97 39.6093 120.234C41.943 118.764 44.665 118.029 47.4218 118.125C51.5455 118.266 55.6492 118.763 59.6875 119.609C70.0781 121.484 81.875 123.672 90.4687 115C99.0625 106.328 101.562 92.5001 104.297 77.7344C107.266 61.4844 110.391 44.6876 121.25 37.4219C127.318 33.5127 134.383 31.4338 141.602 31.4338C148.82 31.4338 155.885 33.5127 161.953 37.4219C192.109 53.5938 218.516 97.8907 218.516 132.266C219.141 174.766 181.172 218.75 117.578 218.75Z" fill="url(#paint0_linear_106_27)" fill-opacity="0.07"/>
<path d="M73.4375 147.656C72.0134 146.271 70.2725 145.256 68.3662 144.697C66.4599 144.139 64.4461 144.055 62.5 144.453C59.8758 144.766 57.3739 145.74 55.2285 147.283C53.083 148.827 51.364 150.889 50.2323 153.277C49.1006 155.665 48.5932 158.302 48.7575 160.939C48.9218 163.577 49.7525 166.13 51.1718 168.359C52.0795 170.151 53.4188 171.69 55.069 172.835C56.7193 173.981 58.6286 174.698 60.625 174.922H61.3281C64.1924 174.53 66.892 173.352 69.1264 171.517C71.3608 169.683 73.0425 167.264 73.9843 164.531C75.6292 162 76.4586 159.025 76.3608 156.008C76.263 152.99 75.2427 150.076 73.4375 147.656Z" fill="url(#paint1_linear_106_27)" fill-opacity="0.07"/>
<path d="M108.672 175.625C105.662 175.401 102.655 176.104 100.057 177.64C97.4587 179.177 95.3939 181.473 94.1406 184.219C93.6448 186.144 93.6276 188.162 94.0906 190.096C94.5536 192.029 95.4827 193.82 96.7968 195.313C98.2847 197.237 100.19 198.8 102.368 199.882C104.547 200.965 106.942 201.539 109.375 201.563H110.469C113.051 201.375 115.55 200.566 117.753 199.206C119.957 197.846 121.799 195.974 123.125 193.75C124.248 192.079 124.942 190.157 125.146 188.154C125.351 186.152 125.059 184.129 124.297 182.266C122.676 179.702 120.312 177.693 117.521 176.507C114.729 175.32 111.643 175.013 108.672 175.625Z" fill="url(#paint2_linear_106_27)" fill-opacity="0.07"/>
<path d="M159.219 160.781C152.5 164.609 149.141 169.766 150 174.922C150.392 176.887 151.258 178.726 152.525 180.279C153.792 181.831 155.419 183.05 157.266 183.828C159.509 184.905 161.965 185.466 164.453 185.469C167.197 185.464 169.892 184.736 172.266 183.359C174.506 182.014 176.387 180.145 177.748 177.914C179.109 175.683 179.908 173.155 180.078 170.547C180.322 168.567 180.08 166.557 179.372 164.692C178.664 162.827 177.512 161.163 176.016 159.844C173.457 158.261 170.474 157.502 167.47 157.669C164.466 157.837 161.585 158.923 159.219 160.781Z" fill="url(#paint3_linear_106_27)" fill-opacity="0.07"/>
<path d="M149.844 84.8436H151.641C154.648 85.109 157.663 84.4414 160.278 82.9317C162.892 81.4219 164.977 79.1434 166.25 76.4061C166.842 74.4833 166.953 72.4443 166.571 70.4688C166.19 68.4933 165.328 66.6419 164.062 65.078C162.454 63.0283 160.385 61.387 158.023 60.2875C155.661 59.1879 153.073 58.6611 150.469 58.7498C147.862 58.9263 145.337 59.7286 143.107 61.0885C140.876 62.4485 139.007 64.3262 137.656 66.5624C136.443 68.2021 135.664 70.1217 135.391 72.143C135.117 74.1644 135.359 76.2219 136.094 78.1248C137.485 80.4598 139.526 82.3388 141.968 83.532C144.41 84.7252 147.147 85.181 149.844 84.8436Z" fill="url(#paint4_linear_106_27)" fill-opacity="0.07"/>
<path d="M189.062 104.297C187.374 103.238 185.453 102.606 183.466 102.456C181.478 102.306 179.484 102.643 177.656 103.437C175.149 105.1 173.204 107.482 172.074 110.271C170.945 113.059 170.685 116.124 171.328 119.062C172.031 126.875 175.312 132.031 180.312 133.437C181.218 133.738 182.171 133.871 183.125 133.828C186.17 133.736 189.092 132.606 191.406 130.625C193.523 129.027 195.198 126.918 196.274 124.494C197.35 122.071 197.792 119.413 197.557 116.772C197.323 114.13 196.42 111.592 194.934 109.396C193.448 107.2 191.427 105.418 189.062 104.219V104.297Z" fill="url(#paint5_linear_106_27)" fill-opacity="0.07"/>
<path d="M152.969 125.469C153.828 122.891 155.938 115.781 136.719 103.047C135.006 101.909 132.913 101.492 130.895 101.887C128.876 102.282 127.095 103.456 125.938 105.156C125.362 106.007 124.959 106.964 124.754 107.971C124.548 108.977 124.543 110.015 124.739 111.024C124.935 112.032 125.328 112.993 125.896 113.849C126.463 114.706 127.194 115.442 128.047 116.016L130.156 117.5C118.359 118.047 108.984 120.625 108.984 133.125V148.75C108.984 150.822 109.807 152.809 111.273 154.274C112.738 155.739 114.725 156.563 116.797 156.563C118.869 156.563 120.856 155.739 122.321 154.274C123.786 152.809 124.609 150.822 124.609 148.75V133.672C129.914 132.931 135.272 132.644 140.625 132.813C149.375 132.813 152.188 128.281 152.969 125.469Z" fill="url(#paint6_linear_106_27)" fill-opacity="0.07"/>
<defs>
<linearGradient id="paint0_linear_106_27" x1="125.059" y1="15.9741" x2="125.059" y2="234.375" gradientUnits="userSpaceOnUse">
<stop stop-color="#0072FA"/>
<stop offset="0.5" stop-color="#1D0A42"/>
<stop offset="1" stop-color="#FF0049"/>
</linearGradient>
<linearGradient id="paint1_linear_106_27" x1="62.5479" y1="144.206" x2="62.5479" y2="174.922" gradientUnits="userSpaceOnUse">
<stop stop-color="#0072FA"/>
<stop offset="0.5" stop-color="#1D0A42"/>
<stop offset="1" stop-color="#FF0049"/>
</linearGradient>
<linearGradient id="paint2_linear_106_27" x1="109.483" y1="175.318" x2="109.483" y2="201.563" gradientUnits="userSpaceOnUse">
<stop stop-color="#0072FA"/>
<stop offset="0.5" stop-color="#1D0A42"/>
<stop offset="1" stop-color="#FF0049"/>
</linearGradient>
<linearGradient id="paint3_linear_106_27" x1="165.019" y1="157.646" x2="165.019" y2="185.469" gradientUnits="userSpaceOnUse">
<stop stop-color="#0072FA"/>
<stop offset="0.5" stop-color="#1D0A42"/>
<stop offset="1" stop-color="#FF0049"/>
</linearGradient>
<linearGradient id="paint4_linear_106_27" x1="151.038" y1="58.7402" x2="151.038" y2="84.9518" gradientUnits="userSpaceOnUse">
<stop stop-color="#0072FA"/>
<stop offset="0.5" stop-color="#1D0A42"/>
<stop offset="1" stop-color="#FF0049"/>
</linearGradient>
<linearGradient id="paint5_linear_106_27" x1="184.301" y1="102.421" x2="184.301" y2="133.836" gradientUnits="userSpaceOnUse">
<stop stop-color="#0072FA"/>
<stop offset="0.5" stop-color="#1D0A42"/>
<stop offset="1" stop-color="#FF0049"/>
</linearGradient>
<linearGradient id="paint6_linear_106_27" x1="131.24" y1="101.741" x2="131.24" y2="156.563" gradientUnits="userSpaceOnUse">
<stop stop-color="#0072FA"/>
<stop offset="0.5" stop-color="#1D0A42"/>
<stop offset="1" stop-color="#FF0049"/>
</linearGradient>
</defs>
</svg>
