<svg width="286" height="305" viewBox="0 0 286 305" fill="none" xmlns="http://www.w3.org/2000/svg">
<g clip-path="url(#clip0_263_5627)">
<path d="M211.497 53.0658L40.2757 68.0457C34.0833 68.5874 28.3598 71.5669 24.3642 76.3286C20.3686 81.0904 18.4283 87.2443 18.9701 93.4367L28.5027 202.395C29.0445 208.588 32.024 214.311 36.7857 218.307C41.5474 222.303 47.7014 224.243 53.8938 223.701L225.115 208.721C231.307 208.179 237.031 205.2 241.026 200.438C245.022 195.676 246.962 189.523 246.42 183.33L236.888 74.3714C236.346 68.179 233.366 62.4555 228.605 58.4599C223.843 54.4643 217.689 52.524 211.497 53.0658ZM230.855 184.692C231.035 186.756 230.389 188.807 229.057 190.395C227.725 191.982 225.817 192.975 223.753 193.156L52.5319 208.136C50.4678 208.316 48.4165 207.669 46.8293 206.338C45.242 205.006 44.2489 203.098 44.0683 201.034L34.5356 92.0749C34.355 90.0108 35.0018 87.9594 36.3337 86.3722C37.6655 84.785 39.5734 83.7918 41.6375 83.6112L212.858 68.6313C214.923 68.4507 216.974 69.0975 218.561 70.4294C220.148 71.7612 221.142 73.6691 221.322 75.7332L230.855 184.692Z" fill="url(#paint0_linear_263_5627)" fill-opacity="0.07"/>
<path d="M117.251 133.069C120.302 129.539 122.23 125.18 122.789 120.549C123.347 115.918 122.512 111.225 120.388 107.072C118.264 102.919 114.95 99.4935 110.868 97.2348C106.787 94.9761 102.124 93.9868 97.4772 94.3933C92.8302 94.7999 88.4102 96.5839 84.7829 99.517C81.1557 102.45 78.4862 106.399 77.1161 110.858C75.746 115.317 75.7377 120.083 77.0922 124.547C78.4467 129.011 81.1024 132.969 84.7193 135.915C67.7723 142.103 56.3246 161.848 58.272 184.106C58.4526 186.17 59.4457 188.078 61.033 189.41C62.6202 190.742 64.6716 191.389 66.7357 191.208C68.7998 191.028 70.7076 190.034 72.0395 188.447C73.3714 186.86 74.0181 184.809 73.8375 182.744C72.3327 165.545 81.6207 150.694 94.4622 149.571L110.028 148.209C122.869 147.085 134.595 160.097 136.1 177.297C136.28 179.361 137.273 181.269 138.861 182.601C140.448 183.933 142.499 184.58 144.563 184.399C146.628 184.218 148.535 183.225 149.867 181.638C151.199 180.051 151.846 178 151.665 175.935C149.718 153.677 135.015 136.22 117.251 133.069ZM98.8405 109.976C100.38 109.841 101.924 110.166 103.279 110.909C104.634 111.652 105.738 112.781 106.451 114.151C107.165 115.522 107.456 117.073 107.287 118.609C107.119 120.145 106.499 121.597 105.506 122.78C104.513 123.964 103.191 124.827 101.708 125.259C100.224 125.691 98.6458 125.674 97.1721 125.21C95.6985 124.745 94.3957 123.854 93.4285 122.649C92.4614 121.444 91.8733 119.979 91.7386 118.44C91.558 116.375 92.2048 114.324 93.5367 112.737C94.8685 111.15 96.7764 110.156 98.8405 109.976Z" fill="url(#paint1_linear_263_5627)" fill-opacity="0.07"/>
<path d="M198.655 85.5586L175.306 87.6013C173.242 87.7819 171.334 88.7751 170.003 90.3623C168.671 91.9496 168.024 94.0009 168.205 96.065C168.385 98.1291 169.378 100.037 170.966 101.369C172.553 102.701 174.604 103.347 176.668 103.167L200.017 101.124C202.081 100.944 203.988 99.9504 205.32 98.3632C206.652 96.7759 207.299 94.7246 207.118 92.6605C206.938 90.5964 205.945 88.6885 204.357 87.3567C202.77 86.0248 200.719 85.378 198.655 85.5586Z" fill="url(#paint2_linear_263_5627)" fill-opacity="0.07"/>
<path d="M201.378 116.69L154.682 120.775C152.618 120.956 150.71 121.949 149.378 123.536C148.046 125.123 147.399 127.175 147.58 129.239C147.76 131.303 148.754 133.211 150.341 134.543C151.928 135.875 153.979 136.521 156.044 136.341L202.74 132.255C204.804 132.075 206.712 131.082 208.044 129.494C209.376 127.907 210.023 125.856 209.842 123.792C209.661 121.727 208.668 119.82 207.081 118.488C205.494 117.156 203.442 116.509 201.378 116.69Z" fill="url(#paint3_linear_263_5627)" fill-opacity="0.07"/>
<path d="M204.102 147.821L180.754 149.864C178.69 150.044 176.782 151.037 175.45 152.625C174.118 154.212 173.471 156.263 173.652 158.327C173.832 160.391 174.825 162.299 176.413 163.631C178 164.963 180.051 165.61 182.115 165.429L205.464 163.386C207.528 163.206 209.436 162.213 210.768 160.625C212.099 159.038 212.746 156.987 212.566 154.923C212.385 152.859 211.392 150.951 209.805 149.619C208.217 148.287 206.166 147.64 204.102 147.821Z" fill="url(#paint4_linear_263_5627)" fill-opacity="0.07"/>
<path d="M226.477 224.287L55.2556 239.267C49.0632 239.808 43.3397 242.788 39.3441 247.55C35.3485 252.311 33.4082 258.465 33.95 264.658C34.4917 270.85 37.4712 276.574 42.2329 280.569C46.9947 284.565 53.1486 286.505 59.341 285.963L230.562 270.983C236.754 270.442 242.478 267.462 246.473 262.7C250.469 257.939 252.409 251.785 251.868 245.592C251.326 239.4 248.346 233.676 243.585 229.681C238.823 225.685 232.669 223.745 226.477 224.287ZM229.2 255.418L57.9792 270.398C55.9151 270.578 53.8637 269.932 52.2765 268.6C50.6892 267.268 49.6961 265.36 49.5155 263.296C49.3349 261.232 49.9817 259.18 51.3136 257.593C52.6454 256.006 54.5532 255.013 56.6174 254.832L227.838 239.852C229.902 239.672 231.954 240.318 233.541 241.65C235.128 242.982 236.121 244.89 236.302 246.954C236.483 249.018 235.836 251.07 234.504 252.657C233.172 254.244 231.264 255.237 229.2 255.418Z" fill="url(#paint5_linear_263_5627)" fill-opacity="0.07"/>
</g>
<path d="M201.5 32.096C231 28.0958 253.576 36.6488 258 74.6645" stroke="#0072FA" stroke-opacity="0.1" stroke-width="10" stroke-linecap="round"/>
<path d="M227.5 8.59578C250.5 7.09573 276.173 24.5957 276.173 51.1555" stroke="#0072FA" stroke-opacity="0.1" stroke-width="10" stroke-linecap="round"/>
<defs>
<linearGradient id="paint0_linear_263_5627" x1="125.886" y1="60.5557" x2="139.504" y2="216.211" gradientUnits="userSpaceOnUse">
<stop stop-color="#0072FA"/>
<stop offset="0.5" stop-color="#1D0A42"/>
<stop offset="1" stop-color="#FF0049"/>
</linearGradient>
<linearGradient id="paint1_linear_263_5627" x1="97.4772" y1="94.3933" x2="105.65" y2="187.804" gradientUnits="userSpaceOnUse">
<stop stop-color="#0072FA"/>
<stop offset="0.5" stop-color="#1D0A42"/>
<stop offset="1" stop-color="#FF0049"/>
</linearGradient>
<linearGradient id="paint2_linear_263_5627" x1="186.981" y1="86.58" x2="188.342" y2="102.146" gradientUnits="userSpaceOnUse">
<stop stop-color="#0072FA"/>
<stop offset="0.5" stop-color="#1D0A42"/>
<stop offset="1" stop-color="#FF0049"/>
</linearGradient>
<linearGradient id="paint3_linear_263_5627" x1="178.03" y1="118.732" x2="179.392" y2="134.298" gradientUnits="userSpaceOnUse">
<stop stop-color="#0072FA"/>
<stop offset="0.5" stop-color="#1D0A42"/>
<stop offset="1" stop-color="#FF0049"/>
</linearGradient>
<linearGradient id="paint4_linear_263_5627" x1="192.428" y1="148.842" x2="193.79" y2="164.408" gradientUnits="userSpaceOnUse">
<stop stop-color="#0072FA"/>
<stop offset="0.5" stop-color="#1D0A42"/>
<stop offset="1" stop-color="#FF0049"/>
</linearGradient>
<linearGradient id="paint5_linear_263_5627" x1="140.866" y1="231.777" x2="144.951" y2="278.473" gradientUnits="userSpaceOnUse">
<stop stop-color="#0072FA"/>
<stop offset="0.5" stop-color="#1D0A42"/>
<stop offset="1" stop-color="#FF0049"/>
</linearGradient>
<clipPath id="clip0_263_5627">
<rect width="250" height="250" fill="white" transform="translate(0 55.8848) rotate(-5)"/>
</clipPath>
</defs>
</svg>
