<svg width="271" height="271" viewBox="0 0 271 271" fill="none" xmlns="http://www.w3.org/2000/svg">
<g clip-path="url(#clip0_106_106)">
<path d="M211.497 19.0658L40.2757 34.0457C34.0833 34.5874 28.3598 37.5669 24.3642 42.3286C20.3686 47.0904 18.4283 53.2443 18.9701 59.4367L28.5027 168.395C29.0445 174.588 32.024 180.311 36.7857 184.307C41.5474 188.303 47.7014 190.243 53.8938 189.701L225.115 174.721C231.307 174.179 237.031 171.2 241.026 166.438C245.022 161.676 246.962 155.523 246.42 149.33L236.888 40.3714C236.346 34.179 233.366 28.4555 228.605 24.4599C223.843 20.4643 217.689 18.524 211.497 19.0658ZM230.855 150.692C231.035 152.756 230.389 154.807 229.057 156.395C227.725 157.982 225.817 158.975 223.753 159.156L52.5319 174.136C50.4678 174.316 48.4165 173.669 46.8293 172.338C45.242 171.006 44.2489 169.098 44.0683 167.034L34.5356 58.0749C34.355 56.0108 35.0018 53.9594 36.3337 52.3722C37.6655 50.785 39.5734 49.7918 41.6375 49.6112L212.858 34.6313C214.923 34.4507 216.974 35.0975 218.561 36.4294C220.148 37.7612 221.142 39.6691 221.322 41.7332L230.855 150.692Z" fill="url(#paint0_linear_106_106)" fill-opacity="0.07"/>
<path d="M117.251 99.0685C120.302 95.5394 122.23 91.1804 122.789 86.5492C123.347 81.918 122.512 77.2254 120.388 73.0721C118.264 68.9187 114.95 65.4935 110.868 63.2348C106.787 60.9761 102.124 59.9868 97.4772 60.3933C92.8302 60.7999 88.4102 62.5839 84.7829 65.517C81.1557 68.4501 78.4862 72.3988 77.1161 76.8579C75.746 81.3169 75.7377 86.0833 77.0922 90.5471C78.4467 95.0109 81.1024 98.9689 84.7193 101.915C67.7723 108.103 56.3246 127.848 58.272 150.106C58.4526 152.17 59.4457 154.078 61.033 155.41C62.6202 156.742 64.6716 157.389 66.7357 157.208C68.7998 157.028 70.7076 156.034 72.0395 154.447C73.3714 152.86 74.0181 150.809 73.8375 148.744C72.3327 131.545 81.6207 116.694 94.4622 115.571L110.028 114.209C122.869 113.085 134.595 126.097 136.1 143.297C136.28 145.361 137.273 147.269 138.861 148.601C140.448 149.933 142.499 150.58 144.563 150.399C146.628 150.218 148.535 149.225 149.867 147.638C151.199 146.051 151.846 144 151.665 141.935C149.718 119.677 135.015 102.22 117.251 99.0685ZM98.8405 75.9759C100.38 75.8412 101.924 76.166 103.279 76.9092C104.634 77.6524 105.738 78.7807 106.451 80.1512C107.165 81.5218 107.456 83.0732 107.287 84.6092C107.119 86.1452 106.499 87.5968 105.506 88.7804C104.513 89.9641 103.191 90.8267 101.708 91.259C100.224 91.6914 98.6458 91.6742 97.1721 91.2096C95.6985 90.7449 94.3957 89.8537 93.4285 88.6487C92.4614 87.4436 91.8733 85.9788 91.7386 84.4396C91.558 82.3754 92.2048 80.3241 93.5367 78.7369C94.8685 77.1496 96.7764 76.1565 98.8405 75.9759Z" fill="url(#paint1_linear_106_106)" fill-opacity="0.07"/>
<path d="M198.655 51.5586L175.306 53.6013C173.242 53.7819 171.334 54.7751 170.003 56.3623C168.671 57.9496 168.024 60.0009 168.205 62.065C168.385 64.1291 169.378 66.037 170.966 67.3688C172.553 68.7007 174.604 69.3475 176.668 69.1669L200.017 67.1242C202.081 66.9436 203.988 65.9504 205.32 64.3632C206.652 62.7759 207.299 60.7246 207.118 58.6605C206.938 56.5964 205.945 54.6885 204.357 53.3567C202.77 52.0248 200.719 51.378 198.655 51.5586Z" fill="url(#paint2_linear_106_106)" fill-opacity="0.07"/>
<path d="M201.378 82.6897L154.682 86.7752C152.618 86.9557 150.71 87.9489 149.378 89.5361C148.046 91.1234 147.399 93.1747 147.58 95.2388C147.76 97.3029 148.754 99.2108 150.341 100.543C151.928 101.875 153.979 102.521 156.044 102.341L202.74 98.2553C204.804 98.0747 206.712 97.0815 208.044 95.4943C209.376 93.907 210.023 91.8557 209.842 89.7916C209.661 87.7275 208.668 85.8196 207.081 84.4878C205.494 83.1559 203.442 82.5091 201.378 82.6897Z" fill="url(#paint3_linear_106_106)" fill-opacity="0.07"/>
<path d="M204.102 113.821L180.754 115.864C178.69 116.044 176.782 117.037 175.45 118.625C174.118 120.212 173.471 122.263 173.652 124.327C173.832 126.391 174.825 128.299 176.413 129.631C178 130.963 180.051 131.61 182.115 131.429L205.464 129.386C207.528 129.206 209.436 128.213 210.768 126.625C212.099 125.038 212.746 122.987 212.566 120.923C212.385 118.859 211.392 116.951 209.805 115.619C208.217 114.287 206.166 113.64 204.102 113.821Z" fill="url(#paint4_linear_106_106)" fill-opacity="0.07"/>
<path d="M226.477 190.287L55.2556 205.267C49.0632 205.808 43.3397 208.788 39.3441 213.55C35.3485 218.311 33.4082 224.465 33.95 230.658C34.4917 236.85 37.4712 242.574 42.2329 246.569C46.9947 250.565 53.1486 252.505 59.341 251.963L230.562 236.983C236.754 236.442 242.478 233.462 246.473 228.7C250.469 223.939 252.409 217.785 251.868 211.592C251.326 205.4 248.346 199.676 243.585 195.681C238.823 191.685 232.669 189.745 226.477 190.287ZM229.2 221.418L57.9792 236.398C55.9151 236.578 53.8637 235.932 52.2765 234.6C50.6892 233.268 49.6961 231.36 49.5155 229.296C49.3349 227.232 49.9817 225.18 51.3136 223.593C52.6454 222.006 54.5532 221.013 56.6174 220.832L227.838 205.852C229.902 205.672 231.954 206.318 233.541 207.65C235.128 208.982 236.121 210.89 236.302 212.954C236.483 215.018 235.836 217.07 234.504 218.657C233.172 220.244 231.264 221.237 229.2 221.418Z" fill="url(#paint5_linear_106_106)" fill-opacity="0.07"/>
</g>
<defs>
<linearGradient id="paint0_linear_106_106" x1="125.886" y1="26.5557" x2="139.504" y2="182.211" gradientUnits="userSpaceOnUse">
<stop stop-color="#0072FA"/>
<stop offset="0.5" stop-color="#1D0A42"/>
<stop offset="1" stop-color="#FF0049"/>
</linearGradient>
<linearGradient id="paint1_linear_106_106" x1="97.4772" y1="60.3933" x2="105.65" y2="153.804" gradientUnits="userSpaceOnUse">
<stop stop-color="#0072FA"/>
<stop offset="0.5" stop-color="#1D0A42"/>
<stop offset="1" stop-color="#FF0049"/>
</linearGradient>
<linearGradient id="paint2_linear_106_106" x1="186.981" y1="52.58" x2="188.342" y2="68.1455" gradientUnits="userSpaceOnUse">
<stop stop-color="#0072FA"/>
<stop offset="0.5" stop-color="#1D0A42"/>
<stop offset="1" stop-color="#FF0049"/>
</linearGradient>
<linearGradient id="paint3_linear_106_106" x1="178.03" y1="84.7324" x2="179.392" y2="100.298" gradientUnits="userSpaceOnUse">
<stop stop-color="#0072FA"/>
<stop offset="0.5" stop-color="#1D0A42"/>
<stop offset="1" stop-color="#FF0049"/>
</linearGradient>
<linearGradient id="paint4_linear_106_106" x1="192.428" y1="114.842" x2="193.79" y2="130.408" gradientUnits="userSpaceOnUse">
<stop stop-color="#0072FA"/>
<stop offset="0.5" stop-color="#1D0A42"/>
<stop offset="1" stop-color="#FF0049"/>
</linearGradient>
<linearGradient id="paint5_linear_106_106" x1="140.866" y1="197.777" x2="144.951" y2="244.473" gradientUnits="userSpaceOnUse">
<stop stop-color="#0072FA"/>
<stop offset="0.5" stop-color="#1D0A42"/>
<stop offset="1" stop-color="#FF0049"/>
</linearGradient>
<clipPath id="clip0_106_106">
<rect width="250" height="250" fill="white" transform="translate(0 21.8848) rotate(-5)"/>
</clipPath>
</defs>
</svg>
