<svg width="290" height="290" viewBox="0 0 290 290" fill="none" xmlns="http://www.w3.org/2000/svg">
<path d="M225.369 106.802C222.41 90.4189 214.756 75.2475 203.337 63.1322C191.918 51.0168 177.225 42.4793 161.045 38.5571C144.865 34.6349 127.894 35.497 112.195 41.0386C96.4956 46.5802 82.7439 56.5627 72.6113 69.7728C62.4787 82.9829 56.4013 98.8518 55.1179 115.451C53.8344 132.05 57.4002 148.665 65.3818 163.275C73.3633 177.886 85.417 189.864 100.078 197.753C114.739 205.642 131.376 209.102 147.966 207.714L149.323 215.408L120.086 220.563C118.545 220.833 117.121 221.56 115.997 222.649C114.874 223.738 114.103 225.14 113.786 226.672L108.623 251.381C108.364 252.631 108.415 253.925 108.772 255.151C109.128 256.376 109.78 257.496 110.669 258.411C111.558 259.327 112.659 260.01 113.873 260.402C115.088 260.794 116.38 260.883 117.637 260.66L209.963 244.38C211.22 244.16 212.404 243.635 213.411 242.851C214.419 242.067 215.218 241.049 215.741 239.884C216.264 238.72 216.493 237.445 216.409 236.171C216.325 234.898 215.93 233.664 215.259 232.578L201.957 211.125C201.134 209.794 199.931 208.74 198.503 208.101C197.075 207.462 195.488 207.266 193.947 207.539L164.71 212.694L163.354 205.001C184.101 199.358 201.98 186.142 213.46 167.963C224.941 149.784 229.19 127.961 225.369 106.802ZM198.508 81.79C204.312 90.083 208.228 99.5468 209.981 109.516C211.057 115.843 211.286 122.285 210.662 128.673C196.656 125.272 185.795 117.668 183.931 112.046C182.068 106.425 180.363 91.8118 198.508 81.79ZM130.427 190.577C130.427 190.577 130.495 190.962 130.522 191.116C116.508 189.086 103.433 182.872 93.0092 173.287C82.5856 163.702 75.299 151.193 72.1033 137.397C83.4893 127.51 95.8589 118.816 109.018 111.452C115.798 108.512 117.468 108.534 117.88 108.62C120.654 109.956 123.259 120.682 119.551 129.348C117.999 132.863 115.675 135.984 112.753 138.48C110.538 139.964 108.777 142.031 107.664 144.453C106.551 146.876 106.13 149.559 106.446 152.205C108.496 159.777 116.641 161.435 122.534 162.458C126.607 162.654 130.53 164.062 133.798 166.501C134.825 167.827 137.702 173.349 130.35 190.591L130.427 190.577ZM191.813 223.782L196.247 230.933L127.003 243.142L128.724 234.906L191.813 223.782ZM152.947 190.97C150.869 191.336 148.792 191.702 146.715 192.069C152.578 176.279 152.29 164.748 145.91 156.909C140.559 151.378 133.357 148.015 125.681 147.465C129.21 144.051 132.023 139.969 133.956 135.455C139.95 121.309 137.291 100.834 124.774 94.6326C121.187 93.2998 117.346 92.7926 113.535 93.1485C109.725 93.5045 106.044 94.7145 102.766 96.6887C91.273 102.72 80.4485 109.946 70.4722 118.249C71.073 104.913 75.458 92.0231 83.1145 81.0871C90.7711 70.1512 101.383 61.6209 113.709 56.4937C126.034 51.3664 139.565 49.8541 152.719 52.1335C165.873 54.4129 178.106 60.3899 187.988 69.3656C179.806 73.8111 173.44 80.9816 169.995 89.632C166.549 98.2824 166.242 107.866 169.127 116.719C173.221 130.039 190.449 140.011 207.442 144.155C203.407 156.137 196.215 166.809 186.625 175.048C177.035 183.286 165.4 188.787 152.947 190.97Z" fill="url(#paint0_linear_106_24)" fill-opacity="0.07"/>
<defs>
<linearGradient id="paint0_linear_106_24" x1="125.877" y1="37.4438" x2="163.8" y2="252.52" gradientUnits="userSpaceOnUse">
<stop stop-color="#0072FA"/>
<stop offset="0.5" stop-color="#1D0A42"/>
<stop offset="1" stop-color="#FF0049"/>
</linearGradient>
</defs>
</svg>
