<svg width="228" height="290" viewBox="0 0 228 290" fill="none" xmlns="http://www.w3.org/2000/svg">
<path d="M163.369 106.802C160.41 90.4189 152.756 75.2475 141.337 63.1322C129.918 51.0168 115.225 42.4793 99.0453 38.5571C82.8652 34.6349 65.8943 35.497 50.195 41.0386C34.4956 46.5802 20.744 56.5627 10.6114 69.7728C0.478704 82.9829 -5.59865 98.8518 -6.88207 115.451C-8.1655 132.05 -4.59975 148.665 3.38182 163.275C11.3634 177.886 23.4171 189.864 38.078 197.753C52.7388 205.642 69.3756 209.102 85.9662 207.714L87.3229 215.408L58.0864 220.563C56.5452 220.833 55.1207 221.56 53.9973 222.649C52.874 223.738 52.1035 225.14 51.7858 226.672L46.6231 251.381C46.364 252.631 46.4149 253.925 46.7716 255.151C47.1283 256.376 47.7798 257.496 48.6691 258.411C49.5585 259.327 50.6586 260.01 51.8733 260.402C53.088 260.794 54.3802 260.883 55.637 260.66L147.963 244.38C149.22 244.16 150.404 243.635 151.411 242.851C152.419 242.067 153.219 241.049 153.741 239.884C154.264 238.72 154.493 237.445 154.409 236.171C154.325 234.898 153.93 233.664 153.259 232.578L139.957 211.125C139.134 209.794 137.931 208.74 136.503 208.101C135.075 207.462 133.488 207.266 131.947 207.539L102.71 212.694L101.354 205.001C122.101 199.358 139.98 186.142 151.46 167.963C162.941 149.784 167.19 127.961 163.369 106.802ZM136.508 81.79C142.312 90.083 146.228 99.5468 147.981 109.516C149.057 115.843 149.286 122.285 148.662 128.673C134.656 125.272 123.795 117.668 121.931 112.046C120.068 106.425 118.363 91.8118 136.508 81.79ZM68.4272 190.577C68.4272 190.577 68.495 190.962 68.5221 191.116C54.5078 189.086 41.4329 182.872 31.0093 173.287C20.5856 163.702 13.299 151.193 10.1034 137.397C21.4893 127.51 33.8589 118.816 47.0182 111.452C53.7981 108.512 55.4681 108.534 55.8799 108.62C58.6539 109.956 61.2592 120.682 57.5515 129.348C55.9986 132.863 53.675 135.984 50.7527 138.48C48.538 139.964 46.7768 142.031 45.6639 144.453C44.551 146.876 44.1297 149.559 44.4465 152.205C46.4956 159.777 54.6415 161.435 60.5338 162.458C64.6073 162.654 68.5296 164.062 71.7976 166.501C72.8248 167.827 75.7023 173.349 68.3502 190.591L68.4272 190.577ZM129.813 223.782L134.247 230.933L65.003 243.142L66.7239 234.906L129.813 223.782ZM90.9468 190.97C88.8695 191.336 86.7921 191.702 84.7148 192.069C90.5777 176.279 90.2897 164.748 83.9096 156.909C78.5595 151.378 71.3567 148.015 63.6812 147.465C67.2099 144.051 70.0229 139.969 71.9558 135.455C77.9498 121.309 75.2915 100.834 62.7744 94.6326C59.1872 93.2998 55.3457 92.7926 51.5354 93.1485C47.7252 93.5045 44.0442 94.7145 40.7658 96.6887C29.273 102.72 18.4486 109.946 8.47225 118.249C9.07308 104.913 13.4581 92.0231 21.1146 81.0871C28.7711 70.1512 39.3827 61.6209 51.7086 56.4937C64.0345 51.3664 77.5653 49.8541 90.7191 52.1335C103.873 54.4129 116.106 60.3899 125.988 69.3656C117.806 73.8111 111.44 80.9816 107.995 89.632C104.549 98.2824 104.242 107.866 107.127 116.719C111.221 130.039 128.449 140.011 145.442 144.155C141.407 156.137 134.215 166.809 124.625 175.048C115.035 183.286 103.4 188.787 90.9468 190.97Z" fill="url(#paint0_linear_28_22)" fill-opacity="0.03"/>
<defs>
<linearGradient id="paint0_linear_28_22" x1="63.8768" y1="37.4438" x2="101.801" y2="252.52" gradientUnits="userSpaceOnUse">
<stop stop-color="#0072FA"/>
<stop offset="0.5" stop-color="#1D0A42"/>
<stop offset="1" stop-color="#FF0049"/>
</linearGradient>
</defs>
</svg>
