<svg width="255" height="281" viewBox="0 0 255 281" fill="none" xmlns="http://www.w3.org/2000/svg">
<path d="M152.367 190.46L90.3953 198.567C88.844 198.771 87.2671 198.505 85.8688 197.803C84.4705 197.101 83.3152 195.995 82.5526 194.629L61.993 157.923C59.9841 154.01 57.5206 150.235 54.9492 146.238C47.1146 135.741 41.8268 123.566 39.5029 110.676C37.0842 92.1851 42.1098 73.491 53.4743 58.706C64.8387 43.9209 81.6111 34.2559 100.102 31.8372C109.65 30.599 119.35 31.2961 128.623 33.8869C137.896 36.4777 146.552 40.9091 154.076 46.9169C161.076 52.4355 166.887 59.313 171.16 67.1355C175.433 74.958 178.079 83.564 178.94 92.4358C179.573 105.301 177.582 118.161 173.09 130.233C171.835 134.494 170.385 138.466 169.309 143.491L158.883 184.25C158.57 185.831 157.775 187.276 156.609 188.388C155.443 189.5 153.961 190.224 152.367 190.46ZM93.5588 182.395L145.073 175.657L154.201 140.031C155.375 135.15 156.811 130.471 158.191 125.957C162.079 115.929 163.868 105.21 163.447 94.4625C162.807 87.6265 160.785 80.9918 157.504 74.9606C154.223 68.9294 149.751 63.6275 144.36 59.3761C138.488 54.6387 131.723 51.1309 124.468 49.0615C117.213 46.992 109.616 46.4032 102.128 47.3302C87.7467 49.2114 74.7016 56.7286 65.8626 68.2281C57.0235 79.7276 53.1147 94.2674 54.9959 108.649C57.1015 119.204 61.5531 129.15 68.0214 137.752C70.6906 141.894 73.4575 146.181 75.7595 150.528L93.5588 182.395Z" fill="url(#paint0_linear_28_16)" fill-opacity="0.03"/>
<path d="M143.968 246.712L112.981 250.766C111.777 250.905 110.556 250.796 109.394 250.447L92.8879 244.727C91.5136 244.246 90.3011 243.391 89.3871 242.257C88.4732 241.124 87.8941 239.758 87.7153 238.313L84.6754 215.073C84.4066 213.019 84.965 210.942 86.2277 209.299C87.4905 207.656 89.3541 206.582 91.4086 206.313L153.381 198.207C155.435 197.938 157.512 198.496 159.155 199.759C160.798 201.022 161.872 202.885 162.14 204.94L165.18 228.179C165.373 229.631 165.154 231.107 164.548 232.44C163.943 233.773 162.975 234.909 161.754 235.719L147.275 245.492C146.266 246.117 145.141 246.532 143.968 246.712ZM112.737 235.04L140.082 231.463L149.059 225.403L147.661 214.713L101.182 220.793L102.58 231.483L112.737 235.04Z" fill="url(#paint1_linear_28_16)" fill-opacity="0.03"/>
<path d="M143.247 120.742L81.2754 128.848C79.9496 129.031 78.599 128.871 77.3532 128.381C76.1073 127.892 75.008 127.091 74.1607 126.055C73.3133 125.019 72.7464 123.783 72.5141 122.465C72.2818 121.147 72.3921 119.791 72.8343 118.528L84.274 85.5154C84.755 84.1411 85.6104 82.9286 86.7439 82.0146C87.8773 81.1006 89.2435 80.5216 90.6885 80.3428L121.675 76.2895C123.729 76.0208 125.806 76.5792 127.449 77.8419C129.092 79.1046 130.166 80.9682 130.434 83.0227C130.703 85.0772 130.145 87.1543 128.882 88.7971C127.619 90.4399 125.756 91.5138 123.701 91.7825L97.518 95.2076L91.7981 111.714L141.221 105.249C143.275 104.98 145.352 105.539 146.995 106.801C148.638 108.064 149.712 109.928 149.981 111.982C150.249 114.037 149.691 116.114 148.428 117.756C147.166 119.399 145.302 120.473 143.247 120.742Z" fill="url(#paint2_linear_28_16)" fill-opacity="0.03"/>
<path d="M116.315 155.781C114.26 156.05 112.183 155.491 110.54 154.229C108.898 152.966 107.824 151.102 107.555 149.048L103.502 118.062C103.233 116.007 103.791 113.93 105.054 112.288C106.317 110.645 108.18 109.571 110.235 109.302C112.289 109.033 114.366 109.592 116.009 110.854C117.652 112.117 118.726 113.981 118.995 116.035L123.048 147.021C123.317 149.076 122.758 151.153 121.496 152.796C120.233 154.439 118.369 155.512 116.315 155.781Z" fill="url(#paint3_linear_28_16)" fill-opacity="0.03"/>
<defs>
<linearGradient id="paint0_linear_28_16" x1="100.12" y1="31.8348" x2="121.4" y2="194.511" gradientUnits="userSpaceOnUse">
<stop stop-color="#0072FA"/>
<stop offset="0.5" stop-color="#1D0A42"/>
<stop offset="1" stop-color="#FF0049"/>
</linearGradient>
<linearGradient id="paint1_linear_28_16" x1="122.394" y1="202.26" x2="128.474" y2="248.739" gradientUnits="userSpaceOnUse">
<stop stop-color="#0072FA"/>
<stop offset="0.5" stop-color="#1D0A42"/>
<stop offset="1" stop-color="#FF0049"/>
</linearGradient>
<linearGradient id="paint2_linear_28_16" x1="106.154" y1="78.3195" x2="112.234" y2="124.799" gradientUnits="userSpaceOnUse">
<stop stop-color="#0072FA"/>
<stop offset="0.5" stop-color="#1D0A42"/>
<stop offset="1" stop-color="#FF0049"/>
</linearGradient>
<linearGradient id="paint3_linear_28_16" x1="110.235" y1="109.302" x2="116.315" y2="155.781" gradientUnits="userSpaceOnUse">
<stop stop-color="#0072FA"/>
<stop offset="0.5" stop-color="#1D0A42"/>
<stop offset="1" stop-color="#FF0049"/>
</linearGradient>
</defs>
</svg>
