<svg width="267" height="267" viewBox="0 0 267 267" fill="none" xmlns="http://www.w3.org/2000/svg">
<path d="M168.219 185.701L105.867 189.992C104.306 190.101 102.748 189.739 101.396 188.952C100.043 188.166 98.9578 186.991 98.2804 185.581L80.0101 147.683C78.2449 143.654 76.0174 139.736 73.6959 135.588C66.5198 124.63 61.9884 112.155 60.4593 99.1456C59.1788 80.5416 65.3412 62.1908 77.5908 48.1304C89.8404 34.0699 107.174 25.4515 125.778 24.1711C135.384 23.5207 145.023 24.8112 154.12 27.9657C163.216 31.1202 171.585 36.074 178.726 42.5319C185.374 48.4693 190.753 55.6901 194.538 63.7599C198.323 71.8297 200.437 80.5818 200.752 89.4897C200.595 102.369 197.82 115.083 192.596 126.857C191.082 131.033 189.391 134.908 188.009 139.859L175.103 179.902C174.694 181.46 173.813 182.854 172.58 183.892C171.348 184.93 169.825 185.562 168.219 185.701ZM110.016 174.045L161.846 170.477L173.142 135.478C174.613 130.679 176.333 126.097 177.987 121.676C182.483 111.905 184.926 101.315 185.164 90.5625C184.944 83.7002 183.333 76.954 180.428 70.733C177.523 64.512 173.385 58.9458 168.264 54.3719C162.694 49.2834 156.157 45.3674 149.043 42.857C141.928 40.3466 134.381 39.2931 126.851 39.7592C112.381 40.7551 98.8994 47.4583 89.3719 58.3942C79.8445 69.3301 75.0515 83.6029 76.0474 98.0727C77.5019 108.737 81.3352 118.937 87.2639 127.92C89.6741 132.218 92.1729 136.666 94.2041 141.146L110.016 174.045Z" fill="url(#paint0_linear_106_215)" fill-opacity="0.07"/>
<path d="M156.386 241.332L125.21 243.478C123.999 243.543 122.787 243.36 121.649 242.94L105.525 236.219C104.182 235.654 103.025 234.726 102.182 233.539C101.339 232.351 100.845 230.952 100.755 229.499L99.1457 206.117C99.0034 204.05 99.6881 202.011 101.049 200.448C102.41 198.886 104.336 197.929 106.403 197.786L168.756 193.495C170.823 193.353 172.862 194.037 174.424 195.398C175.986 196.759 176.944 198.685 177.086 200.752L178.696 224.135C178.799 225.595 178.49 227.055 177.804 228.349C177.117 229.642 176.081 230.717 174.814 231.45L159.762 240.317C158.717 240.879 157.568 241.224 156.386 241.332ZM125.93 227.766L153.443 225.873L162.775 220.375L162.035 209.619L115.27 212.838L116.011 223.594L125.93 227.766Z" fill="url(#paint1_linear_106_215)" fill-opacity="0.07"/>
<path d="M163.391 115.554L101.039 119.845C99.7043 119.947 98.3661 119.703 97.1526 119.139C95.9391 118.574 94.891 117.707 94.1088 116.621C93.3266 115.535 92.8364 114.267 92.6854 112.937C92.5344 111.607 92.7276 110.261 93.2464 109.027L106.689 76.7777C107.253 75.4356 108.181 74.2778 109.369 73.435C110.556 72.5923 111.955 72.0981 113.408 72.0082L144.585 69.8625C146.652 69.7202 148.691 70.4049 150.253 71.766C151.815 73.127 152.773 75.053 152.915 77.1201C153.057 79.1872 152.373 81.2262 151.012 82.7884C149.651 84.3507 147.725 85.3083 145.657 85.4506L119.314 87.2637L112.592 103.388L162.318 99.9658C164.386 99.8236 166.425 100.508 167.987 101.869C169.549 103.23 170.507 105.156 170.649 107.223C170.791 109.291 170.107 111.33 168.745 112.892C167.384 114.454 165.458 115.412 163.391 115.554Z" fill="url(#paint2_linear_106_215)" fill-opacity="0.07"/>
<path d="M134.361 148.876C132.294 149.018 130.255 148.333 128.693 146.972C127.13 145.611 126.173 143.685 126.03 141.618L123.885 110.442C123.742 108.375 124.427 106.336 125.788 104.774C127.149 103.211 129.075 102.254 131.142 102.112C133.209 101.969 135.248 102.654 136.811 104.015C138.373 105.376 139.33 107.302 139.473 109.369L141.619 140.545C141.761 142.612 141.076 144.651 139.715 146.214C138.354 147.776 136.428 148.734 134.361 148.876Z" fill="url(#paint3_linear_106_215)" fill-opacity="0.07"/>
<defs>
<linearGradient id="paint0_linear_106_215" x1="125.796" y1="24.1698" x2="137.061" y2="187.845" gradientUnits="userSpaceOnUse">
<stop stop-color="#0072FA"/>
<stop offset="0.5" stop-color="#1D0A42"/>
<stop offset="1" stop-color="#FF0049"/>
</linearGradient>
<linearGradient id="paint1_linear_106_215" x1="137.579" y1="195.641" x2="140.798" y2="242.405" gradientUnits="userSpaceOnUse">
<stop stop-color="#0072FA"/>
<stop offset="0.5" stop-color="#1D0A42"/>
<stop offset="1" stop-color="#FF0049"/>
</linearGradient>
<linearGradient id="paint2_linear_106_215" x1="128.969" y1="70.937" x2="132.188" y2="117.702" gradientUnits="userSpaceOnUse">
<stop stop-color="#0072FA"/>
<stop offset="0.5" stop-color="#1D0A42"/>
<stop offset="1" stop-color="#FF0049"/>
</linearGradient>
<linearGradient id="paint3_linear_106_215" x1="131.142" y1="102.112" x2="134.361" y2="148.876" gradientUnits="userSpaceOnUse">
<stop stop-color="#0072FA"/>
<stop offset="0.5" stop-color="#1D0A42"/>
<stop offset="1" stop-color="#FF0049"/>
</linearGradient>
</defs>
</svg>
