<svg width="201" height="283" viewBox="0 0 201 283" fill="none" xmlns="http://www.w3.org/2000/svg">
<g clip-path="url(#clip0_106_188)">
<path d="M129.059 261.451L-41.1431 237.53C-47.2986 236.665 -52.8583 233.39 -56.5992 228.426C-60.3401 223.462 -61.9557 217.215 -61.0906 211.059L-37.1702 40.8569C-36.3051 34.7014 -33.0302 29.1416 -28.0659 25.4007C-23.1015 21.6598 -16.8545 20.0442 -10.699 20.9093L159.503 44.8297C165.659 45.6948 171.219 48.9697 174.96 53.9341C178.7 58.8984 180.316 65.1455 179.451 71.301L155.531 241.503C154.665 247.659 151.39 253.219 146.426 256.959C141.462 260.7 135.215 262.316 129.059 261.451ZM-12.8735 36.3823C-14.9254 36.0939 -17.0077 36.6324 -18.6625 37.8794C-20.3173 39.1264 -21.4089 40.9796 -21.6973 43.0314L-45.6177 213.234C-45.906 215.286 -45.3675 217.368 -44.1206 219.023C-42.8736 220.678 -41.0203 221.769 -38.9685 222.058L131.234 245.978C133.286 246.266 135.368 245.728 137.023 244.481C138.678 243.234 139.769 241.381 140.058 239.329L163.978 69.1264C164.266 67.0746 163.728 64.9922 162.481 63.3374C161.234 61.6827 159.381 60.591 157.329 60.3026L-12.8735 36.3823Z" fill="url(#paint0_linear_106_188)" fill-opacity="0.1"/>
<path d="M106.686 139.967L13.8486 126.92C7.6931 126.055 2.13335 122.78 -1.60754 117.815C-5.34843 112.851 -6.96403 106.604 -6.09893 100.448L-3.92435 84.9755C-3.05924 78.82 0.215696 73.2603 5.18002 69.5194C10.1444 65.7785 16.3914 64.1629 22.5469 65.028L115.385 78.0755C121.54 78.9406 127.1 82.2155 130.841 87.1798C134.582 92.1442 136.197 98.3912 135.332 104.547L133.158 120.02C132.292 126.175 129.017 131.735 124.053 135.476C119.089 139.217 112.842 140.832 106.686 139.967ZM20.3724 80.5009C18.3205 80.2126 16.2382 80.7511 14.5834 81.9981C12.9286 83.245 11.837 85.0983 11.5486 87.1501L9.37401 102.623C9.08565 104.675 9.62418 106.757 10.8711 108.412C12.1181 110.067 13.9714 111.158 16.0232 111.447L108.861 124.494C110.913 124.783 112.995 124.244 114.65 122.997C116.305 121.75 117.396 119.897 117.685 117.845L119.859 102.372C120.148 100.32 119.609 98.238 118.362 96.5832C117.115 94.9284 115.262 93.8368 113.21 93.5484L20.3724 80.5009Z" fill="url(#paint1_linear_106_188)" fill-opacity="0.1"/>
<path d="M33.9216 208.634C32.9026 208.496 31.9207 208.159 31.0322 207.642C30.1437 207.124 29.3661 206.437 28.744 205.618L-11.1511 152.675C-12.4031 151.014 -12.9439 148.923 -12.6543 146.863C-12.3648 144.803 -11.2687 142.942 -9.60711 141.69C-7.94556 140.438 -5.85469 139.897 -3.79445 140.186C-1.73422 140.476 0.126613 141.572 1.37868 143.234L41.2738 196.176C41.8978 196.997 42.3531 197.934 42.6134 198.932C42.8736 199.93 42.9337 200.969 42.7902 201.991C42.6467 203.012 42.3023 203.995 41.7771 204.882C41.2518 205.77 40.556 206.545 39.7298 207.162C38.9061 207.777 37.9691 208.224 36.9724 208.477C35.9757 208.729 34.9389 208.783 33.9216 208.634Z" fill="url(#paint2_linear_106_188)" fill-opacity="0.1"/>
<path d="M-12.4972 202.11C-13.5162 201.973 -14.4981 201.636 -15.3866 201.118C-16.2751 200.601 -17.0527 199.913 -17.6748 199.094C-18.2989 198.273 -18.7542 197.337 -19.0144 196.339C-19.2747 195.341 -19.3348 194.301 -19.1913 193.28C-19.0477 192.258 -18.7034 191.276 -18.1781 190.388C-17.6529 189.501 -16.9571 188.726 -16.1309 188.108L36.8117 148.213C37.6344 147.593 38.5712 147.142 39.5685 146.884C40.5659 146.626 41.6042 146.567 42.6244 146.71C43.6445 146.853 44.6264 147.196 45.514 147.719C46.4016 148.242 47.1775 148.935 47.7975 149.757C48.4174 150.58 48.8693 151.517 49.1272 152.514C49.3851 153.511 49.4441 154.55 49.3007 155.57C49.1574 156.59 48.8145 157.572 48.2916 158.46C47.7688 159.347 47.0762 160.123 46.2535 160.743L-6.68902 200.638C-7.51269 201.254 -8.44974 201.7 -9.44644 201.953C-10.4431 202.205 -11.4799 202.259 -12.4972 202.11Z" fill="url(#paint3_linear_106_188)" fill-opacity="0.1"/>
<path d="M114.548 196.297L68.1293 189.774C66.0775 189.485 64.2242 188.394 62.9773 186.739C61.7303 185.084 61.1918 183.002 61.4802 180.95C61.7685 178.898 62.8602 177.045 64.5149 175.798C66.1697 174.551 68.2521 174.012 70.3039 174.301L116.723 180.824C118.775 181.113 120.628 182.204 121.875 183.859C123.122 185.514 123.66 187.596 123.372 189.648C123.084 191.7 121.992 193.553 120.337 194.8C118.682 196.047 116.6 196.586 114.548 196.297Z" fill="url(#paint4_linear_106_188)" fill-opacity="0.1"/>
<path d="M88.0769 216.245C86.0325 215.928 84.1832 214.851 82.8993 213.229L82.134 211.938C81.9018 211.466 81.7335 210.965 81.6334 210.448C81.4169 209.979 81.2741 209.48 81.2102 208.968C81.2482 208.448 81.3209 207.931 81.4277 207.421C81.7441 205.377 82.8212 203.527 84.4432 202.243C85.682 201.323 87.1658 200.79 88.7072 200.711C90.2486 200.633 91.7787 201.013 93.1043 201.804C94.0022 202.305 94.7922 202.98 95.429 203.787C96.6344 205.469 97.16 207.543 96.9006 209.595C96.8626 210.115 96.79 210.632 96.6832 211.143C96.5304 211.616 96.308 212.063 96.0233 212.47C95.7846 212.939 95.4847 213.375 95.1313 213.765C94.7887 214.13 94.4242 214.474 94.0398 214.795C93.205 215.396 92.2598 215.826 91.2584 216.061C90.2291 216.382 89.1364 216.446 88.0769 216.245Z" fill="url(#paint5_linear_106_188)" fill-opacity="0.1"/>
<path d="M94.6006 169.826C92.5488 169.538 90.6955 168.446 89.4486 166.791C88.2016 165.137 87.6631 163.054 87.9514 161.002C87.9823 160.508 88.0514 160.016 88.158 159.532C88.3018 159.03 88.5285 158.555 88.8288 158.128C89.0674 157.658 89.3674 157.223 89.7208 156.833L90.8123 155.803C92.0511 154.882 93.5348 154.349 95.0762 154.271C96.6176 154.193 98.1477 154.573 99.4733 155.363C100.371 155.865 101.161 156.539 101.798 157.347C102.079 157.761 102.335 158.192 102.563 158.638C102.796 159.11 102.964 159.612 103.064 160.128C103.235 160.622 103.322 161.141 103.321 161.663C103.396 162.164 103.43 162.67 103.424 163.177C103.108 165.221 102.031 167.071 100.409 168.354C99.5741 168.955 98.6289 169.386 97.6275 169.62C96.6416 169.886 95.6133 169.956 94.6006 169.826Z" fill="url(#paint6_linear_106_188)" fill-opacity="0.1"/>
</g>
<defs>
<linearGradient id="paint0_linear_106_188" x1="74.4022" y1="32.8695" x2="43.9581" y2="249.491" gradientUnits="userSpaceOnUse">
<stop stop-color="#0072FA"/>
<stop offset="1" stop-color="#FF0049"/>
</linearGradient>
<linearGradient id="paint1_linear_106_188" x1="68.9657" y1="71.5517" x2="60.2674" y2="133.443" gradientUnits="userSpaceOnUse">
<stop stop-color="#0072FA"/>
<stop offset="1" stop-color="#FF0049"/>
</linearGradient>
<linearGradient id="paint2_linear_106_188" x1="19.4216" y1="143.449" x2="10.7188" y2="205.373" gradientUnits="userSpaceOnUse">
<stop stop-color="#0072FA"/>
<stop offset="1" stop-color="#FF0049"/>
</linearGradient>
<linearGradient id="paint3_linear_106_188" x1="19.4083" y1="143.447" x2="10.7056" y2="205.371" gradientUnits="userSpaceOnUse">
<stop stop-color="#0072FA"/>
<stop offset="1" stop-color="#FF0049"/>
</linearGradient>
<linearGradient id="paint4_linear_106_188" x1="93.5133" y1="177.563" x2="91.3387" y2="193.035" gradientUnits="userSpaceOnUse">
<stop stop-color="#0072FA"/>
<stop offset="1" stop-color="#FF0049"/>
</linearGradient>
<linearGradient id="paint5_linear_106_188" x1="90.2495" y1="200.786" x2="88.0758" y2="216.252" gradientUnits="userSpaceOnUse">
<stop stop-color="#0072FA"/>
<stop offset="1" stop-color="#FF0049"/>
</linearGradient>
<linearGradient id="paint6_linear_106_188" x1="96.759" y1="154.365" x2="94.5864" y2="169.824" gradientUnits="userSpaceOnUse">
<stop stop-color="#0072FA"/>
<stop offset="1" stop-color="#FF0049"/>
</linearGradient>
<clipPath id="clip0_106_188">
<rect width="250" height="250" fill="white" transform="translate(-47.2067) rotate(8)"/>
</clipPath>
</defs>
</svg>
