<svg width="225" height="283" viewBox="0 0 225 283" fill="none" xmlns="http://www.w3.org/2000/svg">
<g clip-path="url(#clip0_28_163)">
<path d="M153.059 261.451L-17.1429 237.53C-23.2984 236.665 -28.8582 233.39 -32.5991 228.426C-36.34 223.462 -37.9556 217.215 -37.0905 211.059L-13.1701 40.8569C-12.305 34.7014 -9.03003 29.1416 -4.0657 25.4007C0.898624 21.6598 7.14569 20.0442 13.3012 20.9093L183.504 44.8297C189.659 45.6948 195.219 48.9697 198.96 53.9341C202.701 58.8984 204.316 65.1455 203.451 71.301L179.531 241.503C178.666 247.659 175.391 253.219 170.426 256.959C165.462 260.7 159.215 262.316 153.059 261.451ZM11.1266 36.3823C9.07478 36.0939 6.99243 36.6324 5.33766 37.8794C3.68288 39.1264 2.59123 40.9796 2.30287 43.0314L-21.6175 213.234C-21.9059 215.286 -21.3673 217.368 -20.1204 219.023C-18.8734 220.678 -17.0202 221.769 -14.9683 222.058L155.234 245.978C157.286 246.266 159.368 245.728 161.023 244.481C162.678 243.234 163.769 241.381 164.058 239.329L187.978 69.1264C188.266 67.0746 187.728 64.9922 186.481 63.3374C185.234 61.6827 183.381 60.591 181.329 60.3026L11.1266 36.3823Z" fill="url(#paint0_linear_28_163)" fill-opacity="0.03"/>
<path d="M130.686 139.968L37.8487 126.92C31.6932 126.055 26.1335 122.78 22.3926 117.816C18.6517 112.852 17.0361 106.604 17.9012 100.449L20.0758 84.976C20.9409 78.8205 24.2158 73.2607 29.1801 69.5199C34.1445 65.779 40.3915 64.1634 46.5471 65.0285L139.385 78.0759C145.54 78.9411 151.1 82.216 154.841 87.1803C158.582 92.1446 160.197 98.3917 159.332 104.547L157.158 120.02C156.293 126.176 153.018 131.735 148.053 135.476C143.089 139.217 136.842 140.833 130.686 139.968ZM44.3725 80.5014C42.3206 80.213 40.2383 80.7516 38.5835 81.9985C36.9287 83.2455 35.8371 85.0987 35.5487 87.1506L33.3741 102.624C33.0858 104.675 33.6243 106.758 34.8713 108.412C36.1182 110.067 37.9715 111.159 40.0233 111.447L132.861 124.495C134.913 124.783 136.995 124.245 138.65 122.998C140.305 121.751 141.396 119.897 141.685 117.846L143.859 102.373C144.148 100.321 143.609 98.2385 142.362 96.5837C141.115 94.9289 139.262 93.8373 137.21 93.5489L44.3725 80.5014Z" fill="url(#paint1_linear_28_163)" fill-opacity="0.03"/>
<path d="M57.9218 208.634C56.9028 208.496 55.9209 208.159 55.0324 207.642C54.1439 207.124 53.3663 206.437 52.7442 205.618L12.8491 152.675C11.5971 151.014 11.0563 148.923 11.3459 146.863C11.6354 144.803 12.7315 142.942 14.3931 141.69C16.0546 140.438 18.1455 139.897 20.2057 140.186C22.266 140.476 24.1268 141.572 25.3789 143.234L65.274 196.176C65.898 196.997 66.3533 197.934 66.6136 198.932C66.8738 199.93 66.9339 200.969 66.7904 201.991C66.6469 203.012 66.3025 203.995 65.7773 204.882C65.252 205.77 64.5562 206.545 63.73 207.162C62.9063 207.777 61.9693 208.224 60.9726 208.477C59.9759 208.729 58.9391 208.783 57.9218 208.634Z" fill="url(#paint2_linear_28_163)" fill-opacity="0.03"/>
<path d="M11.503 202.11C10.484 201.973 9.50211 201.636 8.61363 201.118C7.72514 200.601 6.94755 199.913 6.32542 199.094C5.70137 198.273 5.24608 197.337 4.9858 196.339C4.72553 195.341 4.66543 194.301 4.80896 193.28C4.9525 192.258 5.29683 191.276 5.8221 190.388C6.34736 189.501 7.04317 188.726 7.86937 188.108L60.8119 148.213C61.6346 147.593 62.5714 147.142 63.5687 146.884C64.5661 146.626 65.6045 146.567 66.6246 146.71C67.6447 146.853 68.6266 147.196 69.5142 147.719C70.4018 148.242 71.1778 148.935 71.7977 149.757C72.4177 150.58 72.8695 151.517 73.1274 152.514C73.3854 153.511 73.4443 154.55 73.301 155.57C73.1576 156.59 72.8147 157.572 72.2919 158.46C71.769 159.347 71.0765 160.123 70.2538 160.743L17.3112 200.638C16.4875 201.254 15.5505 201.7 14.5538 201.953C13.5571 202.205 12.5203 202.259 11.503 202.11Z" fill="url(#paint3_linear_28_163)" fill-opacity="0.03"/>
<path d="M138.548 196.297L92.1295 189.773C90.0777 189.485 88.2244 188.393 86.9775 186.738C85.7305 185.084 85.192 183.001 85.4803 180.949C85.7687 178.898 86.8603 177.044 88.5151 175.797C90.1699 174.55 92.2523 174.012 94.3041 174.3L140.723 180.824C142.775 181.112 144.628 182.204 145.875 183.859C147.122 185.513 147.66 187.596 147.372 189.648C147.084 191.7 145.992 193.553 144.337 194.8C142.683 196.047 140.6 196.585 138.548 196.297Z" fill="url(#paint4_linear_28_163)" fill-opacity="0.03"/>
<path d="M112.077 216.245C110.033 215.929 108.183 214.852 106.899 213.23L106.134 211.939C105.902 211.466 105.734 210.965 105.634 210.448C105.417 209.98 105.274 209.481 105.21 208.969C105.248 208.449 105.321 207.932 105.428 207.421C105.744 205.377 106.821 203.528 108.443 202.244C109.682 201.323 111.166 200.79 112.707 200.712C114.249 200.634 115.779 201.014 117.104 201.804C118.002 202.306 118.792 202.98 119.429 203.788C120.634 205.469 121.16 207.544 120.901 209.596C120.863 210.116 120.79 210.633 120.683 211.143C120.53 211.616 120.308 212.063 120.023 212.471C119.785 212.94 119.485 213.375 119.131 213.765C118.789 214.13 118.424 214.474 118.04 214.795C117.205 215.396 116.26 215.826 115.259 216.061C114.229 216.383 113.137 216.446 112.077 216.245Z" fill="url(#paint5_linear_28_163)" fill-opacity="0.03"/>
<path d="M118.601 169.826C116.549 169.537 114.696 168.446 113.449 166.791C112.202 165.136 111.663 163.054 111.952 161.002C111.983 160.507 112.052 160.016 112.158 159.532C112.302 159.03 112.529 158.555 112.829 158.127C113.068 157.658 113.368 157.223 113.721 156.832L114.812 155.803C116.051 154.882 117.535 154.349 119.076 154.271C120.618 154.192 122.148 154.573 123.474 155.363C124.371 155.865 125.161 156.539 125.798 157.346C126.079 157.761 126.335 158.192 126.564 158.637C126.796 159.11 126.964 159.611 127.064 160.128C127.235 160.622 127.322 161.14 127.322 161.663C127.396 162.164 127.43 162.67 127.425 163.176C127.108 165.221 126.031 167.07 124.409 168.354C123.574 168.955 122.629 169.385 121.628 169.62C120.642 169.886 119.614 169.955 118.601 169.826Z" fill="url(#paint6_linear_28_163)" fill-opacity="0.03"/>
</g>
<defs>
<linearGradient id="paint0_linear_28_163" x1="98.4024" y1="32.8695" x2="67.9582" y2="249.491" gradientUnits="userSpaceOnUse">
<stop stop-color="#0072FA"/>
<stop offset="0.5" stop-color="#1D0A42"/>
<stop offset="1" stop-color="#FF0049"/>
</linearGradient>
<linearGradient id="paint1_linear_28_163" x1="92.9659" y1="71.5522" x2="84.2675" y2="133.444" gradientUnits="userSpaceOnUse">
<stop stop-color="#0072FA"/>
<stop offset="0.5" stop-color="#1D0A42"/>
<stop offset="1" stop-color="#FF0049"/>
</linearGradient>
<linearGradient id="paint2_linear_28_163" x1="43.4218" y1="143.449" x2="34.719" y2="205.373" gradientUnits="userSpaceOnUse">
<stop stop-color="#0072FA"/>
<stop offset="0.5" stop-color="#1D0A42"/>
<stop offset="1" stop-color="#FF0049"/>
</linearGradient>
<linearGradient id="paint3_linear_28_163" x1="43.4086" y1="143.447" x2="34.7058" y2="205.371" gradientUnits="userSpaceOnUse">
<stop stop-color="#0072FA"/>
<stop offset="0.5" stop-color="#1D0A42"/>
<stop offset="1" stop-color="#FF0049"/>
</linearGradient>
<linearGradient id="paint4_linear_28_163" x1="117.514" y1="177.562" x2="115.339" y2="193.035" gradientUnits="userSpaceOnUse">
<stop stop-color="#0072FA"/>
<stop offset="0.5" stop-color="#1D0A42"/>
<stop offset="1" stop-color="#FF0049"/>
</linearGradient>
<linearGradient id="paint5_linear_28_163" x1="114.25" y1="200.786" x2="112.076" y2="216.253" gradientUnits="userSpaceOnUse">
<stop stop-color="#0072FA"/>
<stop offset="0.5" stop-color="#1D0A42"/>
<stop offset="1" stop-color="#FF0049"/>
</linearGradient>
<linearGradient id="paint6_linear_28_163" x1="120.759" y1="154.365" x2="118.587" y2="169.824" gradientUnits="userSpaceOnUse">
<stop stop-color="#0072FA"/>
<stop offset="0.5" stop-color="#1D0A42"/>
<stop offset="1" stop-color="#FF0049"/>
</linearGradient>
<clipPath id="clip0_28_163">
<rect width="250" height="250" fill="white" transform="translate(-23.2065) rotate(8)"/>
</clipPath>
</defs>
</svg>
