<svg width="321" height="321" viewBox="0 0 321 321" fill="none" xmlns="http://www.w3.org/2000/svg">
<g clip-path="url(#clip0_106_70)">
<path d="M174.195 38.731L71.4162 76.1394C65.5751 78.2654 60.8177 82.6247 58.1907 88.2584C55.5637 93.892 55.2823 100.338 57.4083 106.18L116.193 267.689C118.319 273.53 122.678 278.288 128.312 280.915C133.946 283.542 140.392 283.823 146.233 281.697L249.012 244.289C254.853 242.163 259.61 237.803 262.237 232.17C264.864 226.536 265.146 220.09 263.02 214.249L204.235 52.7389C202.109 46.8978 197.75 42.1404 192.116 39.5134C186.483 36.8864 180.036 36.605 174.195 38.731ZM76.7603 90.8221L179.539 53.4137C181.486 52.705 183.635 52.7988 185.513 53.6745C187.391 54.5501 188.844 56.1359 189.553 58.083L221.617 146.179L104.155 188.932L72.091 100.835C71.3823 98.8885 71.4761 96.7396 72.3518 94.8618C73.2274 92.9839 74.8132 91.5308 76.7603 90.8221ZM243.668 229.606L140.889 267.014C138.942 267.723 136.793 267.629 134.915 266.754C133.037 265.878 131.584 264.292 130.876 262.345L109.499 203.614L226.961 160.862L248.337 219.593C249.046 221.54 248.952 223.689 248.076 225.566C247.201 227.444 245.615 228.897 243.668 229.606Z" fill="url(#paint0_linear_106_70)" fill-opacity="0.07"/>
<path d="M216.268 183.792C215.335 183.353 214.325 183.102 213.294 183.055C212.264 183.008 211.235 183.165 210.266 183.518C209.296 183.871 208.407 184.412 207.648 185.11C206.889 185.809 206.276 186.65 205.844 187.587L202.275 195.37L194.538 191.702C192.652 190.822 190.495 190.728 188.54 191.44C186.585 192.151 184.992 193.61 184.113 195.496C183.234 197.381 183.14 199.539 183.851 201.494C184.563 203.449 186.022 205.041 187.907 205.921L195.691 209.489L192.022 217.226C191.583 218.159 191.332 219.17 191.285 220.2C191.238 221.231 191.395 222.26 191.748 223.229C192.101 224.198 192.642 225.088 193.34 225.847C194.038 226.606 194.88 227.219 195.817 227.651C197.596 228.603 199.675 228.83 201.617 228.283C202.585 227.937 203.476 227.404 204.237 226.713C204.999 226.022 205.616 225.187 206.055 224.257L209.623 216.474L217.36 220.142C218.293 220.582 219.304 220.833 220.334 220.88C221.364 220.927 222.394 220.77 223.363 220.417C224.332 220.064 225.222 219.523 225.981 218.825C226.74 218.126 227.353 217.285 227.785 216.348C228.225 215.415 228.475 214.404 228.522 213.374C228.569 212.344 228.412 211.314 228.059 210.345C227.707 209.376 227.166 208.486 226.467 207.728C225.769 206.969 224.927 206.355 223.991 205.923L216.207 202.355L219.876 194.618C220.386 193.677 220.697 192.642 220.791 191.577C220.885 190.511 220.759 189.437 220.42 188.422C220.082 187.408 219.539 186.473 218.825 185.676C218.111 184.88 217.24 184.239 216.268 183.792Z" fill="url(#paint1_linear_106_70)" fill-opacity="0.07"/>
<path d="M154.001 207.786L150.434 221.971L147.516 219.208C145.982 217.968 144.036 217.354 142.068 217.489C140.1 217.624 138.256 218.499 136.906 219.937C135.557 221.376 134.801 223.272 134.791 225.244C134.781 227.217 135.518 229.12 136.853 230.572L149.539 242.583C150.531 243.52 151.751 244.181 153.078 244.501C154.405 244.82 155.792 244.786 157.102 244.403L157.542 244.242C158.749 243.796 159.827 243.058 160.68 242.095C161.534 241.132 162.136 239.973 162.433 238.721L169.1 211.353C169.378 209.426 168.926 207.465 167.834 205.854C166.742 204.242 165.088 203.097 163.195 202.641C161.303 202.186 159.308 202.454 157.603 203.392C155.897 204.33 154.603 205.871 153.974 207.713L154.001 207.786Z" fill="url(#paint2_linear_106_70)" fill-opacity="0.07"/>
<path d="M110.147 136.867L132.171 128.851C134.118 128.143 135.704 126.69 136.58 124.812C137.455 122.934 137.549 120.785 136.841 118.838L128.824 96.8139C128.116 94.8669 126.663 93.2811 124.785 92.4055C122.907 91.5298 120.758 91.436 118.811 92.1446L96.787 100.161C94.84 100.869 93.2542 102.323 92.3785 104.2C91.5029 106.078 91.409 108.227 92.1177 110.174L100.134 132.198C100.842 134.145 102.296 135.731 104.173 136.607C106.051 137.482 108.2 137.576 110.147 136.867ZM109.472 112.171L116.814 109.499L119.486 116.841L112.144 119.513L109.472 112.171Z" fill="url(#paint3_linear_106_70)" fill-opacity="0.07"/>
<path d="M120.835 166.233L194.249 139.513C196.196 138.804 197.782 137.351 198.657 135.473C199.533 133.595 199.627 131.446 198.918 129.499C198.209 127.552 196.756 125.966 194.878 125.091C193.001 124.215 190.852 124.121 188.905 124.83L115.491 151.55C113.544 152.259 111.958 153.712 111.083 155.59C110.207 157.468 110.113 159.616 110.822 161.564C111.531 163.511 112.984 165.096 114.862 165.972C116.739 166.848 118.888 166.941 120.835 166.233Z" fill="url(#paint4_linear_106_70)" fill-opacity="0.07"/>
<path d="M153.521 96.1393L175.545 88.1232C177.492 87.4146 179.077 85.9615 179.953 84.0836C180.829 82.2057 180.923 80.0569 180.214 78.1098C179.505 76.1628 178.052 74.577 176.174 73.7014C174.296 72.8257 172.148 72.7319 170.201 73.4405L148.176 81.4566C146.229 82.1653 144.644 83.6184 143.768 85.4963C142.892 87.3741 142.798 89.523 143.507 91.47C144.216 93.4171 145.669 95.0028 147.547 95.8785C149.425 96.7542 151.573 96.848 153.521 96.1393Z" fill="url(#paint5_linear_106_70)" fill-opacity="0.07"/>
<path d="M161.537 118.163L183.561 110.147C185.508 109.438 187.094 107.985 187.969 106.108C188.845 104.23 188.939 102.081 188.23 100.134C187.521 98.1867 186.068 96.6009 184.19 95.7253C182.312 94.8496 180.164 94.7558 178.217 95.4645L156.193 103.481C154.246 104.189 152.66 105.642 151.784 107.52C150.908 109.398 150.815 111.547 151.523 113.494C152.232 115.441 153.685 117.027 155.563 117.902C157.441 118.778 159.59 118.872 161.537 118.163Z" fill="url(#paint6_linear_106_70)" fill-opacity="0.07"/>
</g>
<defs>
<linearGradient id="paint0_linear_106_70" x1="122.806" y1="57.4352" x2="197.623" y2="262.993" gradientUnits="userSpaceOnUse">
<stop stop-color="#0072FA"/>
<stop offset="0.5" stop-color="#1D0A42"/>
<stop offset="1" stop-color="#FF0049"/>
</linearGradient>
<linearGradient id="paint1_linear_106_70" x1="199.405" y1="187.471" x2="212.796" y2="224.263" gradientUnits="userSpaceOnUse">
<stop stop-color="#0072FA"/>
<stop offset="0.5" stop-color="#1D0A42"/>
<stop offset="1" stop-color="#FF0049"/>
</linearGradient>
<linearGradient id="paint2_linear_106_70" x1="147.993" y1="206.791" x2="161.147" y2="242.93" gradientUnits="userSpaceOnUse">
<stop stop-color="#0072FA"/>
<stop offset="0.5" stop-color="#1D0A42"/>
<stop offset="1" stop-color="#FF0049"/>
</linearGradient>
<linearGradient id="paint3_linear_106_70" x1="107.799" y1="96.1527" x2="121.159" y2="132.859" gradientUnits="userSpaceOnUse">
<stop stop-color="#0072FA"/>
<stop offset="0.5" stop-color="#1D0A42"/>
<stop offset="1" stop-color="#FF0049"/>
</linearGradient>
<linearGradient id="paint4_linear_106_70" x1="152.198" y1="138.19" x2="157.542" y2="152.873" gradientUnits="userSpaceOnUse">
<stop stop-color="#0072FA"/>
<stop offset="0.5" stop-color="#1D0A42"/>
<stop offset="1" stop-color="#FF0049"/>
</linearGradient>
<linearGradient id="paint5_linear_106_70" x1="159.188" y1="77.4486" x2="164.533" y2="92.1313" gradientUnits="userSpaceOnUse">
<stop stop-color="#0072FA"/>
<stop offset="0.5" stop-color="#1D0A42"/>
<stop offset="1" stop-color="#FF0049"/>
</linearGradient>
<linearGradient id="paint6_linear_106_70" x1="167.205" y1="99.4725" x2="172.549" y2="114.155" gradientUnits="userSpaceOnUse">
<stop stop-color="#0072FA"/>
<stop offset="0.5" stop-color="#1D0A42"/>
<stop offset="1" stop-color="#FF0049"/>
</linearGradient>
<clipPath id="clip0_106_70">
<rect width="250" height="250" fill="white" transform="translate(0 85.5051) rotate(-20)"/>
</clipPath>
</defs>
</svg>
