<svg width="323" height="307" viewBox="0 0 323 307" fill="none" xmlns="http://www.w3.org/2000/svg">
<g clip-path="url(#clip0_263_5629)">
<path d="M217.904 62.9342L210.358 64.9563L206.314 49.8637C205.778 47.8623 204.468 46.1559 202.674 45.1199C200.879 44.0839 198.747 43.8031 196.745 44.3394L166.56 52.4275C164.559 52.9638 162.852 54.2731 161.816 56.0675C160.78 57.862 160.5 59.9944 161.036 61.9958L165.08 77.0884L104.71 93.2646L100.666 78.172C100.129 76.1706 98.82 74.4642 97.0256 73.4282C95.2312 72.3922 93.0987 72.1115 91.0973 72.6477L60.9121 80.7358C58.9107 81.2721 57.2043 82.5815 56.1683 84.3759C55.1323 86.1703 54.8516 88.3027 55.3879 90.3041L59.4319 105.397L51.8856 107.419C45.8814 109.028 40.7622 112.956 37.6542 118.339C34.5462 123.722 33.704 130.12 35.3128 136.124L65.6432 249.318C67.252 255.322 71.1801 260.442 76.5633 263.55C81.9465 266.658 88.3439 267.5 94.3481 265.891L260.367 221.406C266.371 219.798 271.49 215.87 274.598 210.486C277.706 205.103 278.548 198.706 276.939 192.701L246.609 79.5071C245 73.5028 241.072 68.3837 235.689 65.2757C230.306 62.1677 223.908 61.3254 217.904 62.9342ZM178.151 65.4981L193.243 61.454L195.265 69.0003L180.173 73.0444L178.151 65.4981ZM72.5025 93.8064L87.5951 89.7623L89.6171 97.3086L74.5245 101.353L72.5025 93.8064ZM55.9297 122.511L221.948 78.0268C223.95 77.4906 226.082 77.7713 227.876 78.8073C229.671 79.8433 230.98 81.5497 231.516 83.5511L235.561 98.6437L54.4494 147.172L50.4054 132.08C49.8691 130.078 50.1499 127.946 51.1859 126.151C52.2219 124.357 53.9283 123.048 55.9297 122.511ZM256.323 206.314L90.3041 250.798C88.3027 251.335 86.1702 251.054 84.3758 250.018C82.5814 248.982 81.272 247.276 80.7358 245.274L58.4935 162.265L239.605 113.736L261.847 196.746C262.383 198.747 262.102 200.879 261.066 202.674C260.03 204.468 258.324 205.778 256.323 206.314Z" fill="url(#paint0_linear_263_5629)" fill-opacity="0.07"/>
<path d="M110.379 204.979L102.833 207.001C98.6651 208.118 96.1918 212.402 97.3085 216.569L99.3305 224.116C100.447 228.283 104.731 230.757 108.899 229.64L116.445 227.618C120.613 226.501 123.086 222.217 121.969 218.049L119.947 210.503C118.831 206.335 114.547 203.862 110.379 204.979Z" fill="url(#paint1_linear_263_5629)" fill-opacity="0.07"/>
<path d="M138.001 157.137L130.454 159.159C126.287 160.276 123.813 164.56 124.93 168.727L126.952 176.274C128.069 180.441 132.353 182.915 136.52 181.798L144.067 179.776C148.234 178.659 150.708 174.375 149.591 170.208L147.569 162.661C146.452 158.494 142.168 156.02 138.001 157.137Z" fill="url(#paint2_linear_263_5629)" fill-opacity="0.07"/>
<path d="M148.111 194.869L140.564 196.891C136.397 198.008 133.923 202.291 135.04 206.459L137.062 214.005C138.179 218.173 142.463 220.646 146.63 219.53L154.177 217.508C158.344 216.391 160.818 212.107 159.701 207.939L157.679 200.393C156.562 196.225 152.278 193.752 148.111 194.869Z" fill="url(#paint3_linear_263_5629)" fill-opacity="0.07"/>
<path d="M175.732 147.027L168.186 149.049C164.018 150.166 161.545 154.45 162.661 158.617L164.683 166.164C165.8 170.331 170.084 172.805 174.252 171.688L181.798 169.666C185.966 168.549 188.439 164.265 187.322 160.098L185.3 152.551C184.184 148.384 179.9 145.91 175.732 147.027Z" fill="url(#paint4_linear_263_5629)" fill-opacity="0.07"/>
<path d="M185.842 184.759L178.296 186.781C174.128 187.897 171.655 192.181 172.772 196.349L174.794 203.895C175.91 208.063 180.194 210.536 184.362 209.42L191.908 207.398C196.076 206.281 198.549 201.997 197.432 197.829L195.41 190.283C194.294 186.115 190.01 183.642 185.842 184.759Z" fill="url(#paint5_linear_263_5629)" fill-opacity="0.07"/>
<path d="M213.463 136.917L205.917 138.939C201.749 140.056 199.276 144.34 200.393 148.507L202.415 156.054C203.532 160.221 207.816 162.695 211.983 161.578L219.53 159.556C223.697 158.439 226.171 154.155 225.054 149.987L223.032 142.441C221.915 138.273 217.631 135.8 213.463 136.917Z" fill="url(#paint6_linear_263_5629)" fill-opacity="0.07"/>
<path d="M223.574 174.648L216.027 176.67C211.86 177.787 209.386 182.071 210.503 186.239L212.525 193.785C213.642 197.953 217.926 200.426 222.093 199.309L229.64 197.287C233.807 196.17 236.281 191.887 235.164 187.719L233.142 180.173C232.025 176.005 227.741 173.532 223.574 174.648Z" fill="url(#paint7_linear_263_5629)" fill-opacity="0.07"/>
</g>
<path d="M307 179.696C317 209.549 309.5 235.331 272 243.021" stroke="#F3E7F3" stroke-width="10" stroke-linecap="round"/>
<defs>
<linearGradient id="paint0_linear_263_5629" x1="128.829" y1="62.5376" x2="177.357" y2="243.649" gradientUnits="userSpaceOnUse">
<stop stop-color="#0072FA"/>
<stop offset="0.5" stop-color="#1D0A42"/>
<stop offset="1" stop-color="#FF0049"/>
</linearGradient>
<linearGradient id="paint1_linear_263_5629" x1="106.606" y1="205.99" x2="112.672" y2="228.629" gradientUnits="userSpaceOnUse">
<stop stop-color="#0072FA"/>
<stop offset="0.5" stop-color="#1D0A42"/>
<stop offset="1" stop-color="#FF0049"/>
</linearGradient>
<linearGradient id="paint2_linear_263_5629" x1="134.227" y1="158.148" x2="140.293" y2="180.787" gradientUnits="userSpaceOnUse">
<stop stop-color="#0072FA"/>
<stop offset="0.5" stop-color="#1D0A42"/>
<stop offset="1" stop-color="#FF0049"/>
</linearGradient>
<linearGradient id="paint3_linear_263_5629" x1="144.338" y1="195.88" x2="150.404" y2="218.519" gradientUnits="userSpaceOnUse">
<stop stop-color="#0072FA"/>
<stop offset="0.5" stop-color="#1D0A42"/>
<stop offset="1" stop-color="#FF0049"/>
</linearGradient>
<linearGradient id="paint4_linear_263_5629" x1="171.959" y1="148.038" x2="178.025" y2="170.677" gradientUnits="userSpaceOnUse">
<stop stop-color="#0072FA"/>
<stop offset="0.5" stop-color="#1D0A42"/>
<stop offset="1" stop-color="#FF0049"/>
</linearGradient>
<linearGradient id="paint5_linear_263_5629" x1="182.069" y1="185.77" x2="188.135" y2="208.409" gradientUnits="userSpaceOnUse">
<stop stop-color="#0072FA"/>
<stop offset="0.5" stop-color="#1D0A42"/>
<stop offset="1" stop-color="#FF0049"/>
</linearGradient>
<linearGradient id="paint6_linear_263_5629" x1="209.69" y1="137.928" x2="215.756" y2="160.567" gradientUnits="userSpaceOnUse">
<stop stop-color="#0072FA"/>
<stop offset="0.5" stop-color="#1D0A42"/>
<stop offset="1" stop-color="#FF0049"/>
</linearGradient>
<linearGradient id="paint7_linear_263_5629" x1="219.8" y1="175.659" x2="225.866" y2="198.298" gradientUnits="userSpaceOnUse">
<stop stop-color="#0072FA"/>
<stop offset="0.5" stop-color="#1D0A42"/>
<stop offset="1" stop-color="#FF0049"/>
</linearGradient>
<clipPath id="clip0_263_5629">
<rect width="250" height="250" fill="white" transform="translate(0 64.7048) rotate(-15)"/>
</clipPath>
</defs>
</svg>
