<svg width="307" height="307" viewBox="0 0 307 307" fill="none" xmlns="http://www.w3.org/2000/svg">
<g clip-path="url(#clip0_106_83)">
<path d="M217.904 62.934L210.358 64.956L206.314 49.8634C205.778 47.862 204.468 46.1556 202.674 45.1196C200.879 44.0836 198.747 43.8029 196.745 44.3392L166.56 52.4273C164.559 52.9635 162.852 54.2729 161.816 56.0673C160.78 57.8617 160.5 59.9942 161.036 61.9956L165.08 77.0882L104.71 93.2644L100.666 78.1718C100.129 76.1704 98.82 74.464 97.0256 73.428C95.2312 72.392 93.0987 72.1112 91.0973 72.6475L60.9121 80.7356C58.9107 81.2719 57.2043 82.5812 56.1683 84.3756C55.1323 86.17 54.8516 88.3025 55.3879 90.3039L59.4319 105.396L51.8856 107.419C45.8814 109.027 40.7622 112.955 37.6542 118.339C34.5462 123.722 33.704 130.119 35.3128 136.123L65.6432 249.318C67.252 255.322 71.1801 260.441 76.5633 263.549C81.9465 266.657 88.3439 267.5 94.3481 265.891L260.367 221.406C266.371 219.797 271.49 215.869 274.598 210.486C277.706 205.103 278.548 198.705 276.939 192.701L246.609 79.5068C245 73.5026 241.072 68.3834 235.689 65.2754C230.306 62.1674 223.908 61.3252 217.904 62.934ZM178.151 65.4978L193.243 61.4538L195.265 69.0001L180.173 73.0441L178.151 65.4978ZM72.5025 93.8062L87.5951 89.7621L89.6171 97.3084L74.5245 101.352L72.5025 93.8062ZM55.9297 122.511L221.948 78.0266C223.95 77.4903 226.082 77.7711 227.876 78.8071C229.671 79.8431 230.98 81.5495 231.516 83.5509L235.561 98.6434L54.4494 147.172L50.4054 132.079C49.8691 130.078 50.1499 127.946 51.1859 126.151C52.2219 124.357 53.9283 123.047 55.9297 122.511ZM256.323 206.314L90.3041 250.798C88.3027 251.334 86.1702 251.054 84.3758 250.018C82.5814 248.982 81.272 247.275 80.7358 245.274L58.4935 162.265L239.605 113.736L261.847 196.745C262.383 198.747 262.102 200.879 261.066 202.674C260.03 204.468 258.324 205.777 256.323 206.314Z" fill="url(#paint0_linear_106_83)" fill-opacity="0.07"/>
<path d="M110.379 204.979L102.833 207.001C98.6651 208.117 96.1918 212.401 97.3085 216.569L99.3305 224.115C100.447 228.283 104.731 230.756 108.899 229.64L116.445 227.618C120.613 226.501 123.086 222.217 121.969 218.049L119.947 210.503C118.831 206.335 114.547 203.862 110.379 204.979Z" fill="url(#paint1_linear_106_83)" fill-opacity="0.07"/>
<path d="M138.001 157.137L130.454 159.159C126.287 160.276 123.813 164.559 124.93 168.727L126.952 176.273C128.069 180.441 132.353 182.915 136.52 181.798L144.067 179.776C148.234 178.659 150.708 174.375 149.591 170.207L147.569 162.661C146.452 158.493 142.168 156.02 138.001 157.137Z" fill="url(#paint2_linear_106_83)" fill-opacity="0.07"/>
<path d="M148.111 194.869L140.564 196.891C136.397 198.007 133.923 202.291 135.04 206.459L137.062 214.005C138.179 218.173 142.463 220.646 146.63 219.529L154.177 217.507C158.344 216.391 160.818 212.107 159.701 207.939L157.679 200.393C156.562 196.225 152.278 193.752 148.111 194.869Z" fill="url(#paint3_linear_106_83)" fill-opacity="0.07"/>
<path d="M175.732 147.027L168.186 149.049C164.018 150.166 161.545 154.449 162.661 158.617L164.683 166.163C165.8 170.331 170.084 172.804 174.252 171.688L181.798 169.666C185.966 168.549 188.439 164.265 187.322 160.097L185.3 152.551C184.184 148.383 179.9 145.91 175.732 147.027Z" fill="url(#paint4_linear_106_83)" fill-opacity="0.07"/>
<path d="M185.842 184.758L178.296 186.78C174.128 187.897 171.655 192.181 172.772 196.349L174.794 203.895C175.91 208.063 180.194 210.536 184.362 209.419L191.908 207.397C196.076 206.281 198.549 201.997 197.432 197.829L195.41 190.283C194.294 186.115 190.01 183.642 185.842 184.758Z" fill="url(#paint5_linear_106_83)" fill-opacity="0.07"/>
<path d="M213.463 136.917L205.917 138.939C201.749 140.055 199.276 144.339 200.393 148.507L202.415 156.053C203.532 160.221 207.816 162.694 211.983 161.578L219.53 159.556C223.697 158.439 226.171 154.155 225.054 149.987L223.032 142.441C221.915 138.273 217.631 135.8 213.463 136.917Z" fill="url(#paint6_linear_106_83)" fill-opacity="0.07"/>
<path d="M223.574 174.648L216.027 176.67C211.86 177.787 209.386 182.071 210.503 186.238L212.525 193.785C213.642 197.952 217.926 200.426 222.093 199.309L229.64 197.287C233.807 196.17 236.281 191.886 235.164 187.719L233.142 180.172C232.025 176.005 227.741 173.531 223.574 174.648Z" fill="url(#paint7_linear_106_83)" fill-opacity="0.07"/>
</g>
<defs>
<linearGradient id="paint0_linear_106_83" x1="128.829" y1="62.5374" x2="177.357" y2="243.648" gradientUnits="userSpaceOnUse">
<stop stop-color="#0072FA"/>
<stop offset="0.5" stop-color="#1D0A42"/>
<stop offset="1" stop-color="#FF0049"/>
</linearGradient>
<linearGradient id="paint1_linear_106_83" x1="106.606" y1="205.99" x2="112.672" y2="228.629" gradientUnits="userSpaceOnUse">
<stop stop-color="#0072FA"/>
<stop offset="0.5" stop-color="#1D0A42"/>
<stop offset="1" stop-color="#FF0049"/>
</linearGradient>
<linearGradient id="paint2_linear_106_83" x1="134.227" y1="158.148" x2="140.293" y2="180.787" gradientUnits="userSpaceOnUse">
<stop stop-color="#0072FA"/>
<stop offset="0.5" stop-color="#1D0A42"/>
<stop offset="1" stop-color="#FF0049"/>
</linearGradient>
<linearGradient id="paint3_linear_106_83" x1="144.338" y1="195.88" x2="150.404" y2="218.518" gradientUnits="userSpaceOnUse">
<stop stop-color="#0072FA"/>
<stop offset="0.5" stop-color="#1D0A42"/>
<stop offset="1" stop-color="#FF0049"/>
</linearGradient>
<linearGradient id="paint4_linear_106_83" x1="171.959" y1="148.038" x2="178.025" y2="170.677" gradientUnits="userSpaceOnUse">
<stop stop-color="#0072FA"/>
<stop offset="0.5" stop-color="#1D0A42"/>
<stop offset="1" stop-color="#FF0049"/>
</linearGradient>
<linearGradient id="paint5_linear_106_83" x1="182.069" y1="185.769" x2="188.135" y2="208.408" gradientUnits="userSpaceOnUse">
<stop stop-color="#0072FA"/>
<stop offset="0.5" stop-color="#1D0A42"/>
<stop offset="1" stop-color="#FF0049"/>
</linearGradient>
<linearGradient id="paint6_linear_106_83" x1="209.69" y1="137.928" x2="215.756" y2="160.567" gradientUnits="userSpaceOnUse">
<stop stop-color="#0072FA"/>
<stop offset="0.5" stop-color="#1D0A42"/>
<stop offset="1" stop-color="#FF0049"/>
</linearGradient>
<linearGradient id="paint7_linear_106_83" x1="219.8" y1="175.659" x2="225.866" y2="198.298" gradientUnits="userSpaceOnUse">
<stop stop-color="#0072FA"/>
<stop offset="0.5" stop-color="#1D0A42"/>
<stop offset="1" stop-color="#FF0049"/>
</linearGradient>
<clipPath id="clip0_106_83">
<rect width="250" height="250" fill="white" transform="translate(0 64.7046) rotate(-15)"/>
</clipPath>
</defs>
</svg>
