<svg width="290" height="290" viewBox="0 0 290 290" fill="none" xmlns="http://www.w3.org/2000/svg">
<g clip-path="url(#clip0_106_94)">
<path d="M53.5632 65.254L95.8402 85.0841L86.7101 136.863C84.3676 150.267 87.4348 164.053 95.2393 175.199C103.044 186.345 114.949 193.942 128.345 196.325L142.656 198.848C156.059 201.191 169.845 198.123 180.991 190.319C192.137 182.514 199.734 170.609 202.117 157.213L211.247 105.434L257.757 101.259C259.437 101.075 261.012 100.35 262.246 99.1946C263.48 98.0389 264.305 96.5143 264.599 94.8496C264.892 93.1849 264.638 91.4699 263.874 89.962C263.11 88.4541 261.878 87.2347 260.362 86.4868L165.769 38.0754C164.392 37.378 162.839 37.1042 161.306 37.2886L55.8602 50.4277C54.1829 50.6458 52.6218 51.4024 51.4113 52.5838C50.2008 53.7651 49.4064 55.3074 49.1475 56.9788C48.8885 58.6503 49.179 60.3606 49.9753 61.8528C50.7715 63.3451 52.0306 64.5386 53.5632 65.254ZM186.73 154.5C185.066 163.815 179.78 172.092 172.029 177.52C164.277 182.947 154.692 185.083 145.369 183.461L131.059 180.937C121.743 179.274 113.466 173.988 108.039 166.236C102.611 158.485 100.475 148.899 102.098 139.577L110.482 92.029L148.753 110.28C150.035 110.93 151.481 111.185 152.908 111.013L195.114 106.952L186.73 154.5ZM161.019 52.8659L229.646 88.3692L153.544 95.2588L84.3871 62.7561L161.019 52.8659Z" fill="url(#paint0_linear_106_94)" fill-opacity="0.07"/>
<path d="M210.041 214.855C209.349 213.56 208.306 212.485 207.031 211.755C205.757 211.026 204.303 210.67 202.835 210.729L132.597 214.051L67.759 186.753C66.4002 186.195 64.9119 186.032 63.4647 186.282C62.0174 186.532 60.67 187.185 59.5768 188.166L22.0185 221.208C20.9269 222.177 20.1284 223.432 19.7135 224.831C19.2986 226.23 19.2837 227.717 19.6707 229.124C20.0362 230.568 20.8068 231.878 21.8918 232.898C22.9769 233.919 24.331 234.608 25.7948 234.884L225.834 270.157C227.285 270.408 228.777 270.245 230.139 269.685C231.501 269.125 232.677 268.191 233.532 266.992C234.376 265.802 234.871 264.4 234.96 262.943C235.048 261.486 234.727 260.034 234.033 258.751L210.041 214.855ZM44.5111 222.318L66.2045 203.217L128.192 229.141C129.268 229.568 130.42 229.771 131.577 229.737L198.665 226.732L212.544 251.947L44.5111 222.318Z" fill="url(#paint1_linear_106_94)" fill-opacity="0.07"/>
</g>
<defs>
<linearGradient id="paint0_linear_106_94" x1="163.67" y1="37.3644" x2="135.421" y2="197.572" gradientUnits="userSpaceOnUse">
<stop stop-color="#0072FA"/>
<stop offset="0.5" stop-color="#1D0A42"/>
<stop offset="1" stop-color="#FF0049"/>
</linearGradient>
<linearGradient id="paint1_linear_106_94" x1="135.342" y1="198.487" x2="125.814" y2="252.52" gradientUnits="userSpaceOnUse">
<stop stop-color="#0072FA"/>
<stop offset="0.5" stop-color="#1D0A42"/>
<stop offset="1" stop-color="#FF0049"/>
</linearGradient>
<clipPath id="clip0_106_94">
<rect width="250" height="250" fill="white" transform="translate(43.4121) rotate(10)"/>
</clipPath>
</defs>
</svg>
