<svg width="287" height="287" viewBox="0 0 287 287" fill="none" xmlns="http://www.w3.org/2000/svg">
<g clip-path="url(#clip0_28_172)">
<path d="M213.229 36.9757L43.4702 63.8629C37.3308 64.8353 31.829 68.2067 28.1753 73.2356C24.5217 78.2645 23.0153 84.5388 23.9877 90.6782L45.9863 229.572C46.9587 235.711 50.3302 241.213 55.359 244.867C60.3879 248.521 66.6622 250.027 72.8017 249.054L242.561 222.167C248.7 221.195 254.202 217.823 257.856 212.795C261.509 207.766 263.016 201.491 262.043 195.352L240.045 56.4582C239.072 50.3187 235.701 44.817 230.672 41.1633C225.643 37.5096 219.369 36.0033 213.229 36.9757ZM246.611 197.796C246.935 199.843 246.433 201.934 245.215 203.61C243.997 205.287 242.163 206.41 240.116 206.735L70.3574 233.622C68.3109 233.946 66.2195 233.444 64.5432 232.226C62.8669 231.008 61.7431 229.174 61.4189 227.128L39.4204 88.234C39.0962 86.1875 39.5983 84.096 40.8162 82.4197C42.0341 80.7435 43.868 79.6196 45.9145 79.2955L215.673 52.4083C217.72 52.0842 219.811 52.5863 221.488 53.8042C223.164 55.0221 224.288 56.856 224.612 58.9025L246.611 197.796Z" fill="url(#paint0_linear_28_172)" fill-opacity="0.03"/>
<path d="M219.795 178.313L181.213 184.424C180.889 182.378 179.765 180.544 178.089 179.326C176.413 178.108 174.321 177.606 172.275 177.93C170.228 178.254 168.395 179.378 167.177 181.054C165.959 182.731 165.457 184.822 165.781 186.868L80.9014 200.312C78.8549 200.636 77.0209 201.76 75.803 203.436C74.5852 205.113 74.083 207.204 74.4072 209.251C74.7313 211.297 75.8551 213.131 77.5314 214.349C79.2077 215.567 81.2991 216.069 83.3456 215.745L168.225 202.301C168.549 204.348 169.673 206.182 171.349 207.399C173.026 208.617 175.117 209.119 177.164 208.795C179.21 208.471 181.044 207.347 182.262 205.671C183.48 203.995 183.982 201.903 183.658 199.857L222.239 193.746C224.286 193.422 226.12 192.298 227.338 190.622C228.556 188.946 229.058 186.854 228.733 184.808C228.409 182.761 227.286 180.927 225.609 179.709C223.933 178.491 221.842 177.989 219.795 178.313Z" fill="url(#paint1_linear_28_172)" fill-opacity="0.03"/>
<path d="M119.597 168.951C120.821 169.446 122.158 169.59 123.46 169.368C124.905 169.144 126.258 168.518 127.366 167.562L176.027 125.21C177.081 124.296 177.871 123.117 178.316 121.795C178.76 120.473 178.842 119.056 178.554 117.691C178.265 116.344 177.626 115.097 176.7 114.077C175.775 113.056 174.596 112.299 173.283 111.881L114.992 93.4293C113.723 93.0234 112.372 92.9485 111.067 93.2117C109.761 93.475 108.544 94.0675 107.532 94.9331C106.52 95.7988 105.746 96.9088 105.284 98.1577C104.822 99.4066 104.686 100.753 104.891 102.069L114.521 162.874C114.749 164.247 115.34 165.535 116.232 166.603C117.124 167.672 118.286 168.482 119.597 168.951ZM122.303 112.125L155.613 122.669L127.766 146.617L122.303 112.125Z" fill="url(#paint2_linear_28_172)" fill-opacity="0.03"/>
</g>
<defs>
<linearGradient id="paint0_linear_28_172" x1="128.35" y1="50.4193" x2="157.681" y2="235.611" gradientUnits="userSpaceOnUse">
<stop stop-color="#0072FA"/>
<stop offset="0.5" stop-color="#1D0A42"/>
<stop offset="1" stop-color="#FF0049"/>
</linearGradient>
<linearGradient id="paint1_linear_28_172" x1="149.126" y1="181.596" x2="154.015" y2="212.462" gradientUnits="userSpaceOnUse">
<stop stop-color="#0072FA"/>
<stop offset="0.5" stop-color="#1D0A42"/>
<stop offset="1" stop-color="#FF0049"/>
</linearGradient>
<linearGradient id="paint2_linear_28_172" x1="138.401" y1="88.8755" x2="150.472" y2="165.09" gradientUnits="userSpaceOnUse">
<stop stop-color="#0072FA"/>
<stop offset="0.5" stop-color="#1D0A42"/>
<stop offset="1" stop-color="#FF0049"/>
</linearGradient>
<clipPath id="clip0_28_172">
<rect width="250" height="250" fill="white" transform="translate(0 39.1084) rotate(-9)"/>
</clipPath>
</defs>
</svg>
