<svg width="489" height="377" viewBox="0 0 489 377" fill="none" xmlns="http://www.w3.org/2000/svg">
<g clip-path="url(#clip0_152_214)">
<path d="M342.973 312.518H74.5348C60.7764 312.518 49.5901 301.332 49.5901 287.573V241.664C49.5901 240.134 50.8318 238.892 52.3617 238.892C53.8917 238.892 55.1333 240.134 55.1333 241.664V287.573C55.1333 298.272 63.8363 306.975 74.5348 306.975H342.973C353.671 306.975 362.374 298.272 362.374 287.573V102.55C362.374 91.8519 353.671 83.149 342.973 83.149H74.5348C63.8363 83.149 55.1333 91.8519 55.1333 102.55V183.039C55.1333 184.568 53.8917 185.81 52.3617 185.81C50.8318 185.81 49.5901 184.568 49.5901 183.039V102.55C49.5901 88.792 60.7764 77.6057 74.5348 77.6057H342.973C356.731 77.6057 367.917 88.792 367.917 102.55V287.573C367.917 301.332 356.731 312.518 342.973 312.518Z" fill="#B7B6B4"/>
<path d="M352.884 267.961H64.6345C63.1267 267.961 61.9072 266.742 61.9072 265.234C61.9072 263.726 63.1267 262.507 64.6345 262.507H352.884C354.392 262.507 355.611 263.726 355.611 265.234C355.611 266.742 354.392 267.961 352.884 267.961Z" fill="#B7B6B4"/>
<path d="M208.759 295.256C204.358 295.256 200.777 291.675 200.777 287.274C200.777 282.873 204.358 279.292 208.759 279.292C213.16 279.292 216.741 282.873 216.741 287.274C216.741 291.675 213.16 295.256 208.759 295.256ZM208.759 281.52C205.588 281.52 202.994 284.103 202.994 287.285C202.994 290.467 205.577 293.05 208.759 293.05C211.941 293.05 214.524 290.467 214.524 287.285C214.524 284.103 211.941 281.52 208.759 281.52Z" fill="#B7B6B4"/>
<path d="M158.803 376.066C157.384 376.066 156.198 374.98 156.087 373.561C154.158 349.846 162.783 325.39 179.158 308.128C180.2 307.03 181.919 306.986 183.016 308.028C184.114 309.07 184.158 310.789 183.116 311.886C168.371 327.429 160.344 349.192 161.364 370.578L278.05 369.093C278.183 368.605 278.172 368.106 278.117 367.718C277.906 366.21 276.897 364.647 275.622 363.827C273.017 362.164 269.635 362.053 265.456 362.086L182.772 362.651C180.411 362.674 177.728 362.685 175.101 361.831C171.797 360.744 169.324 358.394 168.482 355.523C168.061 354.081 168.892 352.563 170.333 352.141C171.786 351.72 173.293 352.552 173.715 353.993C174.036 355.101 175.245 356.144 176.797 356.654C178.571 357.23 180.677 357.219 182.739 357.208L265.422 356.642C269.203 356.62 274.391 356.576 278.56 359.248C281.187 360.922 283.094 363.882 283.527 366.975C283.882 369.503 283.216 371.864 281.664 373.627C281.154 374.204 280.423 374.536 279.658 374.547L158.848 376.088C158.848 376.088 158.826 376.088 158.814 376.088L158.803 376.066Z" fill="#B7B6B4"/>
<path d="M219.025 362.396C218.338 362.396 217.651 362.141 217.118 361.62C213.959 358.538 211.897 354.115 211.32 349.159C210.655 343.305 212.03 337.695 213.305 333.46C215.965 324.514 219.968 316.021 225.2 308.216C226.043 306.964 227.728 306.631 228.992 307.474C230.245 308.316 230.577 310.012 229.735 311.254C224.801 318.593 221.032 326.587 218.537 335.013C216.874 340.567 216.32 344.735 216.753 348.527C217.174 352.174 218.704 355.523 220.932 357.696C222.008 358.749 222.041 360.478 220.988 361.554C220.455 362.108 219.746 362.374 219.036 362.374L219.025 362.396Z" fill="#B7B6B4"/>
<path d="M147.595 228.504C144.823 228.504 142.096 227.906 139.635 226.642C135.688 224.613 132.617 220.855 131.22 216.331C129.879 211.997 130.244 207.606 132.229 203.948C132.95 202.628 134.601 202.13 135.932 202.85C137.251 203.571 137.739 205.223 137.029 206.553C135.766 208.87 135.555 211.852 136.442 214.724C137.406 217.85 139.48 220.422 142.129 221.786C147.395 224.491 154.845 222.695 158.726 217.784C162.528 212.972 163.05 205.577 159.99 199.779C157.052 194.225 151.032 190.145 144.28 189.136C143.593 189.036 142.894 188.948 142.185 188.87C138.548 188.449 134.424 187.972 131.564 184.779C126.919 179.591 129.834 171.819 130.788 169.269C132.284 165.289 134.114 161.165 137.34 158.005C141.231 154.202 146.608 152.739 151.043 154.269C153.826 155.234 156.12 157.54 157.185 160.455C158.116 163.005 157.905 165.688 156.63 167.828C155.854 169.125 154.18 169.535 152.883 168.77C151.586 167.994 151.176 166.32 151.941 165.023C152.528 164.036 152.262 162.905 152.052 162.318C151.564 160.987 150.466 159.846 149.258 159.424C146.42 158.438 143.138 159.956 141.154 161.908C138.681 164.324 137.174 167.795 135.899 171.187C134.103 175.976 134.014 179.325 135.633 181.143C137.107 182.784 139.879 183.105 142.817 183.449C143.582 183.537 144.347 183.626 145.089 183.737C153.526 185.001 161.087 190.167 164.823 197.229C168.925 205.001 168.205 214.613 163.016 221.165C159.291 225.877 153.393 228.493 147.617 228.493L147.595 228.504Z" fill="#B7B6B4"/>
<path d="M186.775 217.329C185.611 217.329 184.424 217.152 183.227 216.775C177.495 214.957 173.582 208.493 174.125 201.742C174.591 195.932 180.3 186.498 184.646 182.839C184.923 182.606 185.245 182.429 185.566 182.329C187.917 180.755 191.121 180.422 194.147 181.42C197.307 182.473 200.023 184.868 201.742 187.994C206.087 186.076 210.001 183.127 213.028 179.458C214.203 177.384 215.533 175.489 216.73 173.77C217.196 173.105 217.895 172.717 218.648 172.628C218.793 171.73 219.114 170.854 219.613 170.034C220.799 168.05 222.817 166.642 224.99 166.265C228.527 165.655 232.407 167.473 234.635 170.788C235.19 171.608 235.644 172.495 236.01 173.46C238.072 172.806 239.369 172.207 240.711 171.154C241.254 169.568 241.919 167.85 243.072 166.32C244.813 164.014 247.363 162.706 249.868 162.817C252.407 162.928 254.502 164.269 256.132 166.797C256.465 165.178 257.041 163.327 258.294 161.708C260.156 159.291 263.083 158.138 265.755 158.759C268.161 159.324 270.145 161.265 271.099 163.97C271.697 165.688 271.808 167.429 271.908 168.97L271.952 169.646C272.086 171.52 272.695 175.988 275.356 176.93C277.207 177.584 279.513 176.165 280.666 174.424C282.196 172.129 282.64 169.07 283.072 166.109C283.294 164.624 284.68 163.582 286.165 163.803C287.651 164.025 288.693 165.4 288.471 166.897C288.006 170.123 287.418 174.125 285.212 177.44C282.873 180.965 278.094 183.693 273.527 182.074C269.458 180.633 266.964 176.353 266.509 170.045L266.465 169.325C266.376 168.016 266.298 166.786 265.944 165.766C265.644 164.901 265.046 164.203 264.513 164.07C263.948 163.948 263.128 164.369 262.607 165.045C261.986 165.843 261.587 166.996 261.32 168.77C260.367 174.934 261.62 181.364 262.839 187.584C263.117 189.014 262.218 190.422 260.799 190.755C259.38 191.087 257.939 190.256 257.54 188.848L253.183 173.648C252.618 171.664 251.398 168.338 249.613 168.26C248.904 168.205 248.05 168.77 247.429 169.602C246.62 170.666 246.143 172.107 245.633 173.626C245.478 174.092 245.201 174.502 244.835 174.823C242.429 176.908 240.345 177.85 237.085 178.837C237.108 179.225 237.119 179.624 237.13 180.034C237.185 184.99 235.999 189.923 233.715 194.314C231.265 199.014 226.143 204.203 219.779 203.349C213.382 202.495 209.591 195.81 209.757 189.735C207.795 191.076 205.71 192.218 203.538 193.149C204.092 196.531 203.715 200.278 202.418 204.114C200.056 211.076 193.759 217.307 186.797 217.307L186.775 217.329ZM183.537 192.761C181.475 196.021 179.757 199.757 179.568 202.185C179.269 205.877 181.176 210.4 184.879 211.575C189.868 213.161 195.289 208.094 197.229 202.373C197.883 200.433 198.515 197.739 198.249 194.945C196.487 195.389 194.702 195.688 192.894 195.844C188.671 196.198 185.356 195.09 183.537 192.75V192.761ZM217.573 182.517C216.376 184.69 215.456 186.963 215.223 189.336C214.857 193.028 217.03 197.495 220.478 197.961C223.815 198.416 227.085 195.189 228.859 191.808C230.7 188.282 231.664 184.336 231.664 180.356H231.62C227.673 181.442 223.005 181.121 220.411 178.382C219.569 179.823 218.615 181.209 217.562 182.517H217.573ZM190.677 186.309C189.868 186.309 189.136 186.509 188.582 186.886C187.817 187.407 187.396 188.526 187.717 189.18C188.282 190.333 190.611 190.566 192.44 190.411C193.792 190.3 195.134 190.079 196.442 189.779C195.4 188.271 193.981 187.118 192.429 186.608C191.841 186.409 191.231 186.309 190.666 186.309H190.677ZM226.387 171.608C226.232 171.608 226.076 171.619 225.921 171.642C225.3 171.752 224.657 172.218 224.291 172.839C224.136 173.094 223.903 173.593 224.059 174.058C224.546 175.544 227.629 175.799 230.19 175.101L230.733 174.956C230.555 174.557 230.345 174.18 230.123 173.837C229.214 172.484 227.706 171.597 226.398 171.597L226.387 171.608Z" fill="#B7B6B4"/>
<path d="M309.868 364.203C302.019 364.203 294.17 362.263 287.329 358.316C271.653 349.281 262.473 330.456 265.012 312.54C265.223 311.044 266.598 310.001 268.094 310.223C269.58 310.434 270.622 311.82 270.411 313.305C268.183 329.07 276.265 345.645 290.057 353.594C301.997 360.478 317.374 360.423 329.414 353.904C326.498 350.678 324.425 346.798 323.616 342.563C322.662 337.574 324.092 331.919 327.263 328.172C329.624 325.367 332.729 323.86 336.143 323.926C339.214 323.982 342.141 325.39 344.381 327.895C347.041 330.877 348.416 334.979 348.061 338.882C347.418 345.789 342.629 351.066 338.549 354.359C342.03 356.454 346.121 357.696 350.301 357.651C359.691 357.574 369.214 351.908 375.157 342.873C380.29 335.068 382.951 325.046 383.05 313.106C383.084 308.793 382.807 304.336 382.529 300.024C381.964 291.232 381.376 282.152 383.416 273.272C389.115 248.416 411.088 235.345 438.095 240.733C445.989 242.307 464.47 245.999 474.88 237.706C481.887 232.119 484.193 222.362 483.361 215.167C482.064 203.881 473.029 197.174 467.042 192.739C462.064 189.047 457.641 187.473 455.966 186.963C451.909 185.733 448.461 185.555 445.678 185.422C440.756 185.167 438.516 185.056 436.044 185.843C431.332 187.351 426.299 191.564 426.321 195.433C426.321 196.675 428.028 198.97 430.6 202.451C434.392 207.573 437.552 210.223 441.554 213.571C442.43 214.303 445.224 216.331 447.64 216.974C448.538 217.207 449.459 217.263 449.47 217.263C449.47 217.263 450.423 217.296 451.31 217.13C452.962 216.83 454.747 215.655 455.867 214.657C456.986 213.66 458.716 213.748 459.714 214.879C460.711 215.999 460.623 217.728 459.492 218.726C458.45 219.657 455.678 221.875 452.286 222.496C450.8 222.773 449.381 222.717 449.215 222.706C449.06 222.706 447.696 222.629 446.232 222.241C442.208 221.176 438.461 218.105 438.051 217.75C433.938 214.303 430.379 211.331 426.21 205.688C422.651 200.888 420.878 198.482 420.855 195.455C420.822 188.648 427.796 182.75 434.37 180.644C437.785 179.557 440.678 179.702 445.933 179.968C448.849 180.112 452.84 180.322 457.53 181.741C459.947 182.473 464.813 184.302 470.268 188.36C476.598 193.05 487.175 200.91 488.749 214.546C489.758 223.238 486.898 235.101 478.25 241.986C465.856 251.853 445.634 247.817 436.997 246.099C413.106 241.332 393.682 252.74 388.705 274.502C386.842 282.607 387.385 290.899 387.951 299.691C388.239 304.103 388.527 308.66 388.483 313.172C388.372 326.188 385.412 337.197 379.691 345.889C372.762 356.432 361.509 363.039 350.323 363.128C344.214 363.161 338.383 361.155 333.682 357.762C326.52 362.042 318.183 364.226 309.846 364.226L309.868 364.203ZM335.944 329.381C334.248 329.381 332.729 330.157 331.443 331.687C329.325 334.192 328.338 338.161 328.981 341.543C329.647 345.035 331.509 348.261 334.114 350.9C334.336 350.733 334.547 350.578 334.758 350.412C338.083 347.806 342.141 343.605 342.629 338.383C342.851 335.999 341.964 333.372 340.323 331.531C339.458 330.567 338.017 329.414 336.055 329.381C336.021 329.381 335.988 329.381 335.955 329.381H335.944Z" fill="#B7B6B4"/>
<path d="M152.262 227.85C150.91 227.85 149.735 226.841 149.557 225.467C149.369 223.97 150.422 222.606 151.919 222.418C155.023 222.019 157.916 221.099 160.5 219.691C171.952 213.449 174.258 203.005 175.234 198.549C175.444 197.606 175.588 196.93 175.788 196.376C176.298 194.957 177.872 194.225 179.28 194.746C180.699 195.256 181.42 196.83 180.91 198.238C180.832 198.449 180.688 199.125 180.555 199.724C179.513 204.469 176.73 217.052 163.094 224.48C159.901 226.221 156.375 227.34 152.595 227.828C152.473 227.839 152.362 227.85 152.24 227.85H152.262Z" fill="#B7B6B4"/>
<path d="M36.8406 248.172C33.7474 248.172 30.7873 247.052 28.4924 245.046C25.5212 245.755 22.3838 245.367 19.6454 243.926C16.907 242.485 14.8117 240.123 13.703 237.274C10.7429 236.52 8.14867 234.724 6.38591 232.174C4.62315 229.624 3.86927 226.553 4.21295 223.527C1.9513 221.487 0.476795 218.682 0.099853 215.611C-0.277089 212.54 0.487881 209.469 2.19521 206.941C1.14199 204.081 1.14199 200.921 2.23955 198.028C3.33712 195.134 5.43247 192.761 8.1265 191.32C8.51452 188.294 9.98903 185.5 12.3061 183.438C14.6232 181.387 17.5833 180.267 20.6321 180.234C22.3838 177.739 24.9891 175.943 27.9935 175.2C30.998 174.458 34.1355 174.846 36.8517 176.231C39.5679 174.835 42.7054 174.458 45.7098 175.2C48.7143 175.943 51.3196 177.739 53.0713 180.234C56.12 180.256 59.0802 181.387 61.3972 183.438C63.7143 185.489 65.1888 188.294 65.5769 191.309C68.2709 192.75 70.3662 195.112 71.4638 198.016C72.5614 200.91 72.5614 204.07 71.5081 206.93C73.2155 209.458 73.9804 212.529 73.6035 215.6C73.2266 218.671 71.7631 221.476 69.4904 223.515C69.8341 226.542 69.0691 229.613 67.3174 232.163C65.5547 234.713 62.9604 236.509 60.0003 237.263C58.8917 240.101 56.7963 242.473 54.058 243.915C51.3196 245.356 48.1821 245.733 45.2109 245.034C42.916 247.041 39.9559 248.161 36.8628 248.161L36.8406 248.172ZM29.2574 239.125C30.0556 239.125 30.8317 239.469 31.3638 240.101C32.7275 241.708 34.7231 242.629 36.8295 242.629C38.9359 242.629 40.9315 241.708 42.2952 240.101C43.0712 239.192 44.3351 238.881 45.4326 239.325C47.3839 240.112 49.579 240.001 51.4415 239.014C53.3041 238.039 54.6455 236.298 55.1112 234.236C55.3773 233.072 56.3529 232.207 57.5391 232.085C59.6345 231.875 61.5303 230.755 62.7276 229.014C63.925 227.274 64.3019 225.112 63.7587 223.083C63.4482 221.93 63.9139 220.711 64.9117 220.057C66.6633 218.892 67.8163 217.03 68.0713 214.935C68.3263 212.839 67.65 210.755 66.2199 209.203C65.4106 208.327 65.2553 207.03 65.8318 205.988C66.8518 204.136 66.9959 201.952 66.2531 199.979C65.5103 198.005 63.9361 196.475 61.9516 195.766C60.8318 195.367 60.089 194.291 60.1112 193.105C60.1555 190.999 59.2686 188.992 57.6943 187.595C56.1201 186.198 54.0136 185.566 51.9293 185.855C50.7431 186.021 49.6012 185.411 49.069 184.347C48.1267 182.462 46.4083 181.087 44.3683 180.588C42.3173 180.09 40.1665 180.5 38.4592 181.73C37.4947 182.429 36.1865 182.429 35.222 181.73C33.5146 180.5 31.3528 180.079 29.3128 180.588C27.2618 181.087 25.5545 182.462 24.6011 184.347C24.0689 185.411 22.9159 186.021 21.7407 185.855C19.6565 185.555 17.55 186.198 15.9758 187.595C14.4015 188.992 13.5145 190.999 13.5589 193.116C13.5811 194.303 12.8383 195.378 11.7185 195.777C9.73404 196.487 8.17084 198.028 7.41696 199.99C6.67416 201.963 6.81829 204.147 7.83825 205.999C8.41475 207.041 8.25953 208.338 7.45022 209.214C6.02006 210.766 5.34378 212.85 5.59877 214.946C5.85376 217.041 7.00676 218.904 8.75843 220.068C9.75621 220.722 10.2108 221.941 9.91142 223.094C9.36819 225.134 9.74513 227.296 10.9425 229.026C12.1398 230.755 14.0245 231.875 16.1199 232.096C17.3061 232.218 18.2817 233.083 18.5478 234.247C19.0135 236.298 20.3438 238.039 22.2175 239.026C24.08 240.001 26.2751 240.112 28.2264 239.336C28.559 239.203 28.9137 239.136 29.2574 239.136V239.125Z" fill="#B7B6B4"/>
<path d="M33.581 225.201C32.8825 225.201 32.1841 224.934 31.6408 224.413L17.7605 210.821C16.6629 209.746 16.6518 207.994 17.7162 206.897C18.7805 205.799 20.5432 205.788 21.6408 206.852L33.6475 218.615L55.5766 198.549C56.7075 197.518 58.4591 197.595 59.4902 198.726C60.5212 199.857 60.4436 201.608 59.3128 202.639L35.4546 224.48C34.9224 224.968 34.2572 225.212 33.581 225.212V225.201Z" fill="#B7B6B4"/>
<path d="M458.638 240.478C457.219 240.478 455.723 240.389 454.115 240.223C450.213 239.802 446.111 239.17 441.92 238.327C438.128 237.573 432.984 234.857 430.213 232.141C429.47 231.42 428.716 230.699 427.962 229.968C421.188 223.449 413.516 216.065 411.487 205.877C409.292 194.846 415.246 183.083 422.275 178.072C423.505 177.196 425.201 177.484 426.077 178.715C426.953 179.945 426.665 181.642 425.434 182.517C419.946 186.431 415.091 196.065 416.831 204.812C418.527 213.327 425.235 219.779 431.731 226.032C432.496 226.775 433.261 227.507 434.015 228.238C436.033 230.212 440.224 232.418 442.984 232.972C447.02 233.782 450.955 234.391 454.692 234.79C458.561 235.212 461.61 235.056 464.27 234.325C469.049 233.005 474.093 229.491 473.893 224.879C473.783 222.451 471.765 220.101 469.88 218.072C467.142 215.134 464.326 212.229 461.51 209.447C459.492 207.44 456.343 204.868 452.818 203.97C451.133 203.538 449.337 203.46 447.618 203.726C446.676 203.87 445.401 204.247 444.669 205.2C443.749 206.387 442.031 206.608 440.845 205.677C439.658 204.757 439.437 203.039 440.368 201.852C441.82 199.979 444.037 198.77 446.787 198.338C449.226 197.961 451.787 198.072 454.171 198.693C457.951 199.657 461.72 201.974 465.346 205.577C468.206 208.416 471.066 211.365 473.86 214.358C476.41 217.085 479.137 220.356 479.337 224.635C479.681 232.274 472.74 237.651 465.712 239.58C463.539 240.178 461.233 240.478 458.627 240.478H458.638Z" fill="#B7B6B4"/>
</g>
<path d="M375.057 64.4786C375.329 63.3884 375.488 62.5027 375.783 61.6396C378.736 52.9182 383.483 45.1507 388.888 37.7693C389.524 36.9063 390.319 36.0886 391.205 35.5435C391.682 35.2483 392.636 35.2937 393.181 35.589C393.59 35.8161 393.885 36.7019 393.794 37.2015C393.635 38.1554 393.294 39.132 392.817 39.9951C389.683 45.6958 386.526 51.3738 383.324 57.0291C382.12 59.1413 380.848 61.2308 379.599 63.3203C379.19 64.0244 378.736 64.7057 378.259 65.3417C377.737 66.0684 376.942 66.5 376.147 66.023C375.624 65.705 375.057 65.4779 375.057 64.4786Z" fill="#B7B6B4"/>
<path d="M407.217 98.2975C406.127 98.1158 404.855 97.9795 403.628 97.707C398.791 96.6168 393.953 95.5266 389.138 94.391C388.093 94.1412 387.071 93.7097 386.14 93.21C384.891 92.5514 384.459 91.6202 384.664 90.5981C384.868 89.5761 385.686 88.9402 387.117 88.9175C388.093 88.8947 389.138 88.9175 390.069 89.1446C396.179 90.689 402.288 92.2788 408.375 93.8914C409.056 94.0731 409.761 94.391 410.283 94.8453C411.6 95.9582 411.191 97.707 409.511 98.1385C408.852 98.2975 408.103 98.2294 407.217 98.2975Z" fill="#B7B6B4"/>
<path d="M343.396 37.4062C343.487 36.3388 343.714 35.2713 343.987 34.2266C344.236 33.2954 344.872 32.6367 345.894 32.5459C346.757 32.4778 347.689 33.3408 347.825 34.4764C348.007 35.9981 348.166 37.5425 348.097 39.0642C347.893 43.652 347.598 48.2626 347.28 52.8504C347.166 54.3721 346.962 55.8938 346.712 57.4155C346.621 57.9379 346.439 58.483 346.144 58.8918C345.349 60.0501 343.896 59.9592 343.328 58.7101C343.01 58.006 342.874 57.143 342.874 56.3707C342.76 53.827 343.101 41.1764 343.396 37.4062Z" fill="#B7B6B4"/>
<defs>
<clipPath id="clip0_152_214">
<rect width="488.96" height="298.46" fill="white" transform="translate(0 77.6057)"/>
</clipPath>
</defs>
</svg>
