<svg width="355" height="115" viewBox="0 0 355 115" fill="none" xmlns="http://www.w3.org/2000/svg">
<path d="M213.698 98.3266C214.674 97.3503 214.674 95.7673 213.698 94.791L197.788 78.8811C196.812 77.9048 195.229 77.9048 194.253 78.8811C193.276 79.8574 193.276 81.4404 194.253 82.4167L208.395 96.5588L194.253 110.701C193.276 111.677 193.276 113.26 194.253 114.236C195.229 115.213 196.812 115.213 197.788 114.236L213.698 98.3266ZM219.643 89.6264L217.176 89.2183L216.36 94.1512L218.826 94.5593L219.643 89.6264ZM266.46 2.69009C244.043 1.41339 225.496 1.15585 178.018 1.15611L178.018 6.15611C225.495 6.15585 243.915 6.41422 266.175 7.682L266.46 2.69009ZM178.018 1.15611C154.434 1.15624 122.799 0.0384538 94.0247 0.721602C79.6035 1.06398 65.7865 1.8588 53.9062 3.48382C42.0902 5.10004 31.9269 7.56904 24.9851 11.4031L27.4024 15.7799C33.5039 12.41 42.9055 10.0351 54.5838 8.43769C66.1977 6.84911 79.8042 6.06063 94.1434 5.72019C122.89 5.03771 154.124 6.15624 178.018 6.15611L178.018 1.15611ZM24.9851 11.4031C11.3868 18.9137 3.13524 30.0682 1.03271 42.6143C-1.0678 55.1484 3.03643 68.6628 13.3316 80.7879L17.143 77.5517C7.6123 66.3269 4.15143 54.2563 5.96394 43.4407C7.77445 32.6371 14.914 22.6775 27.4024 15.7799L24.9851 11.4031ZM13.3316 80.7879C23.8926 93.226 39.0716 97.4181 55.9986 98.7406C64.4756 99.4029 73.5154 99.3537 82.7762 99.2062C92.072 99.0582 101.587 98.8115 111.172 99.058L111.3 94.0596C101.581 93.8097 91.9223 94.06 82.6966 94.2069C73.436 94.3543 64.6065 94.3979 56.388 93.7558C39.9241 92.4695 26.4079 88.4634 17.143 77.5517L13.3316 80.7879ZM111.172 99.058C149.813 100.052 165.605 99.0588 211.93 99.0588V94.0588C165.387 94.0588 149.875 95.0515 111.3 94.0596L111.172 99.058ZM266.175 7.682C288.82 8.9717 312.952 8.69077 333.103 22.8135L335.972 18.719C314.384 3.58818 288.492 3.94488 266.46 2.69009L266.175 7.682ZM333.103 22.8135C342.977 29.734 346.968 37.942 348.54 44.5435C350.145 51.2848 349.255 56.1269 349.255 57.3104H354.255C354.255 57.3608 354.253 57.3336 354.28 57.0444C354.301 56.8185 354.332 56.4965 354.363 56.1139C354.425 55.3412 354.49 54.3 354.499 53.0458C354.516 50.5402 354.308 47.1834 353.404 43.3853C351.585 35.7441 346.967 26.4252 335.972 18.719L333.103 22.8135ZM349.255 57.3104C349.255 58.0374 349.744 64.0734 345.29 70.9184C340.865 77.7172 331.251 85.752 310.087 89.6339L310.989 94.5518C333.128 90.491 344.122 81.8798 349.48 73.6456C352.138 69.5615 353.336 65.6775 353.866 62.6938C354.13 61.2032 354.228 59.939 354.258 58.9878C354.287 58.1142 354.255 57.2947 354.255 57.3104H349.255ZM310.087 89.6339C288.71 93.5548 266.105 93.5627 248.79 92.5754C240.144 92.0825 232.843 91.3431 227.709 90.7276C225.142 90.4199 223.118 90.1433 221.739 89.9443C221.049 89.8448 220.521 89.7647 220.168 89.7097C219.991 89.6823 219.858 89.6611 219.77 89.647C219.726 89.6399 219.693 89.6346 219.672 89.6312C219.661 89.6294 219.653 89.6282 219.649 89.6274C219.646 89.627 219.644 89.6267 219.643 89.6265C219.643 89.6264 219.643 89.6264 219.643 89.6264C219.643 89.6264 219.643 89.6264 219.235 92.0929C218.826 94.5593 218.827 94.5594 218.828 94.5595C218.828 94.5596 218.829 94.5598 218.83 94.5599C218.832 94.5603 218.835 94.5607 218.838 94.5613C218.845 94.5624 218.855 94.564 218.867 94.566C218.893 94.5701 218.929 94.5761 218.977 94.5838C219.074 94.5993 219.215 94.6217 219.401 94.6505C219.771 94.7081 220.317 94.7908 221.024 94.893C222.44 95.0973 224.504 95.3792 227.114 95.692C232.332 96.3176 239.738 97.0675 248.505 97.5673C266.015 98.5657 289.062 98.5736 310.989 94.5518L310.087 89.6339Z" fill="#601EEA"/>
</svg>
